<svg width="40" height="40" viewBox="0 0 40 40" fill="none" xmlns="http://www.w3.org/2000/svg">
<path d="M22.3976 30H24.5312C25.0285 30 25.5054 29.8025 25.8571 29.4508C26.2087 29.0992 26.4063 28.6223 26.4063 28.125C26.4063 27.6277 26.2087 27.1508 25.8571 26.7992C25.5054 26.4475 25.0285 26.25 24.5312 26.25H23.0477C22.8954 26.25 22.7484 26.3055 22.6342 26.4062C22.52 26.5069 22.4465 26.6458 22.4275 26.7969C22.3432 27.4697 22.1859 28.1312 21.9582 28.7699C21.956 28.776 21.954 28.7822 21.9519 28.7884C21.9116 28.9023 21.8676 29.0178 21.818 29.1407C21.7797 29.2356 21.7652 29.3384 21.7759 29.4402C21.7866 29.542 21.8221 29.6396 21.8793 29.7245C21.9365 29.8093 22.0137 29.8788 22.1041 29.9269C22.1944 29.9749 22.2952 30 22.3976 30ZM23.5846 27.5H24.5312C24.697 27.5 24.856 27.5658 24.9732 27.6831C25.0904 27.8003 25.1562 27.9592 25.1562 28.125C25.1562 28.2908 25.0904 28.4497 24.9732 28.5669C24.856 28.6842 24.697 28.75 24.5312 28.75H23.2818C23.408 28.3399 23.5091 27.9224 23.5846 27.5Z" fill="black"/>
<path d="M38.125 33.7494H33.8203L34.4902 27.4994H35C35.1658 27.4994 35.3247 27.4336 35.4419 27.3164C35.5592 27.1991 35.625 27.0402 35.625 26.8744V20.6244C35.625 20.5097 35.5934 20.3973 35.5337 20.2993C35.474 20.2014 35.3884 20.1218 35.2865 20.0693L35.5616 17.4994H35.625C35.7908 17.4994 35.9497 17.4336 36.0669 17.3164C36.1842 17.1991 36.25 17.0402 36.25 16.8744V14.9994C36.2496 14.668 36.1178 14.3503 35.8834 14.116C35.6491 13.8816 35.3314 13.7498 35 13.7494H34.9045L34.497 11.3051C34.4372 10.9398 34.2492 10.6078 33.9668 10.3686C33.6844 10.1293 33.326 9.99842 32.9559 9.99941H25.6562C25.7287 9.6467 25.9206 9.32977 26.1996 9.10207C26.4785 8.87436 26.8274 8.74981 27.1875 8.74941C27.7194 8.74781 28.24 8.59618 28.6896 8.31195C29.1392 8.02772 29.4994 7.62242 29.729 7.14261C29.7652 7.06836 29.7863 6.98767 29.7912 6.90519C29.796 6.82272 29.7844 6.74011 29.7571 6.66214C29.7298 6.58417 29.6873 6.51238 29.6321 6.45093C29.5769 6.38948 29.5101 6.33958 29.4354 6.30413C29.3608 6.26868 29.2799 6.24837 29.1974 6.24438C29.1149 6.24039 29.0324 6.2528 28.9547 6.28089C28.877 6.30898 28.8057 6.3522 28.7448 6.40804C28.6839 6.46388 28.6347 6.53123 28.6 6.60621C28.4724 6.87289 28.2722 7.09818 28.0224 7.25618C27.7725 7.41418 27.4831 7.49848 27.1875 7.49941C26.496 7.50031 25.829 7.75562 25.3136 8.21666C24.7982 8.67771 24.4704 9.31227 24.3928 9.99941H23.2941C22.924 9.99842 22.5656 10.1293 22.2832 10.3685C22.0008 10.6078 21.8128 10.9398 21.753 11.305L21.3455 13.7494H21.25C20.9186 13.7498 20.6009 13.8816 20.3666 14.116C20.1322 14.3503 20.0004 14.668 20 14.9994V16.8744C20 17.0402 20.0658 17.1991 20.1831 17.3164C20.3003 17.4336 20.4592 17.4994 20.625 17.4994H20.6884L21.2241 22.4994H17.5V21.6278C17.5015 20.0349 17.0299 18.4773 16.145 17.1527C16.0997 17.0839 16.0412 17.0248 15.973 16.9787C15.9047 16.9326 15.828 16.9005 15.7473 16.8841C15.6666 16.8677 15.5834 16.8675 15.5026 16.8834C15.4218 16.8992 15.3449 16.9309 15.2764 16.9766C15.2079 17.0223 15.1491 17.0811 15.1034 17.1496C15.0576 17.2181 15.0259 17.2949 15.01 17.3757C14.994 17.4565 14.9942 17.5397 15.0105 17.6204C15.0268 17.7011 15.0589 17.7779 15.105 17.8461C15.8528 18.9655 16.2513 20.2817 16.25 21.6278V22.4994H3.125C2.95924 22.4994 2.80027 22.5653 2.68306 22.6825C2.56585 22.7997 2.5 22.9587 2.5 23.1244V25.6244C2.50084 27.1722 2.83953 28.7011 3.49241 30.1045C4.14529 31.5078 5.09663 32.7518 6.28 33.7494H1.875C1.70924 33.7494 1.55027 33.8153 1.43306 33.9325C1.31585 34.0497 1.25 34.2087 1.25 34.3744V35.4682C1.25097 36.3381 1.59699 37.1721 2.21213 37.7873C2.82727 38.4024 3.66131 38.7484 4.53125 38.7494H35.4688C36.3387 38.7484 37.1727 38.4024 37.7879 37.7873C38.403 37.1721 38.749 36.3381 38.75 35.4682V34.3744C38.75 34.2087 38.6842 34.0497 38.5669 33.9325C38.4497 33.8153 38.2908 33.7494 38.125 33.7494ZM32.5634 33.7494H23.6866L23.5526 32.4994H24.5312C25.1587 32.4997 25.7788 32.3649 26.3495 32.1043C26.9203 31.8437 27.4282 31.4633 27.839 30.989C28.2497 30.5147 28.5536 29.9576 28.7299 29.3555C28.9063 28.7534 28.951 28.1204 28.8611 27.4994H33.2334L32.5634 33.7494ZM22.2955 32.4994L22.4295 33.7494H19.9688C20.4216 33.3685 20.8418 32.9503 21.225 32.4994H22.2955ZM22.986 11.5105C22.998 11.4375 23.0355 11.3711 23.092 11.3232C23.1485 11.2754 23.2201 11.2492 23.2941 11.2494H32.9559C33.0299 11.2492 33.1016 11.2754 33.158 11.3232C33.2145 11.3711 33.2521 11.4375 33.264 11.5106L33.6372 13.7494H22.6128L22.986 11.5105ZM21.25 14.9994H35V16.2494H21.25L21.2495 14.9994H21.25ZM34.3047 17.4994L34.037 19.9994H22.2134L21.9453 17.4994H34.3047ZM22.3473 21.2494H34.375V26.2494H28.4844C28.1287 25.502 27.5686 24.8706 26.8691 24.4282C26.1695 23.9857 25.359 23.7504 24.5312 23.7494H23.75V23.1244C23.75 22.9587 23.6842 22.7997 23.5669 22.6825C23.4497 22.5653 23.2908 22.4994 23.125 22.4994H22.4812L22.3473 21.2494ZM3.75 25.6244V23.7494H22.5V24.3744C22.5 24.5402 22.5658 24.6991 22.6831 24.8164C22.8003 24.9336 22.9592 24.9994 23.125 24.9994H24.5312C25.3601 24.9994 26.1549 25.3287 26.741 25.9147C27.327 26.5008 27.6562 27.2956 27.6562 28.1244C27.6562 28.9532 27.327 29.7481 26.741 30.3341C26.1549 30.9202 25.3601 31.2494 24.5312 31.2494H20.9305C20.8368 31.2494 20.7443 31.2705 20.6599 31.3111C20.5755 31.3516 20.5013 31.4107 20.4427 31.4838C19.712 32.3972 18.8167 33.1657 17.803 33.7494H8.44844C7.02105 32.9266 5.8354 31.7426 5.01065 30.3164C4.1859 28.8902 3.75111 27.2719 3.75 25.6244ZM37.5 35.4682C37.4994 36.0067 37.2852 36.523 36.9044 36.9038C36.5236 37.2846 36.0073 37.4988 35.4688 37.4994H4.53125C3.99271 37.4988 3.47641 37.2846 3.0956 36.9038C2.7148 36.523 2.5006 36.0067 2.5 35.4682V34.9994H37.5V35.4682Z" fill="black"/>
<path d="M12.5 20.625C12.5 20.7908 12.5658 20.9497 12.6831 21.0669C12.8003 21.1842 12.9592 21.25 13.125 21.25C13.2908 21.25 13.4497 21.1842 13.5669 21.0669C13.6842 20.9497 13.75 20.7908 13.75 20.625C13.7485 19.2994 13.2212 18.0285 12.2839 17.0911C11.3465 16.1538 10.0756 15.6265 8.75 15.625H7.5C7.33424 15.625 7.17527 15.6908 7.05806 15.8081C6.94085 15.9253 6.875 16.0842 6.875 16.25C6.875 16.4158 6.94085 16.5747 7.05806 16.6919C7.17527 16.8092 7.33424 16.875 7.5 16.875H8.75C9.74422 16.8761 10.6974 17.2716 11.4004 17.9746C12.1034 18.6776 12.4989 19.6308 12.5 20.625Z" fill="black"/>
<path d="M5.625 16.875C5.79076 16.875 5.94973 16.8092 6.06694 16.6919C6.18415 16.5747 6.25 16.4158 6.25 16.25C6.25 16.0842 6.18415 15.9253 6.06694 15.8081C5.94973 15.6908 5.79076 15.625 5.625 15.625C5.12789 15.6244 4.6513 15.4267 4.29979 15.0752C3.94828 14.7237 3.75056 14.2471 3.75 13.75V13.125C3.75056 12.6279 3.94828 12.1513 4.29979 11.7998C4.6513 11.4483 5.12789 11.2506 5.625 11.25H12.5C12.6658 11.25 12.8247 11.1842 12.9419 11.0669C13.0592 10.9497 13.125 10.7908 13.125 10.625C13.125 10.4592 13.0592 10.3003 12.9419 10.1831C12.8247 10.0658 12.6658 10 12.5 10H5.625C4.79648 10.0009 4.00217 10.3305 3.41632 10.9163C2.83047 11.5022 2.50093 12.2965 2.5 13.125V13.75C2.50093 14.5785 2.83047 15.3728 3.41632 15.9587C4.00217 16.5445 4.79648 16.8741 5.625 16.875Z" fill="black"/>
<path d="M14.375 6.25C14.8317 6.24943 15.273 6.41559 15.6159 6.71729C15.9588 7.01898 16.1798 7.43546 16.2374 7.88854C16.295 8.34162 16.1852 8.80015 15.9287 9.17804C15.6722 9.55593 15.2866 9.82721 14.8442 9.94094C14.7647 9.9614 14.69 9.99731 14.6244 10.0466C14.5587 10.096 14.5035 10.1577 14.4617 10.2284C14.42 10.2991 14.3925 10.3773 14.381 10.4586C14.3695 10.5399 14.3741 10.6227 14.3945 10.7022C14.415 10.7817 14.4509 10.8564 14.5002 10.922C14.5496 10.9877 14.6113 11.0429 14.682 11.0847C14.7527 11.1264 14.8309 11.1539 14.9122 11.1654C14.9935 11.1769 15.0763 11.1723 15.1558 11.1519C15.8932 10.9626 16.5361 10.5106 16.9639 9.88085C17.3917 9.25107 17.5748 8.4868 17.479 7.73154C17.3831 6.97628 17.0148 6.28199 16.4433 5.77903C15.8718 5.27608 15.1363 4.99906 14.375 5C13.8779 4.99944 13.4013 4.80172 13.0498 4.45021C12.6983 4.0987 12.5006 3.62211 12.5 3.125V1.875C12.5 1.70924 12.4342 1.55027 12.3169 1.43306C12.1997 1.31585 12.0408 1.25 11.875 1.25C11.7092 1.25 11.5503 1.31585 11.4331 1.43306C11.3158 1.55027 11.25 1.70924 11.25 1.875V3.125C11.2509 3.95352 11.5805 4.74783 12.1663 5.33368C12.7522 5.91953 13.5465 6.24907 14.375 6.25Z" fill="black"/>
<path d="M24.375 4.375H27.1875C27.4831 4.37591 27.7725 4.46021 28.0224 4.61821C28.2722 4.77622 28.4724 5.00151 28.6 5.26821C28.6349 5.34293 28.6842 5.41001 28.7451 5.46559C28.806 5.52118 28.8772 5.56416 28.9548 5.59207C29.0324 5.61998 29.1147 5.63227 29.1971 5.62822C29.2794 5.62417 29.3602 5.60387 29.4347 5.56848C29.5091 5.53309 29.5759 5.48332 29.631 5.42203C29.6862 5.36074 29.7286 5.28914 29.756 5.21137C29.7833 5.13359 29.795 5.05117 29.7904 4.96885C29.7858 4.88653 29.7649 4.80594 29.729 4.73172C29.4994 4.25195 29.1391 3.84667 28.6896 3.56245C28.24 3.27824 27.7194 3.12661 27.1875 3.125H24.375C24.0436 3.12461 23.7259 2.99279 23.4916 2.75845C23.2572 2.52412 23.1254 2.2064 23.125 1.875C23.125 1.70924 23.0592 1.55027 22.9419 1.43306C22.8247 1.31585 22.6658 1.25 22.5 1.25C22.3342 1.25 22.1753 1.31585 22.0581 1.43306C21.9408 1.55027 21.875 1.70924 21.875 1.875C21.8757 2.53781 22.1394 3.17327 22.6081 3.64195C23.0767 4.11063 23.7122 4.37426 24.375 4.375Z" fill="black"/>
<path d="M8.75 19.375V20.625C8.75 20.7908 8.81585 20.9497 8.93306 21.0669C9.05027 21.1842 9.20924 21.25 9.375 21.25C9.54076 21.25 9.69973 21.1842 9.81694 21.0669C9.93415 20.9497 10 20.7908 10 20.625V19.375C10 19.2092 9.93415 19.0503 9.81694 18.9331C9.69973 18.8158 9.54076 18.75 9.375 18.75C9.20924 18.75 9.05027 18.8158 8.93306 18.9331C8.81585 19.0503 8.75 19.2092 8.75 19.375Z" fill="black"/>
<path d="M26.875 23.75H28.125C28.2908 23.75 28.4497 23.6842 28.5669 23.5669C28.6842 23.4497 28.75 23.2908 28.75 23.125C28.75 22.9592 28.6842 22.8003 28.5669 22.6831C28.4497 22.5658 28.2908 22.5 28.125 22.5H26.875C26.7092 22.5 26.5503 22.5658 26.4331 22.6831C26.3158 22.8003 26.25 22.9592 26.25 23.125C26.25 23.2908 26.3158 23.4497 26.4331 23.5669C26.5503 23.6842 26.7092 23.75 26.875 23.75Z" fill="black"/>
<path d="M30.625 23.75H33.125C33.2908 23.75 33.4497 23.6842 33.5669 23.5669C33.6842 23.4497 33.75 23.2908 33.75 23.125C33.75 22.9592 33.6842 22.8003 33.5669 22.6831C33.4497 22.5658 33.2908 22.5 33.125 22.5H30.625C30.4592 22.5 30.3003 22.5658 30.1831 22.6831C30.0658 22.8003 30 22.9592 30 23.125C30 23.2908 30.0658 23.4497 30.1831 23.5669C30.3003 23.6842 30.4592 23.75 30.625 23.75Z" fill="black"/>
<path d="M6.875 25H5.625C5.45924 25 5.30027 25.0658 5.18306 25.1831C5.06585 25.3003 5 25.4592 5 25.625C5 25.7908 5.06585 25.9497 5.18306 26.0669C5.30027 26.1842 5.45924 26.25 5.625 26.25H6.875C7.04076 26.25 7.19973 26.1842 7.31694 26.0669C7.43415 25.9497 7.5 25.7908 7.5 25.625C7.5 25.4592 7.43415 25.3003 7.31694 25.1831C7.19973 25.0658 7.04076 25 6.875 25Z" fill="black"/>
<path d="M13.125 25H9.375C9.20924 25 9.05027 25.0658 8.93306 25.1831C8.81585 25.3003 8.75 25.4592 8.75 25.625C8.75 25.7908 8.81585 25.9497 8.93306 26.0669C9.05027 26.1842 9.20924 26.25 9.375 26.25H13.125C13.2908 26.25 13.4497 26.1842 13.5669 26.0669C13.6842 25.9497 13.75 25.7908 13.75 25.625C13.75 25.4592 13.6842 25.3003 13.5669 25.1831C13.4497 25.0658 13.2908 25 13.125 25Z" fill="black"/>
</svg>
