<svg width="40" height="40" viewBox="0 0 40 40" fill="none" xmlns="http://www.w3.org/2000/svg">
<path d="M39.0318 18.8969C38.812 18.5779 38.5789 18.3079 38.3537 18.0829C38.6707 17.8983 39.0339 17.6536 39.4465 17.3307C39.7486 17.0942 39.8344 16.673 39.6482 16.337C38.0705 13.4873 36.2208 12.0176 34.1508 11.9684C33.2014 11.9462 32.252 12.2272 31.3258 12.8037C30.9571 10.8063 29.2036 9.28837 27.1012 9.28837C25.6492 9.28837 24.3641 10.0132 23.5859 11.1194C22.956 10.224 21.9941 9.57951 20.8802 9.36589C21.0883 6.74564 22.4476 4.33414 24.5444 2.78903C24.2917 3.78147 24.3143 4.84317 24.6412 5.86155C25.2677 7.81407 27.0817 9.06132 29.0302 9.06102C29.4953 9.06102 29.9686 8.98991 30.4343 8.84037C32.4512 8.1934 33.5654 6.02604 32.9185 4.00943C32.6551 3.1879 32.0875 2.51834 31.3203 2.12405C30.5534 1.72977 29.6784 1.65744 28.8572 1.92111C28.1605 2.1445 27.5922 2.62607 27.2577 3.27701C26.923 3.92765 26.8619 4.66983 27.0856 5.36655C27.4048 6.36204 28.3295 6.99772 29.3229 6.99741C29.5597 6.99741 29.8011 6.9614 30.0385 6.88511C30.4493 6.75327 30.6754 6.31351 30.5436 5.90244C30.4117 5.49167 29.9723 5.26554 29.5612 5.39737C29.3613 5.46146 29.1486 5.44376 28.9622 5.34794C28.7754 5.25211 28.6375 5.08915 28.5731 4.88926C28.4772 4.58988 28.5035 4.27097 28.6472 3.99143C28.791 3.71189 29.0351 3.50498 29.3345 3.40885C29.7584 3.27274 30.2097 3.30997 30.6058 3.51352C31.0017 3.71707 31.2946 4.06284 31.4307 4.48673C31.8146 5.68302 31.1536 6.96873 29.9573 7.35264C28.3588 7.86534 26.6419 6.98246 26.1289 5.38425C25.6693 3.95175 26.0447 2.39932 27.1085 1.33334C27.1082 1.33304 27.1079 1.33273 27.1076 1.33243C27.335 1.10385 27.4061 0.748929 27.2584 0.442226C27.071 0.0534318 26.6041 -0.109532 26.2153 0.0775407L25.2833 0.52676C24.0195 1.13589 22.8983 1.98489 21.9742 3.02219L21.5207 2.89859C19.119 2.2446 16.5506 2.80887 14.6475 4.37015C14.48 3.33927 14.0406 2.05173 12.9395 1.12979C11.4325 -0.132421 9.15559 -0.338109 6.1728 0.518826C5.80384 0.624722 5.56641 0.982999 5.6128 1.36416C5.67658 1.88418 5.7602 2.31387 5.85389 2.66879C5.85328 2.66879 5.85267 2.66879 5.85206 2.66879C5.53406 2.66879 5.17914 2.69473 4.79889 2.76462C3.48541 3.00601 1.61743 3.83548 0.176992 6.41819C-0.00947042 6.75297 0.074148 7.1735 0.374442 7.41123C1.47643 8.28373 2.52868 8.73234 3.42865 8.94749C3.27087 9.11686 3.11645 9.30424 2.96905 9.51115C1.65679 11.3544 1.44256 13.8962 2.33245 17.0664C2.406 17.3289 2.61108 17.5339 2.87353 17.6075C3.72009 17.8452 4.52149 18.0033 5.2771 18.0836C5.57648 20.0187 7.17194 21.5302 9.14522 21.7033C8.88704 22.2547 8.74208 22.8696 8.74208 23.5175C8.74208 25.763 10.4736 27.6102 12.6712 27.7976C12.4127 28.3497 12.2675 28.9646 12.2675 29.6131C12.2675 31.8543 13.9929 33.6994 16.1847 33.8923C15.9278 34.4428 15.7831 35.0562 15.7831 35.7032C15.7831 38.0726 17.7109 40.0001 20.08 40.0001C22.4494 40.0001 24.3769 38.0726 24.3769 35.7032C24.3769 35.0562 24.2325 34.4428 23.9753 33.8923C26.1674 33.6991 27.8925 31.8543 27.8925 29.6131C27.8925 29.5441 27.8907 29.4758 27.8873 29.4074C28.4742 29.8811 29.145 30.3309 29.8975 30.7536C30.0165 30.8201 30.1484 30.8537 30.2802 30.8537C30.4121 30.8537 30.5442 30.8201 30.6629 30.7536C33.5337 29.141 35.1795 27.1922 35.5552 24.961C35.5973 24.7105 35.6205 24.4688 35.6287 24.2374C36.4173 24.7218 37.4784 25.1484 38.8746 25.3107C39.2567 25.3556 39.6119 25.1166 39.7163 24.7483C40.5241 21.9034 39.7901 19.9961 39.0318 18.8969ZM17.1753 15.1413C17.1982 15.0156 17.215 14.8939 17.2293 14.7739C18.4116 15.0754 19.289 16.149 19.289 17.4241C19.289 18.9316 18.0622 20.1584 16.5546 20.1584C15.7321 20.1584 14.9668 19.7913 14.4528 19.174C16.312 17.84 16.966 16.2818 17.1753 15.1413ZM23.5859 14.6894C25.0934 14.6894 26.3202 15.9162 26.3202 17.4238C26.3202 18.9316 25.0934 20.1581 23.5859 20.1581C22.078 20.1581 20.8515 18.9316 20.8515 17.4238C20.8515 15.9162 22.078 14.6894 23.5859 14.6894ZM20.0702 20.7831C21.5778 20.7831 22.8046 22.01 22.8046 23.5175C22.8046 25.0254 21.5778 26.2519 20.0702 26.2519C18.5624 26.2519 17.3358 25.0254 17.3358 23.5175C17.3358 22.01 18.5624 20.7831 20.0702 20.7831ZM27.1015 26.2519C25.5936 26.2519 24.3671 25.0254 24.3671 23.5175C24.3671 22.01 25.5936 20.7831 27.1015 20.7831C28.6091 20.7831 29.8359 22.01 29.8359 23.5175C29.8359 25.0254 28.6091 26.2519 27.1015 26.2519ZM27.8827 17.4238C27.8827 15.9162 29.1093 14.6894 30.6171 14.6894C32.1247 14.6894 33.3515 15.9162 33.3515 17.4238C33.3515 18.9316 32.1247 20.1581 30.6171 20.1581C29.1093 20.1581 27.8827 18.9316 27.8827 17.4238ZM27.1015 10.8509C28.48 10.8509 29.6226 11.8763 29.8087 13.2044C28.6942 13.4177 27.7314 14.0626 27.1015 14.9579C26.4713 14.0626 25.5088 13.4177 24.3943 13.2044C24.5801 11.8763 25.723 10.8509 27.1015 10.8509ZM22.7775 13.2044C21.6629 13.4174 20.7001 14.0622 20.0702 14.9579C19.8377 14.6277 19.5606 14.3314 19.2469 14.0784C19.3259 13.9918 19.3869 13.8865 19.4211 13.7671C19.7281 12.699 19.8978 11.7222 19.9323 10.8381C19.9772 10.846 20.0232 10.8509 20.0702 10.8509C21.4484 10.8509 22.5913 11.8763 22.7775 13.2044ZM20.9562 4.3671C20.9415 4.38999 20.9263 4.41227 20.9116 4.43515C20.2069 5.55698 19.7242 6.79295 19.4785 8.08109C19.3045 7.68559 19.0821 7.32487 18.8102 7.00047C17.9911 6.02207 16.8833 5.56614 15.9232 5.35892C17.3618 4.31491 19.2069 3.93985 20.9562 4.3671ZM6.15265 8.9719C6.5622 8.84892 6.79688 8.41954 6.67878 8.00846C6.56098 7.59739 6.13434 7.35752 5.72205 7.47013C5.52979 7.52262 3.91388 7.90562 1.90246 6.58939C4.00665 3.45737 6.76881 4.32987 6.88721 4.36924C7.24519 4.49405 7.6407 4.34391 7.82594 4.0134C8.0005 3.70181 7.94038 3.31424 7.68708 3.06979C7.65229 3.02341 7.43806 2.71121 7.26868 1.84573C9.37959 1.34311 10.9455 1.50271 11.93 2.32242C13.0976 3.2941 13.1903 5.00675 13.1806 5.65464L12.3715 6.46366L8.49031 6.2186C8.06092 6.19114 7.68861 6.51829 7.66145 6.94889C7.63429 7.37949 7.96144 7.75059 8.39204 7.77775L10.8991 7.93614L8.48909 10.3461C8.18391 10.651 8.18391 11.1457 8.48909 11.4509C8.64167 11.6034 8.84157 11.6797 9.04146 11.6797C9.24135 11.6797 9.44124 11.6034 9.59383 11.4509L12.2428 8.80223L12.3981 11.2641C12.4243 11.6779 12.768 11.9962 13.1772 11.9962C13.1937 11.9962 13.2105 11.9956 13.2273 11.9947C13.6579 11.9675 13.9847 11.5961 13.9575 11.1658L13.7155 7.32945L14.2856 6.75938C14.9353 6.74961 16.6468 6.84299 17.6178 8.00999C18.4372 8.99479 18.5968 10.5607 18.0945 12.6713C17.2293 12.5022 16.9171 12.288 16.8705 12.2529C16.626 11.9993 16.2375 11.937 15.9259 12.1116C15.5954 12.2968 15.4444 12.6899 15.5689 13.0478C15.6101 13.1708 16.4826 15.933 13.3509 18.0375C12.0343 16.0261 12.4173 14.4101 12.4698 14.2179C12.5827 13.8056 12.3429 13.379 11.9318 13.2612C11.8598 13.2404 11.7874 13.2306 11.716 13.2306C11.3797 13.2306 11.0697 13.4495 10.968 13.7873C10.8441 14.1993 9.60847 17.6908 3.72345 16.2168C2.24914 10.3315 5.74067 9.09581 6.15265 8.9719ZM6.88264 18.1327C8.25715 18.0601 9.44307 17.6725 10.4288 16.9709C10.6357 16.8235 10.8231 16.6691 10.9924 16.5113C11.1518 17.1775 11.4395 17.9267 11.9315 18.718C11.4575 19.6003 10.539 20.1581 9.52333 20.1581C8.26081 20.1581 7.19575 19.2979 6.88264 18.1327ZM10.3046 23.5175C10.3046 22.01 11.5311 20.7831 13.039 20.7831C14.5465 20.7831 15.7733 22.01 15.7733 23.5175C15.7733 25.0254 14.5465 26.2519 13.039 26.2519C11.5311 26.2519 10.3046 25.0254 10.3046 23.5175ZM13.83 29.6131C13.83 28.1052 15.0568 26.8787 16.5644 26.8787C18.0722 26.8787 19.2987 28.1052 19.2987 29.6131C19.2987 31.1207 18.0722 32.3475 16.5644 32.3475C15.0568 32.3475 13.83 31.1207 13.83 29.6131ZM20.08 38.4376C18.5724 38.4376 17.3456 37.2108 17.3456 35.7032C17.3456 34.1953 18.5724 32.9688 20.08 32.9688C21.5879 32.9688 22.8144 34.1953 22.8144 35.7032C22.8144 37.2108 21.5879 38.4376 20.08 38.4376ZM23.5956 32.3475C22.0881 32.3475 20.8612 31.1207 20.8612 29.6131C20.8612 28.1052 22.0881 26.8787 23.5956 26.8787C25.1035 26.8787 26.33 28.1052 26.33 29.6131C26.33 31.1207 25.1035 32.3475 23.5956 32.3475ZM38.3753 23.6491C36.0221 23.1577 35.1505 21.7444 35.0517 21.5714C34.8399 21.1997 34.3684 21.0679 33.9945 21.2751C33.6204 21.4823 33.4824 21.952 33.6851 22.3286C33.8889 22.7076 35.4844 26.0499 30.2802 29.1691C29.484 28.6918 28.8077 28.1858 28.2566 27.6554C30.0663 27.1494 31.3984 25.4868 31.3984 23.5175C31.3984 22.8693 31.2531 22.2547 30.9949 21.7033C33.1879 21.511 34.914 19.6656 34.914 17.4238C34.914 15.8796 34.0946 14.5234 32.8684 13.7659C33.289 13.5999 33.7058 13.5206 34.1138 13.5303C35.4585 13.5624 36.742 14.5606 37.9353 16.5003C37.2038 16.9925 36.8317 17.0618 36.7738 17.0701C36.4225 17.0637 36.103 17.2941 36.0059 17.638C35.9034 18.0027 36.0746 18.3875 36.4158 18.5523C36.5318 18.6106 39.102 19.9467 38.3753 23.6491Z" fill="black"/>
</svg>
