<svg width="40" height="40" viewBox="0 0 40 40" fill="none" xmlns="http://www.w3.org/2000/svg">
<path d="M39.4141 13.7374L19.7711 4.43273C18.5722 3.86851 17.2427 3.63656 15.9219 3.74203C4.47633 4.65594 0.585938 12.7027 0.585938 16.2425H39.4141V13.7374Z" fill="#FFF2B9"/>
<path d="M38.8947 24.4376C39.1924 24.3749 39.4141 24.1275 39.4141 23.8232V13.7373H3.09102C1.7075 13.7373 0.585938 14.8589 0.585938 16.2424V33.7777C0.585938 35.1611 1.7075 36.2828 3.09102 36.2828H15.8345C16.0977 36.2828 16.3323 36.1176 16.4197 35.8694C16.8484 34.6511 18.0089 33.7778 19.3737 33.7778C20.7387 33.7778 21.8991 34.6511 22.3278 35.8694C22.4152 36.1177 22.6498 36.2828 22.913 36.2828H38.7877C39.1336 36.2828 39.414 36.0024 39.414 35.6565V29.9544C39.414 29.6501 39.1923 29.4028 38.8946 29.34C37.7603 29.1008 36.9089 28.0943 36.9089 26.8889C36.909 25.6833 37.7604 24.6768 38.8947 24.4376Z" fill="#FA962A"/>
<path d="M32.5248 21.2527C33.2165 21.2527 33.7771 20.692 33.7771 20.0004C33.7771 19.3087 33.2165 18.748 32.5248 18.748C31.8332 18.748 31.2725 19.3087 31.2725 20.0004C31.2725 20.692 31.8332 21.2527 32.5248 21.2527Z" fill="#FA962A"/>
<path d="M16.2421 30.0203C16.9337 30.0203 17.4944 29.4596 17.4944 28.768C17.4944 28.0763 16.9337 27.5156 16.2421 27.5156C15.5504 27.5156 14.9897 28.0763 14.9897 28.768C14.9897 29.4596 15.5504 30.0203 16.2421 30.0203Z" fill="#FA962A"/>
<path d="M6.84863 32.5254C7.88632 32.5254 8.72754 31.6842 8.72754 30.6465C8.72754 29.6088 7.88632 28.7676 6.84863 28.7676C5.81094 28.7676 4.96973 29.6088 4.96973 30.6465C4.96973 31.6842 5.81094 32.5254 6.84863 32.5254Z" fill="#FA962A"/>
<path d="M6.84852 28.7681C6.08625 28.7681 5.4332 29.224 5.13867 29.8763C5.3743 29.7699 5.63383 29.7074 5.90914 29.7074C6.9468 29.7074 7.78789 30.5486 7.78789 31.5862C7.78789 31.8615 7.72539 32.121 7.61898 32.3567C8.27133 32.062 8.72727 31.4091 8.72727 30.6468C8.72734 29.6092 7.88617 28.7681 6.84852 28.7681Z" fill="#FA962A"/>
<path d="M23.1313 20.6265C24.169 20.6265 25.0103 19.7853 25.0103 18.7476C25.0103 17.7099 24.169 16.8687 23.1313 16.8687C22.0937 16.8687 21.2524 17.7099 21.2524 18.7476C21.2524 19.7853 22.0937 20.6265 23.1313 20.6265Z" fill="#FA962A"/>
<path d="M23.1317 16.8687C22.3695 16.8687 21.7164 17.3246 21.4219 17.9769C21.6575 17.8705 21.917 17.808 22.1923 17.808C23.23 17.808 24.0711 18.6492 24.0711 19.6868C24.0711 19.9621 24.0086 20.2216 23.9022 20.4572C24.5545 20.1626 25.0105 19.5097 25.0105 18.7474C25.0105 17.7098 24.1693 16.8687 23.1317 16.8687Z" fill="#FA962A"/>
<path d="M10.6059 24.3836C12.3352 24.3836 13.7371 22.9817 13.7371 21.2524C13.7371 19.523 12.3352 18.1211 10.6059 18.1211C8.87652 18.1211 7.47461 19.523 7.47461 21.2524C7.47461 22.9817 8.87652 24.3836 10.6059 24.3836Z" fill="#FA962A"/>
<path d="M10.6063 18.1211C9.41834 18.1211 8.39732 18.7905 7.8667 19.7653C8.31092 19.5235 8.8124 19.3736 9.35381 19.3736C11.0832 19.3736 12.4851 20.7755 12.4851 22.5049C12.4851 23.0462 12.3353 23.5478 12.0934 23.992C13.0683 23.4614 13.7376 22.4404 13.7376 21.2524C13.7376 19.523 12.3357 18.1211 10.6063 18.1211Z" fill="#FA962A"/>
<path d="M27.515 31.8987C29.2444 31.8987 30.6463 30.4968 30.6463 28.7675C30.6463 27.0381 29.2444 25.6362 27.515 25.6362C25.7857 25.6362 24.3838 27.0381 24.3838 28.7675C24.3838 30.4968 25.7857 31.8987 27.515 31.8987Z" fill="#FA962A"/>
<path d="M27.515 25.6367C26.327 25.6367 25.306 26.3061 24.7754 27.2809C25.2196 27.0391 25.7211 26.8893 26.2625 26.8893C27.9919 26.8893 29.3938 28.2913 29.3938 30.0206C29.3938 30.562 29.244 31.0635 29.0021 31.5077C29.977 30.9771 30.6463 29.9561 30.6463 28.7681C30.6462 27.0387 29.2443 25.6367 27.515 25.6367Z" fill="#FA962A"/>
<path d="M0.585938 16.8687C1.96945 16.8687 3.09102 17.9902 3.09102 19.3737V30.6463C3.09102 32.7215 4.77336 34.4039 6.84859 34.4039H15.3031C15.822 34.4039 16.2425 34.8244 16.2425 35.3433C16.2425 35.8621 15.822 36.2826 15.3031 36.2826H3.09102C1.7075 36.2826 0.585938 35.1611 0.585938 33.7776V16.8687Z" fill="#FA962A"/>
<path d="M30.4672 27.5675C30.1501 27.6319 29.9452 27.9412 30.0096 28.2584C30.0435 28.4248 30.0606 28.5963 30.0606 28.768C30.0606 30.1715 28.9187 31.3134 27.5152 31.3134C26.1117 31.3134 24.9698 30.1715 24.9698 28.768C24.9698 27.3645 26.1117 26.2226 27.5152 26.2226C27.8693 26.2226 28.2118 26.2937 28.5331 26.4341C28.8296 26.5636 29.175 26.4283 29.3046 26.1317C29.4341 25.8352 29.2987 25.4898 29.0021 25.3602C28.532 25.1549 28.0318 25.0508 27.5151 25.0508C25.4654 25.0508 23.7979 26.7184 23.7979 28.768C23.7979 30.8177 25.4654 32.4853 27.5151 32.4853C29.5648 32.4853 31.2324 30.8177 31.2324 28.768C31.2324 28.5182 31.2074 28.2683 31.158 28.0252C31.0937 27.708 30.7846 27.5034 30.4672 27.5675Z" fill="black"/>
<path d="M13.5587 20.0518C13.2415 20.1162 13.0366 20.4254 13.101 20.7425C13.1348 20.9091 13.1519 21.0807 13.1519 21.2523C13.1519 22.6559 12.01 23.7977 10.6065 23.7977C9.20299 23.7977 8.06111 22.6559 8.06111 21.2523C8.06111 19.8488 9.20299 18.707 10.6065 18.707C10.9606 18.707 11.3031 18.7781 11.6243 18.9185C11.9209 19.048 12.2663 18.9127 12.3958 18.6161C12.5253 18.3195 12.3899 17.9741 12.0934 17.8446C11.6232 17.6393 11.123 17.5352 10.6064 17.5352C8.55674 17.5352 6.88916 19.2027 6.88916 21.2524C6.88916 23.3021 8.55674 24.9697 10.6064 24.9697C12.6561 24.9697 14.3237 23.3021 14.3237 21.2524C14.3237 21.0027 14.2987 20.7528 14.2494 20.5097C14.1851 20.1924 13.8757 19.9875 13.5587 20.0518Z" fill="black"/>
<path d="M25.5959 18.7474C25.5959 18.4238 25.3335 18.1615 25.0099 18.1615C24.6863 18.1615 24.424 18.4238 24.424 18.7474C24.424 19.4603 23.8441 20.0402 23.1312 20.0402C22.4183 20.0402 21.8384 19.4603 21.8384 18.7474C21.8384 18.0345 22.4183 17.4546 23.1312 17.4546C23.4548 17.4546 23.7171 17.1922 23.7171 16.8687C23.7171 16.5451 23.4548 16.2827 23.1312 16.2827C21.7721 16.2827 20.6665 17.3883 20.6665 18.7474C20.6665 20.1065 21.7721 21.2121 23.1312 21.2121C24.4903 21.2121 25.5959 20.1065 25.5959 18.7474Z" fill="black"/>
<path d="M32.525 18.1616C31.5112 18.1616 30.6865 18.9864 30.6865 20.0001C30.6865 21.0137 31.5113 21.8385 32.525 21.8385C33.5386 21.8385 34.3634 21.0137 34.3634 20.0001C34.3634 18.9864 33.5386 18.1616 32.525 18.1616ZM32.525 20.6667C32.1574 20.6667 31.8584 20.3676 31.8584 20.0001C31.8584 19.6326 32.1575 19.3336 32.525 19.3336C32.8925 19.3336 33.1915 19.6326 33.1915 20.0001C33.1915 20.3676 32.8925 20.6667 32.525 20.6667Z" fill="black"/>
<path d="M6.84848 28.1821C5.48941 28.1821 4.38379 29.2878 4.38379 30.6469C4.38379 32.006 5.48941 33.1116 6.84848 33.1116C8.20754 33.1116 9.31316 32.006 9.31316 30.6469C9.31316 29.2878 8.20754 28.1821 6.84848 28.1821ZM6.84848 31.9397C6.13559 31.9397 5.55566 31.3598 5.55566 30.6469C5.55566 29.934 6.13559 29.354 6.84848 29.354C7.56137 29.354 8.14129 29.934 8.14129 30.6469C8.14129 31.3598 7.56137 31.9397 6.84848 31.9397Z" fill="black"/>
<path d="M16.2422 26.9287C15.2285 26.9287 14.4038 27.7535 14.4038 28.7671C14.4038 29.7809 15.2286 30.6057 16.2422 30.6057C17.2559 30.6057 18.0807 29.7809 18.0807 28.7671C18.0808 27.7535 17.256 26.9287 16.2422 26.9287ZM16.2422 29.4338C15.8747 29.4338 15.5757 29.1347 15.5757 28.7671C15.5757 28.3996 15.8747 28.1006 16.2422 28.1006C16.6097 28.1006 16.9088 28.3996 16.9088 28.7671C16.9089 29.1347 16.6098 29.4338 16.2422 29.4338Z" fill="black"/>
<path d="M39.0155 25.0116C39.5952 24.8894 40 24.4009 40 23.8237V13.738C40 13.5041 39.8627 13.303 39.6647 13.2089L39.6649 13.2084L20.0206 3.90304C18.7422 3.3014 17.3088 3.04375 15.8752 3.15843C9.40602 3.67492 5.59328 6.40687 3.53398 8.60765C0.925547 11.3953 0 14.463 0 16.243V33.7783C0 35.4827 1.38664 36.8692 3.09094 36.8692H15.8345C16.3456 36.8692 16.8029 36.5458 16.9723 36.0644C17.3301 35.0474 18.2952 34.3642 19.3737 34.3642C20.4522 34.3642 21.4172 35.0475 21.7751 36.0644C21.9445 36.5458 22.4017 36.8692 22.9129 36.8692H38.7877C39.4562 36.8692 39.9999 36.3255 39.9999 35.657V29.9549C39.9999 29.3778 39.5951 28.8894 39.0155 28.7671C38.1344 28.5814 37.4948 27.7916 37.4948 26.8893C37.4948 25.9869 38.1345 25.1973 39.0155 25.0116ZM38.7738 29.9138C38.8005 29.9195 38.8281 29.9364 38.8281 29.9549V35.657C38.8281 35.6793 38.8101 35.6973 38.7878 35.6973H22.913C22.898 35.6973 22.8852 35.6887 22.8805 35.6754C22.358 34.1902 20.9487 33.1923 19.3737 33.1923C17.7987 33.1923 16.3895 34.1902 15.867 35.6754C15.8623 35.6887 15.8495 35.6973 15.8345 35.6973H3.09094C2.03281 35.6973 1.17188 34.8365 1.17188 33.7783V16.243C1.17188 15.1848 2.03281 14.3239 3.09094 14.3239H30.6463C30.9699 14.3239 31.2323 14.0616 31.2323 13.738C31.2323 13.4144 30.9699 13.152 30.6463 13.152H3.09094C2.62766 13.152 2.18828 13.2552 1.79344 13.4386C2.40977 11.9241 3.40219 10.4637 4.38961 9.40843C6.3075 7.35875 9.87313 4.81336 15.9685 4.32664C17.1988 4.22836 18.4276 4.44859 19.5202 4.96281L36.8084 13.152H33.1512C32.8276 13.152 32.5652 13.4144 32.5652 13.738C32.5652 14.0616 32.8276 14.3239 33.1512 14.3239H38.8281V23.8238C38.8281 23.8424 38.8005 23.8593 38.7738 23.8649C37.3538 24.1644 36.3231 25.4363 36.3231 26.8894C36.3231 28.3424 37.3537 29.6145 38.7738 29.9138Z" fill="black"/>
</svg>
