<svg width="40" height="40" viewBox="0 0 40 40" fill="none" xmlns="http://www.w3.org/2000/svg">
<g clip-path="url(#clip0_300_2213)">
<path d="M14.662 35.4888C22.2866 35.4888 28.4676 30.0782 28.4676 23.4038C28.4676 16.7295 22.2866 11.3188 14.662 11.3188C7.0374 11.3188 0.856445 16.7295 0.856445 23.4038C0.856445 30.0782 7.0374 35.4888 14.662 35.4888Z" fill="#FA962A"/>
<path d="M3.71759 24.8022C3.71759 24.3374 3.21164 22.7787 3.4279 21.5247C3.59243 20.5704 4.75315 20.161 5.05394 19.6086C7.27296 15.5334 12.0223 12.7172 17.5231 12.7172C19.3793 12.7172 21.1494 13.0386 22.766 13.6201C20.4901 12.173 17.6902 11.3188 14.662 11.3188C7.03741 11.3188 0.856445 16.7294 0.856445 23.4038C0.856445 28.4534 4.39479 32.7788 9.41902 34.5859C5.96443 32.3894 3.71759 28.8257 3.71759 24.8022Z" fill="#FA962A"/>
<path d="M20.8426 37.9987C27.6738 37.9987 33.2116 32.7885 33.2116 26.3614C33.2116 19.9343 27.6738 14.7241 20.8426 14.7241C14.0114 14.7241 8.47363 19.9343 8.47363 26.3614C8.47363 32.7885 14.0114 37.9987 20.8426 37.9987Z" fill="#FA962A"/>
<path d="M11.0366 27.708C11.0366 21.2809 16.5744 16.0706 23.4056 16.0706C25.0686 16.0706 26.6545 16.3802 28.1029 16.9402C26.0638 15.5466 23.5552 14.7241 20.8421 14.7241C14.0109 14.7241 8.47314 19.9343 8.47314 26.3614C8.47314 31.2239 11.6433 35.3891 16.1448 37.1294C13.0497 35.0142 11.0366 31.5825 11.0366 27.708Z" fill="#FA962A"/>
<path d="M25.5952 15.6147C28.3945 17.5202 30.5228 19.5322 30.7477 23.5235C30.853 25.3927 30.1421 24.3922 30.1249 25.5709C30.1131 26.3742 30.6356 26.6367 30.4708 27.3942C29.3174 32.6971 24.3304 36.6862 18.3531 36.6862C16.669 36.6862 15.0638 36.369 13.6006 35.7956C15.6364 37.1814 18.1379 37.9988 20.8427 37.9988C27.674 37.9988 33.2117 32.7886 33.2117 26.3615C33.2117 21.5188 30.0674 17.3675 25.5952 15.6147Z" fill="#FA962A"/>
<path d="M6.56787 4.95022C6.217 5.15812 6.11489 5.59 6.33544 5.93282C6.94772 6.88463 8.34649 8.6799 10.4333 9.17272C12.6555 9.69749 13.9081 8.49052 14.3646 7.91137C14.6168 7.59136 14.7162 7.17221 14.6339 6.77268C14.4851 6.05063 13.9058 4.41099 11.6837 3.88622C9.59675 3.39348 7.54179 4.3731 6.56787 4.95022Z" fill="#3BBC56"/>
<path d="M12.1783 7.82104C10.0914 7.32822 8.69265 5.53287 8.08037 4.58114C8.01615 4.48129 7.98006 4.37387 7.96873 4.2666C7.39661 4.48926 6.91348 4.74497 6.56738 4.95013C6.21651 5.15802 6.1144 5.58991 6.33495 5.93272C6.94723 6.88454 8.346 8.6798 10.4328 9.17262C12.655 9.6974 13.9076 8.49043 14.3641 7.91127C14.4068 7.85705 14.4434 7.79924 14.4772 7.7401C13.8732 7.95581 13.1116 8.04143 12.1783 7.82104Z" fill="#3BBC56"/>
<path d="M13.2831 6.13495C14.3123 7.46841 17.4128 10.1465 23.1521 4.50453C23.4858 4.1764 23.4864 3.64467 23.1494 3.35701C21.4662 1.92089 16.5611 -1.42175 13.1996 4.91703C12.9875 5.31681 13.0201 5.79432 13.2831 6.13495Z" fill="#3BBC56"/>
<path d="M14.8726 2.60891C15.6883 4.3384 17.6647 5.2631 19.5556 4.70473C20.7098 4.36387 21.5899 3.54127 22.0431 2.52141C20.2649 1.34116 17.3873 0.184654 14.8726 2.60891Z" fill="#3BBC56"/>
<path d="M28.7522 30.4467C25.467 30.9922 22.328 30.2235 20.0447 28.3164C19.1526 27.5712 17.8835 28.279 17.9429 29.4759C17.966 29.9399 18.016 30.4083 18.0941 30.8789C19.1221 37.0708 24.4392 40.1616 30.2062 39.2041C35.9732 38.2466 40.0062 33.6034 38.9781 27.4116C38.9 26.941 38.796 26.4816 38.6678 26.0349C38.3374 24.883 36.9076 24.6234 36.3042 25.6168C34.7596 28.1596 32.0375 29.9013 28.7522 30.4467Z" fill="#FA962A"/>
<path d="M38.6677 26.035C38.5141 25.4992 38.1224 25.1568 37.6869 25.0435C38.7593 31.216 35.1896 35.8976 29.8056 36.7915C24.4048 37.6882 19.5279 34.3924 18.5508 28.2206C18.1752 28.4687 17.9153 28.9193 17.9429 29.476C17.966 29.9401 18.016 30.4085 18.0941 30.8791C19.1221 37.0709 24.4392 40.1618 30.2062 39.2042C35.9732 38.2467 40.0061 33.6036 38.9781 27.4118C38.9 26.941 38.7959 26.4817 38.6677 26.035Z" fill="#FA962A"/>
<path d="M35.2513 27.0303C33.658 28.8021 31.3865 30.0092 28.7523 30.4465C26.1181 30.8839 23.5785 30.4756 21.498 29.3137C23.2805 32.635 26.2504 34.2604 29.3015 33.7538C32.3525 33.2473 34.6378 30.7494 35.2513 27.0303Z" fill="#FFF2B9"/>
<path d="M25.2547 7.0493C24.8471 7.06414 24.5509 7.39454 24.5807 7.80118C24.6633 8.92988 25.0333 11.1755 26.6304 12.6062C28.3311 14.1297 30.0084 13.6686 30.6862 13.3783C31.0608 13.2178 31.3485 12.8973 31.4672 12.507C31.6818 11.8018 31.9571 10.0847 30.2564 8.5612C28.6593 7.13039 26.386 7.00812 25.2547 7.0493Z" fill="#3BBC56"/>
<path d="M30.6862 10.9679C30.0083 11.2582 28.331 11.7193 26.6304 10.1958C25.6756 9.34047 25.1596 8.19404 24.8811 7.16895C24.6818 7.3027 24.5612 7.53544 24.5807 7.80138C24.6633 8.93007 25.0332 11.1757 26.6304 12.6064C28.331 14.1298 30.0083 13.6688 30.6862 13.3785C31.0608 13.218 31.3484 12.8975 31.4672 12.5072C31.6045 12.0561 31.7657 11.1907 31.4195 10.227C31.2749 10.5727 31.0048 10.8314 30.6862 10.9679Z" fill="#3BBC56"/>
<path d="M5.22815 22.353C5.3225 21.9644 5.16272 21.5921 4.87129 21.5213C4.57985 21.4505 4.26712 21.7082 4.17278 22.0967C4.07843 22.4853 4.23821 22.8577 4.52964 22.9284C4.82107 22.9992 5.13381 22.7415 5.22815 22.353Z" fill="#FA962A"/>
<path d="M29.9353 24.3074C30.1619 24.3074 30.3457 24.072 30.3457 23.7816C30.3457 23.4913 30.1619 23.2559 29.9353 23.2559C29.7086 23.2559 29.5249 23.4913 29.5249 23.7816C29.5249 24.072 29.7086 24.3074 29.9353 24.3074Z" fill="#FA962A"/>
<path d="M29.9103 27.5049C30.0238 27.1866 29.915 26.857 29.6673 26.7686C29.4196 26.6803 29.1267 26.8666 29.0132 27.1849C28.8997 27.5032 29.0084 27.8329 29.2562 27.9212C29.5039 28.0096 29.7968 27.8232 29.9103 27.5049Z" fill="#FA962A"/>
<path d="M4.87902 26.5985C5.0781 26.5985 5.23949 26.3984 5.23949 26.1515C5.23949 25.9047 5.0781 25.7046 4.87902 25.7046C4.67994 25.7046 4.51855 25.9047 4.51855 26.1515C4.51855 26.3984 4.67994 26.5985 4.87902 26.5985Z" fill="#FA962A"/>
<path d="M15.5097 18.8607C12.8607 20.5446 11.2793 23.3486 11.2793 26.3614C11.2793 26.7066 11.5591 26.9864 11.9043 26.9864C12.2495 26.9864 12.5293 26.7066 12.5293 26.3614C12.5293 23.7785 13.8942 21.3689 16.1802 19.9158C16.4716 19.7305 16.5576 19.3443 16.3724 19.0529C16.1874 18.7618 15.8011 18.6756 15.5097 18.8607Z" fill="black"/>
<path d="M39.2685 25.8627C38.7842 24.1745 36.6505 23.8431 35.7699 25.2925C35.246 26.1548 34.569 26.9216 33.772 27.5738C34.2685 22.8173 31.8293 18.4357 27.8125 16.0169C27.9196 15.5068 28.2593 14.9076 28.7986 14.2807C30.08 14.4134 31.6647 14.0052 32.0651 12.6892C32.1395 12.4448 32.2238 12.0816 32.2466 11.6445C32.6452 11.44 33.0407 11.2652 33.426 11.1242C33.7502 11.0056 33.9168 10.6467 33.7982 10.3225C33.6796 9.9983 33.3206 9.83182 32.9965 9.95026C32.7034 10.0574 32.406 10.1819 32.1068 10.3214C31.546 8.2628 29.2003 6.28246 25.232 6.4248C24.4702 6.45277 23.9018 7.08638 23.9575 7.84694C24.1391 10.3275 25.2084 12.8764 27.4879 13.9196C27.1104 14.4286 26.8395 14.9294 26.6835 15.41C26.2499 15.2032 25.8024 15.0184 25.3427 14.8578C22.745 12.3409 19.1072 10.8473 15.2625 10.7058C15.227 10.1541 15.1401 9.26782 14.9279 8.19929L14.9286 8.19819C17.9764 9.48736 21.2324 7.26849 23.5907 4.95025C24.1862 4.36477 24.1711 3.40694 23.5554 2.88154C19.9861 -0.163826 16.0288 -0.475785 13.3197 3.50452C12.6518 2.21934 11.8323 1.10166 10.8759 0.175945C10.628 -0.0641369 10.2322 -0.0577306 9.99216 0.190321C9.75208 0.438372 9.75849 0.834004 10.0065 1.07416C10.6572 1.70402 11.2389 2.43606 11.7462 3.26022C9.49622 2.76474 7.34087 3.76507 6.24889 4.41211C5.59326 4.80087 5.39701 5.62917 5.80959 6.27058C8.27909 10.1092 11.7822 10.5973 13.8407 9.23056C13.9342 9.8344 13.9833 10.3432 14.0089 10.7073C6.3539 11.0092 0.231445 16.5883 0.231445 23.4038C0.231445 29.8101 5.62568 35.1987 12.8102 36.0084C15.4458 37.9655 18.8909 38.9529 22.4845 38.524C27.259 41.3042 34.2084 40.0509 37.6333 35.655C39.8605 32.7964 40.2333 29.2265 39.2685 25.8627ZM25.2041 7.75577C25.2002 7.7035 25.2231 7.67592 25.2774 7.67412C27.8293 7.57982 29.2309 8.48179 29.8394 9.02688C31.2298 10.2724 31.0814 11.628 30.8692 12.3252C30.8043 12.5391 30.6459 12.7158 30.4401 12.804C29.7699 13.0911 28.438 13.3865 27.0475 12.1408C26.4391 11.5958 25.3905 10.3013 25.2041 7.75577ZM20.4994 2.3677C21.4485 2.80529 22.2439 3.40577 22.7439 3.83249C22.8043 3.88382 22.7776 3.99664 22.7143 4.05883C20.585 6.15191 17.5025 8.35773 14.9509 6.81192C14.4023 6.48176 14.0104 6.05386 13.7782 5.75307C13.5821 5.49916 13.7618 5.18447 13.753 5.20806C15.3174 2.25715 17.503 0.986506 20.4994 2.3677ZM10.5768 8.56406C9.78177 8.37632 8.24182 7.74084 6.86086 5.59432C6.83211 5.54963 6.84 5.51479 6.88625 5.48752C8.5962 4.47422 10.8098 3.91062 12.5389 4.87259C12.3384 5.44151 12.442 6.0691 12.7887 6.51692C13.1009 6.92013 13.4711 7.28435 13.8401 7.56584C13.3725 8.13882 12.3502 8.98282 10.5768 8.56406ZM10.3757 31.361C10.2133 31.0625 9.83357 30.9445 9.52786 31.1109C9.26262 31.2554 9.14371 31.5641 9.22879 31.842C9.29949 32.0734 10.0517 33.3468 11.0484 34.4279C5.47044 33.0539 1.48147 28.5975 1.48147 23.4038C1.48147 16.9615 7.53571 11.9438 14.6633 11.9437C17.5107 11.9437 20.2571 12.7474 22.5094 14.1992C13.3497 13.0979 6.11858 21.0077 8.20573 29.2293C8.29065 29.5639 8.63066 29.7665 8.96527 29.6813C9.29989 29.5964 9.50223 29.2564 9.41731 28.9217C7.65283 21.9705 13.3045 15.3491 20.8424 15.3491C28.0846 15.3491 33.8473 21.5726 32.3559 28.541C28.8011 30.5483 23.766 30.6102 20.4453 27.8368C19.6773 27.1952 18.6245 27.2558 17.9309 27.9162C17.0231 28.7804 17.2967 30.1651 17.5724 31.4876C18.0684 33.8859 19.1996 35.8909 20.8852 37.3737C16.2921 37.3901 12.3289 34.9489 10.3757 31.361ZM36.6472 34.8868C33.5759 38.8288 27.195 39.9445 22.9466 37.3456C20.1713 35.6469 18.7294 32.7079 18.5672 29.445C18.5339 28.7732 19.1824 28.4108 19.6441 28.7962C24.6653 32.99 33.3892 31.6195 36.8383 25.9415C37.1643 25.4051 37.8905 25.5922 38.067 26.2074C38.9219 29.1875 38.6167 32.3589 36.6472 34.8868Z" fill="black"/>
<path d="M29.833 33.142C29.7765 32.8015 29.4544 32.5707 29.1141 32.6278C28.7735 32.6844 28.5433 33.0062 28.5999 33.3467L28.7952 34.5235C28.8524 34.8681 29.1781 35.0939 29.5141 35.0377C29.8546 34.9811 30.0849 34.6593 30.0283 34.3188L29.833 33.142Z" fill="black"/>
<path d="M25.7771 32.6347C25.4517 32.5193 25.0946 32.6898 24.9794 33.0152L24.5365 34.266C24.4213 34.5914 24.5917 34.9485 24.9171 35.0638C25.2431 35.1792 25.5998 35.008 25.7148 34.6833L26.1577 33.4325C26.2729 33.1071 26.1025 32.75 25.7771 32.6347Z" fill="black"/>
<path d="M33.1522 31.6581C32.938 31.3873 32.5451 31.3417 32.2743 31.5558C32.0037 31.7699 31.9578 32.1629 32.172 32.4336L32.9954 33.4741C33.1187 33.63 33.3014 33.7113 33.4859 33.7113C34.0018 33.7113 34.3019 33.1108 33.9756 32.6985L33.1522 31.6581Z" fill="black"/>
</g>
<defs>
<clipPath id="clip0_300_2213">
<rect width="40" height="40" fill="white"/>
</clipPath>
</defs>
</svg>
