<svg width="40" height="40" viewBox="0 0 40 40" fill="none" xmlns="http://www.w3.org/2000/svg">
<path d="M31.158 28.0252C31.0937 27.708 30.7846 27.5034 30.4672 27.5675C30.1501 27.6319 29.9452 27.9412 30.0096 28.2584C30.0435 28.4248 30.0606 28.5963 30.0606 28.768C30.0606 30.1715 28.9187 31.3134 27.5152 31.3134C26.1117 31.3134 24.9698 30.1715 24.9698 28.768C24.9698 27.3645 26.1117 26.2226 27.5152 26.2226C27.8693 26.2226 28.2118 26.2937 28.5331 26.4341C28.8296 26.5636 29.175 26.4283 29.3046 26.1317C29.4341 25.8352 29.2987 25.4898 29.0021 25.3602C28.532 25.1549 28.0318 25.0508 27.5151 25.0508C25.4654 25.0508 23.7979 26.7184 23.7979 28.768C23.7979 30.8177 25.4654 32.4853 27.5151 32.4853C29.5648 32.4853 31.2324 30.8177 31.2324 28.768C31.2324 28.5182 31.2074 28.2683 31.158 28.0252Z" fill="black"/>
<path d="M14.2494 20.5097C14.1851 20.1924 13.8757 19.9875 13.5587 20.0518C13.2415 20.1162 13.0366 20.4254 13.101 20.7425C13.1348 20.9091 13.1519 21.0807 13.1519 21.2523C13.1519 22.6559 12.01 23.7977 10.6065 23.7977C9.20299 23.7977 8.06111 22.6559 8.06111 21.2523C8.06111 19.8488 9.20299 18.707 10.6065 18.707C10.9606 18.707 11.3031 18.7781 11.6243 18.9185C11.9209 19.048 12.2663 18.9127 12.3958 18.6161C12.5253 18.3195 12.3899 17.9741 12.0934 17.8446C11.6232 17.6393 11.123 17.5352 10.6064 17.5352C8.55674 17.5352 6.88916 19.2027 6.88916 21.2524C6.88916 23.3021 8.55674 24.9697 10.6064 24.9697C12.6561 24.9697 14.3237 23.3021 14.3237 21.2524C14.3237 21.0027 14.2987 20.7528 14.2494 20.5097Z" fill="black"/>
<path d="M25.0099 18.1615C24.6863 18.1615 24.424 18.4238 24.424 18.7474C24.424 19.4603 23.8441 20.0402 23.1312 20.0402C22.4183 20.0402 21.8384 19.4603 21.8384 18.7474C21.8384 18.0345 22.4183 17.4546 23.1312 17.4546C23.4548 17.4546 23.7171 17.1922 23.7171 16.8687C23.7171 16.5451 23.4548 16.2827 23.1312 16.2827C21.7721 16.2827 20.6665 17.3883 20.6665 18.7474C20.6665 20.1065 21.7721 21.2121 23.1312 21.2121C24.4903 21.2121 25.5959 20.1065 25.5959 18.7474C25.5959 18.4238 25.3335 18.1615 25.0099 18.1615Z" fill="black"/>
<path d="M32.525 18.1616C31.5112 18.1616 30.6865 18.9864 30.6865 20.0001C30.6865 21.0137 31.5113 21.8385 32.525 21.8385C33.5386 21.8385 34.3634 21.0137 34.3634 20.0001C34.3634 18.9864 33.5386 18.1616 32.525 18.1616ZM32.525 20.6667C32.1574 20.6667 31.8584 20.3676 31.8584 20.0001C31.8584 19.6326 32.1575 19.3336 32.525 19.3336C32.8925 19.3336 33.1915 19.6326 33.1915 20.0001C33.1915 20.3676 32.8925 20.6667 32.525 20.6667Z" fill="black"/>
<path d="M6.84848 28.1821C5.48941 28.1821 4.38379 29.2878 4.38379 30.6469C4.38379 32.006 5.48941 33.1116 6.84848 33.1116C8.20754 33.1116 9.31316 32.006 9.31316 30.6469C9.31316 29.2878 8.20754 28.1821 6.84848 28.1821ZM6.84848 31.9397C6.13559 31.9397 5.55566 31.3598 5.55566 30.6469C5.55566 29.934 6.13559 29.354 6.84848 29.354C7.56137 29.354 8.14129 29.934 8.14129 30.6469C8.14129 31.3598 7.56137 31.9397 6.84848 31.9397Z" fill="black"/>
<path d="M16.2422 26.9287C15.2285 26.9287 14.4038 27.7535 14.4038 28.7671C14.4038 29.7809 15.2286 30.6057 16.2422 30.6057C17.2559 30.6057 18.0807 29.7809 18.0807 28.7671C18.0808 27.7535 17.256 26.9287 16.2422 26.9287ZM16.2422 29.4338C15.8747 29.4338 15.5757 29.1347 15.5757 28.7671C15.5757 28.3996 15.8747 28.1006 16.2422 28.1006C16.6097 28.1006 16.9088 28.3996 16.9088 28.7671C16.9089 29.1347 16.6098 29.4338 16.2422 29.4338Z" fill="black"/>
<path d="M39.0155 25.0116C39.5952 24.8894 40 24.4009 40 23.8237V13.738C40 13.5041 39.8627 13.303 39.6647 13.2089L39.6649 13.2084L20.0206 3.90304C18.7422 3.3014 17.3088 3.04375 15.8752 3.15843C9.40602 3.67492 5.59328 6.40687 3.53398 8.60765C0.925547 11.3953 0 14.463 0 16.243V33.7783C0 35.4827 1.38664 36.8692 3.09094 36.8692H15.8345C16.3456 36.8692 16.8029 36.5458 16.9723 36.0644C17.3301 35.0474 18.2952 34.3642 19.3737 34.3642C20.4522 34.3642 21.4172 35.0475 21.7751 36.0644C21.9445 36.5458 22.4017 36.8692 22.9129 36.8692H38.7877C39.4562 36.8692 39.9999 36.3255 39.9999 35.657V29.9549C39.9999 29.3778 39.5951 28.8894 39.0155 28.7671C38.1344 28.5814 37.4948 27.7916 37.4948 26.8893C37.4948 25.9869 38.1345 25.1973 39.0155 25.0116ZM38.7738 29.9138C38.8005 29.9195 38.8281 29.9364 38.8281 29.9549V35.657C38.8281 35.6793 38.8101 35.6973 38.7878 35.6973H22.913C22.898 35.6973 22.8852 35.6887 22.8805 35.6754C22.358 34.1902 20.9487 33.1923 19.3737 33.1923C17.7987 33.1923 16.3895 34.1902 15.867 35.6754C15.8623 35.6887 15.8495 35.6973 15.8345 35.6973H3.09094C2.03281 35.6973 1.17188 34.8365 1.17188 33.7783V16.243C1.17188 15.1848 2.03281 14.3239 3.09094 14.3239H30.6463C30.9699 14.3239 31.2323 14.0616 31.2323 13.738C31.2323 13.4144 30.9699 13.152 30.6463 13.152H3.09094C2.62766 13.152 2.18828 13.2552 1.79344 13.4386C2.40977 11.9241 3.40219 10.4637 4.38961 9.40843C6.3075 7.35875 9.87313 4.81336 15.9685 4.32664C17.1988 4.22836 18.4276 4.44859 19.5202 4.96281L36.8084 13.152H33.1512C32.8276 13.152 32.5652 13.4144 32.5652 13.738C32.5652 14.0616 32.8276 14.3239 33.1512 14.3239H38.8281V23.8238C38.8281 23.8424 38.8005 23.8593 38.7738 23.8649C37.3538 24.1644 36.3231 25.4363 36.3231 26.8894C36.3231 28.3424 37.3537 29.6145 38.7738 29.9138Z" fill="black"/>
</svg>
