<svg width="40" height="40" viewBox="0 0 40 40" fill="none" xmlns="http://www.w3.org/2000/svg">
<g clip-path="url(#clip0_300_2169)">
<path d="M15.5097 18.8607C12.8607 20.5446 11.2793 23.3486 11.2793 26.3614C11.2793 26.7066 11.5591 26.9864 11.9043 26.9864C12.2495 26.9864 12.5293 26.7066 12.5293 26.3614C12.5293 23.7785 13.8942 21.3689 16.1802 19.9158C16.4716 19.7305 16.5576 19.3443 16.3724 19.0529C16.1874 18.7618 15.8011 18.6756 15.5097 18.8607Z" fill="black"/>
<path d="M39.2685 25.8627C38.7842 24.1745 36.6505 23.8431 35.7699 25.2925C35.246 26.1548 34.569 26.9216 33.772 27.5738C34.2685 22.8173 31.8293 18.4357 27.8125 16.0169C27.9196 15.5068 28.2593 14.9076 28.7986 14.2807C30.08 14.4134 31.6647 14.0052 32.0651 12.6892C32.1395 12.4448 32.2238 12.0816 32.2466 11.6445C32.6452 11.44 33.0407 11.2652 33.426 11.1242C33.7502 11.0056 33.9168 10.6467 33.7982 10.3225C33.6796 9.9983 33.3206 9.83182 32.9965 9.95026C32.7034 10.0574 32.406 10.1819 32.1068 10.3214C31.546 8.2628 29.2014 6.31722 25.232 6.4248C24.47 6.44543 23.9018 7.08638 23.9575 7.84694C24.1391 10.3275 25.2084 12.8764 27.4879 13.9196C27.1104 14.4286 26.8395 14.9294 26.6835 15.41C26.2499 15.2032 25.8024 15.0184 25.3427 14.8578C22.745 12.3409 19.1072 10.8473 15.2625 10.7058C15.227 10.1541 15.1401 9.26782 14.9279 8.19929L14.9286 8.19819C17.9764 9.48736 21.2324 7.26849 23.5907 4.95025C24.1862 4.36477 24.1711 3.40694 23.5554 2.88154C19.9861 -0.163826 16.0288 -0.475785 13.3197 3.50452C12.6518 2.21934 11.8323 1.10166 10.8759 0.175945C10.628 -0.0641369 10.2322 -0.0577306 9.99216 0.190321C9.75208 0.438372 9.75849 0.834004 10.0065 1.07416C10.6572 1.70402 11.2389 2.43606 11.7462 3.26022C9.49622 2.76474 7.34087 3.76507 6.24889 4.41211C5.59326 4.80087 5.39701 5.62917 5.80959 6.27058C8.27909 10.1092 11.7822 10.5973 13.8407 9.23056C13.9342 9.8344 13.9833 10.3432 14.0089 10.7073C6.3539 11.0092 0.231445 16.5883 0.231445 23.4038C0.231445 29.8101 5.62568 35.1987 12.8102 36.0084C15.4458 37.9655 18.8909 38.9529 22.4845 38.524C27.259 41.3042 34.2084 40.0509 37.6333 35.655C39.8605 32.7964 40.2333 29.2265 39.2685 25.8627ZM25.2041 7.75577C25.2002 7.7035 25.2231 7.67592 25.2774 7.67412C27.8293 7.57982 29.2309 8.48179 29.8394 9.02688C31.2298 10.2724 31.0814 11.628 30.8692 12.3252C30.8043 12.5391 30.6459 12.7158 30.4401 12.804C29.7699 13.0911 28.438 13.3865 27.0475 12.1408C26.4391 11.5958 25.3905 10.3013 25.2041 7.75577ZM20.4994 2.3677C21.4485 2.80529 22.2439 3.40577 22.7439 3.83249C22.8043 3.88382 22.7776 3.99664 22.7143 4.05883C20.585 6.15191 17.5025 8.35773 14.9509 6.81192C14.4023 6.48176 14.0104 6.05386 13.7782 5.75307C13.5821 5.49916 13.7618 5.18447 13.753 5.20806C15.3174 2.25715 17.503 0.986506 20.4994 2.3677ZM10.5768 8.56406C9.78177 8.37632 8.24182 7.74084 6.86086 5.59432C6.83211 5.54963 6.84 5.51479 6.88625 5.48752C8.5962 4.47422 10.8098 3.91062 12.5389 4.87259C12.3384 5.44151 12.442 6.0691 12.7887 6.51692C13.1009 6.92013 13.4711 7.28435 13.8401 7.56584C13.3725 8.13882 12.3502 8.98282 10.5768 8.56406ZM10.3757 31.361C10.2133 31.0625 9.83357 30.9445 9.52786 31.1109C9.26262 31.2554 9.14371 31.5641 9.22879 31.842C9.29949 32.0734 10.0517 33.3468 11.0484 34.4279C5.47044 33.0539 1.48147 28.5975 1.48147 23.4038C1.48147 16.9615 7.53571 11.9438 14.6633 11.9437C17.5107 11.9437 20.2571 12.7474 22.5094 14.1992C13.3497 13.0979 6.11858 21.0077 8.20573 29.2293C8.29065 29.5639 8.63066 29.7665 8.96527 29.6813C9.29989 29.5964 9.50223 29.2564 9.41731 28.9217C7.65283 21.9705 13.3045 15.3491 20.8424 15.3491C28.0846 15.3491 33.8473 21.5726 32.3559 28.541C28.8011 30.5483 23.766 30.6102 20.4453 27.8368C19.6773 27.1952 18.6245 27.2558 17.9309 27.9162C17.0231 28.7804 17.2967 30.1651 17.5724 31.4876C18.0684 33.8859 19.1996 35.8909 20.8852 37.3737C16.2921 37.3901 12.3289 34.9489 10.3757 31.361ZM36.6472 34.8868C33.5759 38.8288 27.1946 39.945 22.9466 37.3456C20.1711 35.6473 18.7294 32.7079 18.5672 29.445C18.5339 28.7732 19.1824 28.4108 19.6441 28.7962C24.6653 32.99 33.3892 31.6195 36.8383 25.9415C37.1643 25.4051 37.8905 25.5922 38.067 26.2074C38.9219 29.1875 38.6167 32.3589 36.6472 34.8868Z" fill="black"/>
<path d="M29.833 33.142C29.7765 32.8015 29.4544 32.5707 29.1141 32.6278C28.7735 32.6844 28.5433 33.0062 28.5999 33.3467L28.7952 34.5235C28.8524 34.8681 29.1781 35.0939 29.5141 35.0377C29.8546 34.9811 30.0849 34.6593 30.0283 34.3188L29.833 33.142Z" fill="black"/>
<path d="M25.7776 32.6347C25.4522 32.5193 25.095 32.6898 24.9799 33.0152L24.537 34.266C24.4218 34.5914 24.5922 34.9485 24.9175 35.0638C25.2436 35.1792 25.6003 35.008 25.7153 34.6833L26.1582 33.4325C26.2734 33.1071 26.103 32.75 25.7776 32.6347Z" fill="black"/>
<path d="M33.1527 31.6581C32.9385 31.3873 32.5456 31.3417 32.2748 31.5558C32.0042 31.7699 31.9583 32.1629 32.1725 32.4336L32.9959 33.4741C33.1192 33.63 33.3019 33.7113 33.4864 33.7113C34.0023 33.7113 34.3023 33.1108 33.9761 32.6985L33.1527 31.6581Z" fill="black"/>
</g>
<defs>
<clipPath id="clip0_300_2169">
<rect width="40" height="40" fill="white"/>
</clipPath>
</defs>
</svg>
