<svg width="40" height="40" viewBox="0 0 40 40" fill="none" xmlns="http://www.w3.org/2000/svg">
<g clip-path="url(#clip0_300_2188)">
<path d="M7.78539 25.5813C8.10102 25.6562 8.41727 25.4609 8.49203 25.1454C8.5668 24.8299 8.37172 24.5135 8.05617 24.4388C5.44336 23.8194 4.27383 22.9626 4.27383 22.3881C4.27383 21.9516 5.01656 21.2189 7.10984 20.59C9.15508 19.9755 11.8852 19.6371 14.7972 19.6371C21.2211 19.6371 25.3206 21.2663 25.3206 22.388C25.3206 22.8244 24.5779 23.5571 22.4846 24.186C20.4395 24.8005 17.7094 25.1389 14.7973 25.1389C13.2327 25.1389 11.7232 25.0418 10.3105 24.8503C9.98914 24.8061 9.69344 25.0318 9.64992 25.3531C9.60633 25.6745 9.83148 25.9702 10.1527 26.0138C11.6175 26.2124 13.1802 26.3131 14.7972 26.3131C17.8205 26.3131 20.6706 25.957 22.8224 25.3106C25.2248 24.5888 26.4948 23.5781 26.4948 22.388C26.4948 21.1978 25.2249 20.1872 22.8224 19.4654C20.6706 18.8189 17.8205 18.4629 14.7972 18.4629C11.7738 18.4629 8.92375 18.8189 6.77195 19.4654C4.36953 20.1872 3.09961 21.1978 3.09961 22.388C3.09961 23.3381 3.9125 24.6633 7.78539 25.5813Z" fill="black"/>
<path d="M36.213 7.93062C36.0222 7.66844 35.6548 7.61078 35.3928 7.80148C35.1307 7.99234 35.0729 8.35953 35.2637 8.62164C37.5607 11.7768 38.8258 15.8177 38.8258 19.9998C38.8258 29.5748 32.2968 37.3645 24.2715 37.3645C23.3741 37.3645 22.483 37.2668 21.6079 37.0733C23.3431 36.2093 24.8277 34.9654 26.0508 33.346C26.2463 33.0873 26.1949 32.7191 25.9362 32.5237C25.6774 32.3282 25.3092 32.3796 25.1139 32.6383C22.7453 35.7743 19.2742 37.3644 14.7971 37.3644C10.9737 37.3644 7.87141 36.1993 5.57665 33.9016C3.01821 31.3398 1.94673 27.8466 1.4979 25.3817C2.24415 26.074 3.25821 26.7036 4.51743 27.2447C7.2729 28.4287 10.9237 29.0807 14.7972 29.0807C18.6707 29.0807 22.3215 28.4287 25.077 27.2447C26.3383 26.7027 27.3537 26.0719 28.1002 25.3783C27.8209 26.9222 27.2975 28.8688 26.3171 30.7327C26.1798 30.9938 26.2627 31.3266 26.5072 31.492C26.7935 31.6856 27.1956 31.5848 27.3563 31.2793C29.5808 27.0502 29.5947 22.5747 29.5942 22.3862C29.5942 22.3857 29.5941 22.3852 29.5941 22.3847C29.5924 20.5056 27.9883 18.782 25.0769 17.5309C22.3214 16.3469 18.6706 15.6948 14.7971 15.6948C13.176 15.6948 11.5942 15.8095 10.1004 16.0291C11.6282 8.22016 17.4812 2.63508 24.2715 2.63508C27.7756 2.63508 31.1621 4.14398 33.8071 6.88383C34.0323 7.11695 34.404 7.12367 34.6372 6.89844C34.8705 6.67328 34.877 6.30156 34.6518 6.06836C31.7836 3.09719 28.0971 1.46094 24.2715 1.46094C16.7872 1.46094 10.3657 7.65008 8.86743 16.2379C7.26938 16.5463 5.79673 16.9811 4.51735 17.5308C1.60594 18.7819 0.0018823 20.5055 8.54299e-05 22.3846C8.54299e-05 22.3852 7.30495e-06 22.3856 7.30495e-06 22.3862C-0.00022707 22.4638 0.00164796 24.3143 0.579617 26.7594C1.55118 30.8698 3.37821 33.36 4.73977 34.7252C7.26344 37.2555 10.6472 38.5385 14.7971 38.5385C16.6352 38.5385 18.3189 38.2887 19.8434 37.7927C21.2774 38.2873 22.7658 38.5385 24.2715 38.5385C28.4918 38.5385 32.4536 36.5972 35.4269 33.072C38.3759 29.5757 40 24.9333 40 19.9998C40 15.5713 38.6551 11.285 36.213 7.93062ZM4.98087 18.6098C7.59321 17.4873 11.0794 16.8691 14.7971 16.8691C18.5149 16.8691 22.0009 17.4873 24.6134 18.6098C27.0326 19.6492 28.4201 21.0263 28.4201 22.3878C28.4201 23.7494 27.0326 25.1264 24.6134 26.1659C22.001 27.2884 18.5149 27.9066 14.7971 27.9066C11.0794 27.9066 7.59329 27.2884 4.98087 26.1659C2.56165 25.1264 1.17415 23.7493 1.17415 22.3878C1.17415 21.0263 2.56173 19.6493 4.98087 18.6098Z" fill="black"/>
<path d="M21.9157 8.35236C22.5101 8.35236 22.992 7.87047 22.992 7.27604C22.992 6.6816 22.5101 6.19971 21.9157 6.19971C21.3212 6.19971 20.8394 6.6816 20.8394 7.27604C20.8394 7.87047 21.3212 8.35236 21.9157 8.35236Z" fill="black"/>
<path d="M24.2716 11.0018C24.8661 11.0018 25.348 10.5199 25.348 9.92545C25.348 9.33101 24.8661 8.84912 24.2716 8.84912C23.6772 8.84912 23.1953 9.33101 23.1953 9.92545C23.1953 10.5199 23.6772 11.0018 24.2716 11.0018Z" fill="black"/>
<path d="M27.6836 7.44859C27.7787 6.86188 27.3802 6.30915 26.7935 6.21404C26.2068 6.11893 25.654 6.51746 25.5589 7.10417C25.4638 7.69088 25.8623 8.24361 26.4491 8.33872C27.0358 8.43383 27.5885 8.0353 27.6836 7.44859Z" fill="black"/>
</g>
<defs>
<clipPath id="clip0_300_2188">
<rect width="40" height="40" fill="white"/>
</clipPath>
</defs>
</svg>
