<svg width="40" height="40" viewBox="0 0 40 40" fill="none" xmlns="http://www.w3.org/2000/svg">
<g clip-path="url(#clip0_300_2175)">
<path d="M24.4006 38.4946C33.0159 38.4946 40 30.2143 40 20C40 9.78569 33.0159 1.50537 24.4006 1.50537C15.7853 1.50537 8.80127 9.78569 8.80127 20C8.80127 30.2143 15.7853 38.4946 24.4006 38.4946Z" fill="#B27946"/>
<path d="M14.6399 14.521C12.8129 14.521 11.0546 14.6468 9.40783 14.8784C9.01322 16.505 8.80127 18.2233 8.80127 20.0004C8.80127 29.4896 14.8294 37.3082 22.5929 38.3706C31.4685 33.7608 31.4424 21.7543 31.4424 21.741C31.4424 21.7409 31.4425 21.7408 31.4425 21.7408C31.4425 17.7534 23.9197 14.521 14.6399 14.521Z" fill="#B27946"/>
<path d="M14.6398 28.7504C22.7251 28.7504 29.2795 25.934 29.2795 22.4599C29.2795 18.9858 22.7251 16.1694 14.6398 16.1694C6.55445 16.1694 0 18.9858 0 22.4599C0 25.934 6.55445 28.7504 14.6398 28.7504Z" fill="#E5E5E5"/>
<path d="M14.6398 27.2991C7.12586 27.2991 0.935234 24.8666 0.0975781 21.7344C0.0339062 21.9726 0 22.2147 0 22.4602C0 25.9344 6.55445 28.7507 14.6398 28.7507C22.7251 28.7507 29.2795 25.9344 29.2795 22.4602C29.2795 22.2147 29.2456 21.9727 29.182 21.7345C28.3444 24.8666 22.1538 27.2991 14.6398 27.2991Z" fill="#E5E5E5"/>
<path d="M14.6398 25.8988C20.9616 25.8988 26.0863 24.3591 26.0863 22.4599C26.0863 20.5606 20.9616 19.021 14.6398 19.021C8.31813 19.021 3.19336 20.5606 3.19336 22.4599C3.19336 24.3591 8.31813 25.8988 14.6398 25.8988Z" fill="#7383BF"/>
<path d="M14.6398 24.4475C9.14703 24.4475 4.55867 23.2851 3.44961 21.7344C3.28227 21.9684 3.19336 22.2112 3.19336 22.4602C3.19336 24.3595 8.31813 25.8991 14.6398 25.8991C20.9616 25.8991 26.0863 24.3594 26.0863 22.4602C26.0863 22.2111 25.9974 21.9684 25.8301 21.7344C24.721 23.2851 20.1327 24.4475 14.6398 24.4475Z" fill="#B27946"/>
<path d="M14.6398 28.7504C6.55446 28.7504 1.36222e-06 25.9341 1.36222e-06 22.46C1.36222e-06 22.46 -0.0420296 38.4943 14.6398 38.4943C29.3216 38.4943 29.2795 22.46 29.2795 22.46C29.2796 25.9341 22.7252 28.7504 14.6398 28.7504Z" fill="#F87C68"/>
<path d="M14.6398 37.0427C3.6857 37.0427 0.92797 28.1174 0.233673 23.5848C0.080392 23.2198 1.36222e-06 22.8439 1.36222e-06 22.46C1.36222e-06 22.46 -0.0420296 38.4943 14.6398 38.4943C29.3216 38.4943 29.2795 22.46 29.2795 22.46C29.2795 22.8439 29.1992 23.2199 29.0458 23.5848C28.3516 28.1174 25.5939 37.0427 14.6398 37.0427Z" fill="#B27946"/>
<path d="M21.9777 7.97643C22.5913 7.97643 23.0887 7.47901 23.0887 6.86541C23.0887 6.25181 22.5913 5.75439 21.9777 5.75439C21.3641 5.75439 20.8667 6.25181 20.8667 6.86541C20.8667 7.47901 21.3641 7.97643 21.9777 7.97643Z" fill="black"/>
<path d="M24.4098 10.7113C25.0234 10.7113 25.5209 10.2139 25.5209 9.60027C25.5209 8.98668 25.0234 8.48926 24.4098 8.48926C23.7962 8.48926 23.2988 8.98668 23.2988 9.60027C23.2988 10.2139 23.7962 10.7113 24.4098 10.7113Z" fill="black"/>
<path d="M27.9426 6.98621C28.0175 6.37691 27.5842 5.82229 26.9749 5.74743C26.3656 5.67257 25.811 6.10582 25.7361 6.71512C25.6613 7.32442 26.0945 7.87904 26.7038 7.9539C27.3131 8.02876 27.8677 7.59551 27.9426 6.98621Z" fill="black"/>
</g>
<defs>
<clipPath id="clip0_300_2175">
<rect width="40" height="40" fill="white"/>
</clipPath>
</defs>
</svg>
