<svg width="40" height="40" viewBox="0 0 40 40" fill="none" xmlns="http://www.w3.org/2000/svg">
<g clip-path="url(#clip0_300_2483)">
<path d="M33.7878 15.6201C33.7871 15.6201 33.7864 15.6201 33.7857 15.6201C33.2637 15.6201 32.7726 15.8237 32.4027 16.1937C31.6412 16.9553 31.6412 18.1944 32.4027 18.956C32.7726 19.3259 33.2637 19.5296 33.7857 19.5296H33.7878C34.3094 19.5291 34.7995 19.3251 35.1663 18.9569C35.5368 18.5879 35.7408 18.0971 35.7408 17.5748C35.7408 17.0525 35.5368 16.5618 35.1681 16.1945C34.7995 15.8247 34.3094 15.6207 33.7878 15.6201ZM34.3376 18.1281C34.1904 18.276 33.9946 18.3574 33.7865 18.3577C33.7862 18.3577 33.786 18.3577 33.7857 18.3577C33.5767 18.3577 33.3799 18.2759 33.2313 18.1274C32.9267 17.8227 32.9267 17.3271 33.2313 17.0225C33.3798 16.8739 33.5767 16.7921 33.7857 16.7921H33.7865C33.9946 16.7922 34.1904 16.8738 34.3393 17.0232C34.4873 17.1706 34.5688 17.3665 34.5688 17.5748C34.5688 17.7832 34.4873 17.9791 34.3376 18.1281Z" fill="black"/>
<path d="M39.9315 19.1444C39.9259 19.1135 39.9177 19.0832 39.9071 19.0536C38.7103 15.6948 35.7966 12.6304 31.4809 10.1918C27.8042 8.11419 23.292 6.58473 18.7756 5.88492C15.9753 5.45107 13.376 5.37599 11.2586 5.66757C8.91581 5.99024 7.2908 6.72927 6.42864 7.86402C5.85728 8.61609 5.36171 9.92241 6.24558 11.8748L8.44039 16.7263H6.88281L3.22487 12.1849C3.0333 11.9471 2.6914 11.8963 2.43905 12.0679C2.39858 12.0954 1.43946 12.7573 0.737235 14.0728C0.110482 15.2468 -0.428923 17.1841 0.4948 19.8062C-0.428923 22.4283 0.110482 24.3656 0.737157 25.5397C1.43938 26.8551 2.3985 27.517 2.43897 27.5445C2.6914 27.7161 3.0333 27.6653 3.22479 27.4275L6.88273 22.8861H8.45563L6.51216 27.3648C5.93494 28.6945 5.92017 29.8353 6.46833 30.7556C7.1854 31.9596 8.79611 32.6787 11.2557 32.8929C11.5784 32.9214 11.8622 32.6823 11.8903 32.36C11.9184 32.0376 11.6799 31.7534 11.3574 31.7253C9.35271 31.5507 7.97404 30.9933 7.47526 30.1558C7.13094 29.5777 7.1686 28.7956 7.5873 27.8313L9.37513 23.7113C10.0438 25.0145 11.0994 26.6707 13.0076 28.072C15.0842 29.5969 17.7528 30.4871 20.9737 30.735C18.4836 31.3101 16.0549 31.674 13.9324 31.7657C13.6091 31.7797 13.3583 32.0532 13.3723 32.3765C13.3859 32.6912 13.6453 32.9371 13.9573 32.9371C13.9658 32.9371 13.9744 32.937 13.9831 32.9366C17.3712 32.7901 21.574 31.9628 25.5869 30.6751C25.607 30.6697 26.3535 30.4238 26.7044 30.3027C26.7051 30.3024 27.2827 30.0993 27.6693 29.9583C26.993 30.9834 26.166 31.6683 25.0117 32.6239C24.8109 32.7901 24.6015 32.9635 24.3832 33.1467C24.0051 33.4634 24.0349 33.8765 24.2225 34.1262C24.305 34.2361 24.5079 34.5063 25.5171 34.5063C25.9188 34.5063 26.4481 34.4635 27.1483 34.3507C27.8675 34.2349 29.6681 33.8797 30.8508 33.0859C32.9981 31.6477 33.8709 28.8344 33.8562 27.1188C35.9619 25.9018 37.5931 24.6073 38.6294 23.307C39.7441 21.9088 40.1822 20.5081 39.9315 19.1444ZM6.01635 22.0935L2.69054 26.2226C2.12122 25.6586 1.16007 24.4145 1.17632 22.4681L3.55536 21.7516C3.86522 21.6583 4.04077 21.3314 3.94741 21.0215C3.85412 20.7117 3.52707 20.536 3.21737 20.6295L1.31672 21.2019C1.39563 20.8256 1.50986 20.4294 1.66674 20.0127C1.71682 19.8796 1.71682 19.7328 1.66674 19.5997C1.45509 19.0378 1.32086 18.514 1.24554 18.0263L3.17581 18.7694C3.24503 18.796 3.3162 18.8087 3.38621 18.8087C3.62153 18.8087 3.84358 18.6659 3.93311 18.4331C4.04937 18.1311 3.89881 17.792 3.59684 17.6757L1.17968 16.7451C1.28008 15.0168 2.15325 13.9086 2.68781 13.3866L6.01627 17.5188V22.0935H6.01635ZM8.76275 21.7142H7.18829V17.8982H8.76275V21.7142ZM9.16684 15.4887L7.3133 11.3916C6.78749 10.2301 6.80343 9.30816 7.36189 8.57296C8.71236 6.79552 13.122 6.19494 18.5962 7.04295C19.1876 7.1346 19.7787 7.24132 20.3678 7.36149C16.9162 7.48298 14.1957 8.42905 12.2451 10.1945C10.4543 11.8155 9.61358 13.8781 9.16684 15.4887ZM13.571 27.0219C11.429 25.3966 10.4975 23.391 9.93469 22.1714V17.37C10.2185 15.9441 10.7381 13.4296 12.6177 11.4664C12.3306 14.6783 12.7627 16.5926 13.1828 18.4513C13.6602 20.5642 14.1525 22.745 13.571 27.0219ZM15.6355 28.2544C15.2869 28.0934 14.9589 27.9224 14.6513 27.7428C15.3855 22.8859 14.8473 20.5007 14.3259 18.1931C13.8562 16.1148 13.4126 14.148 13.9206 10.3667C14.3074 10.1033 14.7221 9.86811 15.1643 9.66099C14.7558 12.3703 14.8091 14.7949 15.3255 17.3912C15.4112 17.8223 15.5269 18.259 15.6494 18.7214C15.958 19.8862 16.3077 21.2065 16.2954 22.9209C16.2818 24.9538 16.0599 26.744 15.6355 28.2544ZM21.7489 29.6089C21.3978 29.5926 21.0578 29.5687 20.7276 29.5381C21.7752 24.7631 21.4331 21.076 21.0062 18.3705C20.9557 18.0508 20.6562 17.8325 20.336 17.883C20.0163 17.9335 19.7981 18.2335 19.8486 18.5531C20.2625 21.176 20.5941 24.7564 19.5594 29.3948C18.5022 29.2319 17.5628 28.9926 16.727 28.6968C17.2032 27.0576 17.4526 25.1214 17.4674 22.929C17.4807 21.0578 17.0934 19.5959 16.7823 18.4212C16.6646 17.977 16.5535 17.5575 16.4749 17.1625C15.9443 14.4947 15.931 12.0135 16.4331 9.16643C17.2695 8.90095 18.1848 8.71672 19.1779 8.61445C18.8621 10.3083 18.7675 12.9983 19.3879 16.0598C19.4442 16.3377 19.6885 16.5295 19.9616 16.5295C20.0002 16.5295 20.0393 16.5257 20.0786 16.5177C20.3958 16.4534 20.6008 16.1442 20.5365 15.827C19.8741 12.558 20.0994 9.87561 20.3916 8.53186C20.7322 8.51968 21.0804 8.51577 21.437 8.52061C21.0647 11.7035 21.529 14.2991 21.979 16.8145C22.6115 20.3495 23.2639 24.0026 21.7489 29.6089ZM26.0155 29.3021C25.7866 29.3796 25.557 29.4561 25.3265 29.5305C24.4899 29.5997 23.701 29.6324 22.9545 29.6342C24.4422 23.9367 23.7776 20.2129 23.1326 16.6081C22.6737 14.0427 22.2393 11.6115 22.6119 8.56671C23.6345 8.63023 24.7164 8.7575 25.8573 8.949C25.3943 10.7238 25.3844 12.6035 25.8317 14.5459C27.012 19.6983 27.073 24.6608 26.0155 29.3021ZM27.3128 28.8441C28.2462 24.2382 28.1335 19.346 26.974 14.2837C26.5772 12.561 26.576 10.8997 26.9675 9.33511C27.3769 9.49918 27.7807 9.66958 28.1781 9.84631C27.6676 11.6863 28.0815 14.0722 28.5176 16.5847C28.8815 18.6814 29.2579 20.8496 29.1576 22.8962C28.9594 26.9479 28.8589 27.2384 28.5606 28.1008C28.5286 28.1933 28.4938 28.2942 28.4568 28.4049C28.0797 28.5551 27.6984 28.7018 27.3128 28.8441ZM30.1981 32.1129C29.1295 32.8301 27.2224 33.2115 26.0202 33.3105C27.4403 32.131 28.5049 31.1819 29.3599 29.3005C30.5359 28.8174 31.6336 28.3103 32.6419 27.7853C32.4705 29.1342 31.7645 31.0639 30.1981 32.1129ZM37.713 22.577C36.1821 24.4978 33.297 26.3086 29.883 27.8085C30.0695 27.1032 30.1727 26.1316 30.3282 22.9535C30.4347 20.7771 30.0471 18.544 29.6723 16.3843C29.2751 14.0962 28.8978 11.9203 29.2593 10.3492C29.8238 10.6246 30.3735 10.9122 30.9044 11.2121C34.9509 13.4987 37.6753 16.3296 38.7868 19.4012C38.9548 20.4037 38.5937 21.4719 37.713 22.577Z" fill="black"/>
</g>
<defs>
<clipPath id="clip0_300_2483">
<rect width="40" height="40" fill="white"/>
</clipPath>
</defs>
</svg>
