<svg width="40" height="40" viewBox="0 0 40 40" fill="none" xmlns="http://www.w3.org/2000/svg">
<g clip-path="url(#clip0_300_2123)">
<path d="M36.25 31.25H17.475C17.4875 31.1625 17.4875 31.0813 17.4937 30.9938C17.5687 29.2438 17.0938 27.6063 16.2188 26.25H36.25V31.25Z" fill="#B27946"/>
<path d="M15.1997 36.25C16.481 34.9313 17.331 33.175 17.4747 31.25H36.2497V33.75C36.2497 35.1312 35.131 36.25 33.7497 36.25H15.1997Z" fill="#B27946"/>
<path d="M9.375 23.75V21.25H9.625H36.25V26.25H16.2188C15.9813 25.875 15.7125 25.525 15.4187 25.1938C14.2188 23.8563 12.2625 23.425 10.6125 24.1313C10.25 24.2875 9.825 24.375 9.375 24.375V23.75Z" fill="#B27946"/>
<path d="M9.63125 18.75C9.46875 19.1313 9.375 19.5563 9.375 20V21.25V23.75C9.375 22.7125 8.95625 21.775 8.275 21.1C7.8875 20.7062 7.40625 20.4 6.875 20.2187V19.375C6.875 19.0312 7.15625 18.75 7.5 18.75H9.16875H9.63125Z" fill="#FA962A"/>
<path d="M6.875 20.2187C7.40625 20.4 7.8875 20.7062 8.275 21.1C8.95625 21.775 9.375 22.7125 9.375 23.75H6.875C6.6625 23.75 6.45 23.7312 6.25 23.6937C5.4625 23.5625 4.7625 23.1875 4.225 22.65C3.54375 21.975 3.125 21.0375 3.125 20H5.625C6.0625 20 6.48125 20.075 6.875 20.2187Z" fill="#3BBC56"/>
<path d="M9.625 21.25H9.375V20C9.375 19.5563 9.46875 19.1313 9.63125 18.75H18.3313H18.75H34.8062H38.125C38.4688 18.75 38.75 19.0312 38.75 19.375V20.625C38.75 20.9688 38.4688 21.25 38.125 21.25H36.25H9.625Z" fill="#FA962A"/>
<path d="M10.2062 3.81841L11.6875 7.89341C11.15 8.09966 10.6625 8.39341 10.225 8.74341L7.72495 5.07466C7.6937 5.02466 7.66245 4.97466 7.63745 4.92466C7.31245 4.27466 7.57495 3.48716 8.22495 3.16216L8.3812 3.08716C9.02495 2.76216 9.81245 3.02466 10.1375 3.67466L10.1437 3.68091C10.1687 3.72466 10.1875 3.77466 10.2062 3.81841Z" fill="#3BBC56"/>
<path d="M15 2.4375C15 2.48125 15 2.51875 14.9937 2.55625L14.4938 7.55C14.25 7.51875 14 7.5 13.75 7.5C13.5 7.5 13.25 7.51875 13.0062 7.55L12.5063 2.55625C12.5 2.51875 12.5 2.48125 12.5 2.4375C12.5 1.78125 13.0312 1.25 13.6875 1.25H13.8125C14.4688 1.25 15 1.78125 15 2.4375Z" fill="#3BBC56"/>
<path d="M20 4.33716C20 4.53716 19.9563 4.73716 19.8625 4.92466C19.8375 4.97466 19.8062 5.02466 19.775 5.07466L17.275 8.74341C16.8375 8.39341 16.35 8.09966 15.8125 7.89341L17.2938 3.81841C17.3125 3.77466 17.3313 3.72466 17.3563 3.68091L17.3625 3.67466C17.6875 3.02466 18.475 2.76216 19.1188 3.08716L19.275 3.16216C19.7375 3.39341 20 3.85591 20 4.33716Z" fill="#3BBC56"/>
<path d="M14.4938 7.55C14.9563 7.6125 15.3937 7.725 15.8125 7.89375C16.35 8.1 16.8375 8.39375 17.275 8.74375C18.5562 9.775 19.375 11.3563 19.375 13.125V13.1687C19.375 13.5562 19.3375 13.9375 19.2562 14.3187L18.3313 18.75H9.63125H9.16875L8.24375 14.3187C8.1625 13.9375 8.125 13.5562 8.125 13.1687V13.125C8.125 11.575 8.75625 10.1625 9.775 9.15C9.91875 9.00625 10.0688 8.875 10.225 8.74375C10.6625 8.39375 11.15 8.1 11.6875 7.89375C12.1063 7.725 12.5437 7.6125 13.0062 7.55C13.25 7.51875 13.5 7.5 13.75 7.5C14 7.5 14.25 7.51875 14.4938 7.55Z" fill="#E91E63"/>
<path d="M30.5249 9.375H33.0249C33.0249 10.4125 32.6062 11.35 31.9249 12.025C31.3874 12.5687 30.6874 12.9437 29.8999 13.0687C29.6999 13.1062 29.4874 13.125 29.2749 13.125H26.7749C26.7749 12.0875 27.1937 11.15 27.8749 10.475C28.5499 9.79375 29.4874 9.375 30.5249 9.375Z" fill="#3BBC56"/>
<path d="M29.9 13.0751C31.0125 13.1376 32.0812 13.7438 32.85 14.6063C33.8687 15.7501 34.5625 17.1751 34.8062 18.7501H18.75V18.7376C19 17.1501 19.7062 15.7126 20.7312 14.5688C21.9375 13.2313 23.8875 12.8001 25.5375 13.5063C25.7312 13.5813 25.9312 13.6501 26.15 13.6938V13.1251H26.775H29.275C29.4875 13.1251 29.7 13.1063 29.9 13.0688V13.0751Z" fill="#FA962A"/>
<path d="M6.875 23.7501H9.375V24.3751C9.825 24.3751 10.25 24.2876 10.6125 24.1313C12.2625 23.4251 14.2188 23.8563 15.4187 25.1939C15.7125 25.5251 15.9813 25.8751 16.2188 26.2501C17.0938 27.6064 17.5688 29.2439 17.4937 30.9939C17.4875 31.0814 17.4875 31.1626 17.475 31.2501C17.3312 33.1751 16.4812 34.9314 15.2 36.2501C13.7875 37.7126 11.8375 38.6626 9.7 38.7439C5.0625 38.9251 1.25 35.2189 1.25 30.6251C1.25 28.5564 2.025 26.6626 3.3 25.2313C4.06875 24.3688 5.14375 23.7626 6.25 23.7001V23.6938C6.45 23.7313 6.6625 23.7501 6.875 23.7501Z" fill="#FA962A"/>
<path d="M34.375 23.125H33.125V24.375H34.375V23.125Z" fill="black"/>
<path d="M34.375 28.125H33.125V29.375H34.375V28.125Z" fill="black"/>
<path d="M34.375 33.125H33.125V34.375H34.375V33.125Z" fill="black"/>
<path d="M38.125 18.125H35.3231C35.0044 16.6656 34.3187 15.3137 33.3175 14.1887C32.8631 13.6781 32.3325 13.2663 31.7644 12.97C32.9038 12.1794 33.6525 10.8638 33.6525 9.375V8.75H30.5275C28.935 8.75 27.5431 9.60812 26.7775 10.8831V9.375C26.7775 7.99625 27.8988 6.875 29.2775 6.875V5.625C27.2094 5.625 25.5275 7.30688 25.5275 9.375V12.8431C23.6781 12.1731 21.5987 12.6744 20.27 14.1519C20.1094 14.3306 19.9587 14.5163 19.8144 14.7063L19.8688 14.4456C19.9556 14.0269 20 13.5975 20 13.125C20 11.3694 19.27 9.78312 18.1006 8.64688L20.2919 5.42188C20.3387 5.3525 20.3813 5.27937 20.4206 5.20125C20.8975 4.24687 20.5094 3.08188 19.555 2.605L19.3988 2.52688C18.9369 2.29563 18.4125 2.25812 17.9219 2.42188C17.4312 2.58563 17.0338 2.93 16.7975 3.40125C16.7638 3.46812 16.7344 3.5375 16.7094 3.60687L15.435 7.11187C15.3487 7.0875 15.2612 7.065 15.1737 7.04437L15.615 2.62625C15.6219 2.565 15.625 2.5025 15.625 2.44062C15.625 1.43937 14.81 0.625 13.8094 0.625H13.6912C12.69 0.625 11.875 1.43937 11.875 2.44062C11.875 2.50312 11.8781 2.565 11.8844 2.62188L12.3263 7.04562C12.2381 7.06625 12.1513 7.08875 12.065 7.11312L10.7913 3.60875C10.7656 3.53813 10.7362 3.46875 10.6981 3.3925C10.4669 2.93 10.0694 2.58563 9.57875 2.42188C9.08875 2.25812 8.56438 2.29563 8.10188 2.52688L7.94563 2.605C6.99188 3.0825 6.60375 4.24688 7.08125 5.20375C7.12 5.27938 7.16188 5.35187 7.21 5.42313L9.4025 8.65C8.23125 9.7925 7.5 11.3906 7.5 13.17C7.5 13.5975 7.54438 14.0269 7.63188 14.445L8.39875 18.125H7.5C6.81063 18.125 6.25 18.6856 6.25 19.375V19.425C6.045 19.3956 5.8375 19.375 5.625 19.375H2.5V20C2.5 21.4888 3.24875 22.8044 4.38812 23.595C3.81938 23.8912 3.28875 24.3031 2.835 24.8144C1.41 26.4156 0.625 28.4794 0.625 30.625C0.625 33.0262 1.57813 35.2656 3.30875 36.9313C4.955 38.515 7.09625 39.3756 9.37125 39.3756C9.48812 39.3756 9.60437 39.3731 9.72188 39.3688C11.9462 39.2831 13.9694 38.3438 15.4737 36.8756H33.75C35.4731 36.8756 36.875 35.4738 36.875 33.7506V21.875H38.125C38.8144 21.875 39.375 21.3144 39.375 20.625V19.375C39.375 18.6856 38.8144 18.125 38.125 18.125ZM30.5275 10H32.3394C32.0487 11.4244 30.7869 12.5 29.2775 12.5H27.4656C27.7556 11.0756 29.0181 10 30.5275 10ZM21.1987 14.9875C22.2169 13.8562 23.9013 13.4831 25.295 14.0794C25.37 14.1112 25.4494 14.1362 25.5275 14.1631V15.4975C24.9069 15.2662 24.3175 14.7794 24.0938 14.5569L23.2106 15.4419C23.3569 15.5888 24.6856 16.875 26.1525 16.875C27.6194 16.875 28.9481 15.5888 29.0944 15.4419L28.2113 14.5569C27.9875 14.7788 27.3981 15.2656 26.7775 15.4975V13.75H29.2775C29.4894 13.75 29.6956 13.73 29.8994 13.7006C30.775 13.7631 31.7013 14.2531 32.3837 15.0194C33.1806 15.9144 33.7412 16.9775 34.0369 18.125H19.5181C19.8169 16.9638 20.3875 15.8894 21.1987 14.9875ZM17.8844 4.03312C17.8931 4.00938 17.9025 3.98625 17.9206 3.95125C18.0025 3.7875 18.1425 3.66562 18.3169 3.6075C18.4919 3.54937 18.6762 3.56312 18.84 3.645L18.9963 3.72312C19.3344 3.89187 19.4719 4.30437 19.3037 4.64C19.29 4.66812 19.2731 4.69625 19.2569 4.72062L17.1181 7.86812C16.95 7.76 16.7769 7.66 16.5988 7.56813L17.8844 4.03312ZM13.125 2.44062C13.125 2.12875 13.3788 1.875 13.6906 1.875H13.8088C14.1206 1.875 14.3744 2.12875 14.3713 2.49687L13.9325 6.88438C13.8719 6.8825 13.8119 6.875 13.75 6.875C13.6881 6.875 13.6281 6.8825 13.5669 6.88438L13.125 2.44062ZM8.24438 4.7225C8.22687 4.69625 8.21 4.66875 8.1975 4.6425C8.02813 4.30437 8.16563 3.89187 8.50375 3.72312L8.66 3.645C8.82312 3.56375 9.00875 3.54937 9.18312 3.6075C9.35687 3.66562 9.4975 3.7875 9.58562 3.96312C9.5975 3.98563 9.60687 4.00875 9.61625 4.03375L10.9019 7.56938C10.7238 7.66125 10.5506 7.76125 10.3831 7.86937L8.24438 4.7225ZM13.75 8.125C16.5069 8.125 18.75 10.3681 18.75 13.17C18.75 13.5119 18.7144 13.855 18.645 14.19L17.825 18.125H10.8638C11.3031 17.7406 11.8713 17.5 12.5 17.5V16.25C11.3188 16.25 10.265 16.8 9.57687 17.6562L8.85437 14.19C8.78562 13.855 8.75 13.5119 8.75 13.125C8.75 10.3681 10.9931 8.125 13.75 8.125ZM7.5 19.375H8.80625C8.77188 19.5788 8.75 19.7869 8.75 20V20.6944C8.39125 20.3275 7.96812 20.0269 7.5 19.8038V19.375ZM5.625 20.625C7.13438 20.625 8.39687 21.7006 8.68688 23.125H6.875C5.36562 23.125 4.10312 22.0494 3.81312 20.625H5.625ZM9.67375 38.1194C7.6 38.1938 5.65875 37.4569 4.17563 36.03C2.6925 34.6025 1.875 32.6831 1.875 30.625C1.875 28.7856 2.5475 27.0175 3.76812 25.6444C4.45062 24.8775 5.37687 24.3875 6.25313 24.3256C6.45687 24.355 6.66313 24.375 6.875 24.375H8.75V26.1225C8.12937 25.8913 7.54 25.4044 7.31625 25.1819L6.43313 26.0669C6.57938 26.2138 7.90812 27.5 9.375 27.5C10.8419 27.5 12.1706 26.2138 12.3169 26.0669L11.4338 25.1819C11.21 25.4037 10.6206 25.8906 10 26.1225V24.9456C10.2994 24.8975 10.5894 24.8194 10.8575 24.7044C12.2506 24.1069 13.9356 24.4819 14.9531 25.6125C16.275 27.0819 16.955 28.9831 16.8675 30.9656C16.6969 34.8281 13.5363 37.97 9.67375 38.1194ZM18.115 30.625C18.115 29.3113 17.8344 28.0356 17.2825 26.875H35.625V30.625H18.115ZM33.75 35.625H16.5394C17.3094 34.5288 17.8356 33.2519 18.035 31.875H35.625V33.75C35.625 34.7837 34.7837 35.625 33.75 35.625ZM38.125 20.625H35.625V25.625H16.5469C16.3419 25.3319 16.125 25.0463 15.8825 24.7769C14.4906 23.23 12.2725 22.74 10.3663 23.5556C10.2519 23.6044 10.1262 23.6362 10.0006 23.6675V21.875H34.3756V20.625H10V20C10 19.7831 10.0363 19.5763 10.0887 19.375H38.125V20.625Z" fill="black"/>
<path d="M4.375 30.625H3.125C3.125 34.0712 5.92875 36.875 9.375 36.875V35.625C6.61813 35.625 4.375 33.3819 4.375 30.625Z" fill="black"/>
<path d="M16.875 10.625H15.625V11.875H16.875V10.625Z" fill="black"/>
<path d="M16.875 13.125H15.625V14.375H16.875V13.125Z" fill="black"/>
<path d="M16.875 15.625H15.625V16.875H16.875V15.625Z" fill="black"/>
</g>
<defs>
<clipPath id="clip0_300_2123">
<rect width="40" height="40" fill="white"/>
</clipPath>
</defs>
</svg>
