<svg width="40" height="40" viewBox="0 0 40 40" fill="none" xmlns="http://www.w3.org/2000/svg">
<path d="M34.375 23.125H33.125V24.375H34.375V23.125Z" fill="black"/>
<path d="M34.375 28.125H33.125V29.375H34.375V28.125Z" fill="black"/>
<path d="M34.375 33.125H33.125V34.375H34.375V33.125Z" fill="black"/>
<path d="M38.125 18.125H35.3231C35.0044 16.6656 34.3187 15.3137 33.3175 14.1887C32.8631 13.6781 32.3325 13.2663 31.7644 12.97C32.9038 12.1794 33.6525 10.8638 33.6525 9.375V8.75H30.5275C28.935 8.75 27.5431 9.60812 26.7775 10.8831V9.375C26.7775 7.99625 27.8988 6.875 29.2775 6.875V5.625C27.2094 5.625 25.5275 7.30688 25.5275 9.375V12.8431C23.6781 12.1731 21.5987 12.6744 20.27 14.1519C20.1094 14.3306 19.9587 14.5163 19.8144 14.7063L19.8688 14.4456C19.9556 14.0269 20 13.5975 20 13.125C20 11.3694 19.27 9.78312 18.1006 8.64688L20.2919 5.42188C20.3387 5.3525 20.3813 5.27937 20.4206 5.20125C20.8975 4.24687 20.5094 3.08188 19.555 2.605L19.3988 2.52688C18.9369 2.29563 18.4125 2.25812 17.9219 2.42188C17.4312 2.58563 17.0338 2.93 16.7975 3.40125C16.7638 3.46812 16.7344 3.5375 16.7094 3.60687L15.435 7.11187C15.3487 7.0875 15.2612 7.065 15.1737 7.04437L15.615 2.62625C15.6219 2.565 15.625 2.5025 15.625 2.44062C15.625 1.43937 14.81 0.625 13.8094 0.625H13.6912C12.69 0.625 11.875 1.43937 11.875 2.44062C11.875 2.50312 11.8781 2.565 11.8844 2.62188L12.3263 7.04562C12.2381 7.06625 12.1513 7.08875 12.065 7.11312L10.7913 3.60875C10.7656 3.53813 10.7362 3.46875 10.6981 3.3925C10.4669 2.93 10.0694 2.58563 9.57875 2.42188C9.08875 2.25812 8.56438 2.29563 8.10188 2.52688L7.94563 2.605C6.99188 3.0825 6.60375 4.24688 7.08125 5.20375C7.12 5.27938 7.16188 5.35187 7.21 5.42313L9.4025 8.65C8.23125 9.7925 7.5 11.3906 7.5 13.17C7.5 13.5975 7.54438 14.0269 7.63188 14.445L8.39875 18.125H7.5C6.81063 18.125 6.25 18.6856 6.25 19.375V19.425C6.045 19.3956 5.8375 19.375 5.625 19.375H2.5V20C2.5 21.4888 3.24875 22.8044 4.38812 23.595C3.81938 23.8912 3.28875 24.3031 2.835 24.8144C1.41 26.4156 0.625 28.4794 0.625 30.625C0.625 33.0262 1.57813 35.2656 3.30875 36.9313C4.955 38.515 7.09625 39.3756 9.37125 39.3756C9.48812 39.3756 9.60437 39.3731 9.72188 39.3688C11.9462 39.2831 13.9694 38.3438 15.4737 36.8756H33.75C35.4731 36.8756 36.875 35.4738 36.875 33.7506V21.875H38.125C38.8144 21.875 39.375 21.3144 39.375 20.625V19.375C39.375 18.6856 38.8144 18.125 38.125 18.125ZM30.5275 10H32.3394C32.0487 11.4244 30.7869 12.5 29.2775 12.5H27.4656C27.7556 11.0756 29.0181 10 30.5275 10ZM21.1987 14.9875C22.2169 13.8562 23.9013 13.4831 25.295 14.0794C25.37 14.1112 25.4494 14.1362 25.5275 14.1631V15.4975C24.9069 15.2662 24.3175 14.7794 24.0938 14.5569L23.2106 15.4419C23.3569 15.5888 24.6856 16.875 26.1525 16.875C27.6194 16.875 28.9481 15.5888 29.0944 15.4419L28.2113 14.5569C27.9875 14.7788 27.3981 15.2656 26.7775 15.4975V13.75H29.2775C29.4894 13.75 29.6956 13.73 29.8994 13.7006C30.775 13.7631 31.7013 14.2531 32.3837 15.0194C33.1806 15.9144 33.7412 16.9775 34.0369 18.125H19.5181C19.8169 16.9638 20.3875 15.8894 21.1987 14.9875ZM17.8844 4.03312C17.8931 4.00938 17.9025 3.98625 17.9206 3.95125C18.0025 3.7875 18.1425 3.66562 18.3169 3.6075C18.4919 3.54937 18.6762 3.56312 18.84 3.645L18.9963 3.72312C19.3344 3.89187 19.4719 4.30437 19.3037 4.64C19.29 4.66812 19.2731 4.69625 19.2569 4.72062L17.1181 7.86812C16.95 7.76 16.7769 7.66 16.5988 7.56813L17.8844 4.03312ZM13.125 2.44062C13.125 2.12875 13.3788 1.875 13.6906 1.875H13.8088C14.1206 1.875 14.3744 2.12875 14.3713 2.49687L13.9325 6.88438C13.8719 6.8825 13.8119 6.875 13.75 6.875C13.6881 6.875 13.6281 6.8825 13.5669 6.88438L13.125 2.44062ZM8.24438 4.7225C8.22687 4.69625 8.21 4.66875 8.1975 4.6425C8.02813 4.30437 8.16563 3.89187 8.50375 3.72312L8.66 3.645C8.82312 3.56375 9.00875 3.54937 9.18312 3.6075C9.35687 3.66562 9.4975 3.7875 9.58562 3.96312C9.5975 3.98563 9.60687 4.00875 9.61625 4.03375L10.9019 7.56938C10.7238 7.66125 10.5506 7.76125 10.3831 7.86937L8.24438 4.7225ZM13.75 8.125C16.5069 8.125 18.75 10.3681 18.75 13.17C18.75 13.5119 18.7144 13.855 18.645 14.19L17.825 18.125H10.8638C11.3031 17.7406 11.8713 17.5 12.5 17.5V16.25C11.3188 16.25 10.265 16.8 9.57687 17.6562L8.85437 14.19C8.78562 13.855 8.75 13.5119 8.75 13.125C8.75 10.3681 10.9931 8.125 13.75 8.125ZM7.5 19.375H8.80625C8.77188 19.5788 8.75 19.7869 8.75 20V20.6944C8.39125 20.3275 7.96812 20.0269 7.5 19.8038V19.375ZM5.625 20.625C7.13438 20.625 8.39687 21.7006 8.68688 23.125H6.875C5.36562 23.125 4.10312 22.0494 3.81312 20.625H5.625ZM9.67375 38.1194C7.6 38.1938 5.65875 37.4569 4.17563 36.03C2.6925 34.6025 1.875 32.6831 1.875 30.625C1.875 28.7856 2.5475 27.0175 3.76812 25.6444C4.45062 24.8775 5.37687 24.3875 6.25313 24.3256C6.45687 24.355 6.66313 24.375 6.875 24.375H8.75V26.1225C8.12937 25.8913 7.54 25.4044 7.31625 25.1819L6.43313 26.0669C6.57938 26.2138 7.90812 27.5 9.375 27.5C10.8419 27.5 12.1706 26.2138 12.3169 26.0669L11.4338 25.1819C11.21 25.4037 10.6206 25.8906 10 26.1225V24.9456C10.2994 24.8975 10.5894 24.8194 10.8575 24.7044C12.2506 24.1069 13.9356 24.4819 14.9531 25.6125C16.275 27.0819 16.955 28.9831 16.8675 30.9656C16.6969 34.8281 13.5363 37.97 9.67375 38.1194ZM18.115 30.625C18.115 29.3113 17.8344 28.0356 17.2825 26.875H35.625V30.625H18.115ZM33.75 35.625H16.5394C17.3094 34.5288 17.8356 33.2519 18.035 31.875H35.625V33.75C35.625 34.7837 34.7837 35.625 33.75 35.625ZM38.125 20.625H35.625V25.625H16.5469C16.3419 25.3319 16.125 25.0463 15.8825 24.7769C14.4906 23.23 12.2725 22.74 10.3663 23.5556C10.2519 23.6044 10.1262 23.6362 10.0006 23.6675V21.875H34.3756V20.625H10V20C10 19.7831 10.0363 19.5763 10.0887 19.375H38.125V20.625Z" fill="black"/>
<path d="M4.375 30.625H3.125C3.125 34.0712 5.92875 36.875 9.375 36.875V35.625C6.61813 35.625 4.375 33.3819 4.375 30.625Z" fill="black"/>
<path d="M16.875 10.625H15.625V11.875H16.875V10.625Z" fill="black"/>
<path d="M16.875 13.125H15.625V14.375H16.875V13.125Z" fill="black"/>
<path d="M16.875 15.625H15.625V16.875H16.875V15.625Z" fill="black"/>
</svg>
