<svg width="29" height="33" viewBox="0 0 29 33" fill="none" xmlns="http://www.w3.org/2000/svg">
<path d="M19.7135 13.352C21.5661 15.2068 23.0772 18.24 22.2128 20.039C19.8947 24.8608 2.60438 33.3117 1.13245 31.8502C-0.334269 30.39 8.16096 13.1664 13.0018 10.8574C14.8114 10.0007 17.8569 11.5193 19.7187 13.3494L19.7122 13.3676V13.352H19.7135ZM28.8762 11.3194C28.5751 10.2097 27.8059 9.09088 26.6599 8.95719C24.5608 8.71578 21.248 12.4136 21.4827 13.291C21.7187 14.1866 26.3926 15.7246 28.1318 14.4786C29.0327 13.8374 29.15 12.4538 28.8567 11.3454L28.8762 11.3194ZM22.3692 1.07223C23.9311 1.49276 25.5073 2.56226 25.6951 4.16392C26.0354 7.09595 20.8295 11.7166 19.5935 11.3856C18.3576 11.0599 16.1803 4.52734 17.9391 2.08981C18.8452 0.828219 20.8086 0.654296 22.3705 1.06704V1.07223H22.3692Z" fill="white"/>
</svg>
