<svg width="40" height="40" viewBox="0 0 40 40" fill="none" xmlns="http://www.w3.org/2000/svg">
<path d="M37.0443 29.1323C36.1641 28.3876 34.5532 27.5 31.875 27.5C30.8507 27.5 29.9587 27.7199 29.2147 28.1541C28.5268 27.4983 27.7129 27.073 26.875 26.9299V9.375C26.8749 9.3001 26.8612 9.22583 26.8347 9.15578H26.8353L25 4.26164V1.875C25 1.70924 24.9342 1.55027 24.817 1.43306C24.6998 1.31585 24.5408 1.25 24.375 1.25H13.125C12.9593 1.25 12.8003 1.31585 12.6831 1.43306C12.5659 1.55027 12.5 1.70924 12.5 1.875V4.26164L10.6648 9.15555H10.6654C10.6388 9.22567 10.6251 9.30002 10.625 9.375V20.625H1.87504C1.78876 20.625 1.70341 20.6429 1.62437 20.6775C1.54533 20.7121 1.47431 20.7626 1.41579 20.826C1.35726 20.8894 1.31249 20.9643 1.2843 21.0458C1.25611 21.1273 1.24511 21.2138 1.25199 21.2998L2.31793 34.6241C2.38424 35.4059 2.7407 36.1346 3.31718 36.6668C3.89366 37.199 4.64843 37.4962 5.43301 37.5H10.8171C11.301 37.4983 11.778 37.3846 12.2106 37.1677C12.6432 36.9509 13.0198 36.6367 13.3107 36.25H21.8135C22.2544 37.0711 22.9438 37.7317 23.783 38.1371C24.553 38.5129 25.3937 38.7218 26.25 38.75C27.1064 38.7218 27.9471 38.5129 28.7171 38.1371C29.1946 37.9014 29.6282 37.5855 29.9989 37.2031C30.6033 37.4065 31.2375 37.5068 31.875 37.5C34.5532 37.5 36.1641 36.6124 37.0443 35.8677C38.1283 34.9505 38.75 33.723 38.75 32.5C38.75 31.277 38.1283 30.0495 37.0443 29.1323ZM23.4732 5L22.0669 8.75H12.1519L13.5582 5H23.4732ZM24.375 6.155L25.3482 8.75H23.4019L24.375 6.155ZM21.875 10V13.75H11.875V10H21.875ZM23.125 10H25.625V26.9297C24.7211 27.0841 23.845 27.5673 23.125 28.3138V10ZM23.75 2.5V3.75H13.75V2.5H23.75ZM11.875 15H21.875V30.2666C21.7445 30.5867 21.6357 30.9153 21.5494 31.25H14.2021L14.9981 21.2998C15.005 21.2138 14.994 21.1273 14.9658 21.0458C14.9376 20.9643 14.8928 20.8894 14.8343 20.826C14.7758 20.7626 14.7047 20.7121 14.6257 20.6775C14.5467 20.6429 14.4613 20.625 14.375 20.625H11.875V15ZM13.698 21.875L13.498 24.375H2.75207L2.55207 21.875H13.698ZM10.8171 36.25H5.43301C4.96227 36.2478 4.50941 36.0694 4.16353 35.7501C3.81765 35.4308 3.60379 34.9936 3.56402 34.5245L2.85207 25.625H13.398L12.6861 34.5245C12.6463 34.9936 12.4324 35.4308 12.0865 35.7501C11.7407 36.0694 11.2878 36.2478 10.8171 36.25ZM13.8778 35C13.9037 34.876 13.922 34.7504 13.9325 34.6241L14.1021 32.5H21.3196C21.2726 32.915 21.2494 33.3324 21.25 33.75C21.248 34.1697 21.2889 34.5886 21.3721 35H13.8778ZM28.193 37.0014C27.587 37.3007 26.9253 37.4705 26.25 37.5C26.0969 37.5 22.5 37.4573 22.5 33.75C22.5 29.6521 24.8002 28.125 26.25 28.125C27.6999 28.125 30 29.6521 30 33.75C30 35.293 29.3921 36.3869 28.193 37.0014ZM31.875 36.25C31.4967 36.2526 31.1195 36.2101 30.7512 36.1234C31.0554 35.4984 31.25 34.7194 31.25 33.75C31.25 31.558 30.6553 30.0811 30.0313 29.1345C30.5479 28.8794 31.1652 28.75 31.875 28.75C35.9729 28.75 37.5 31.0502 37.5 32.5C37.5 33.9498 35.9729 36.25 31.875 36.25Z" fill="black"/>
</svg>
