<svg width="40" height="40" viewBox="0 0 40 40" fill="none" xmlns="http://www.w3.org/2000/svg">
<g clip-path="url(#clip0_300_2419)">
<path d="M31.6902 32.2451C34.5876 30.5505 36.356 28.0685 36.356 24.7399C36.356 17.6754 28.3923 9.47412 18.5687 9.47412C8.74492 9.47412 0.78125 17.6753 0.78125 24.7399C0.78125 28.0685 2.54969 30.5505 5.44711 32.2451H31.6902Z" fill="#FA962A"/>
<path d="M36.975 8.68041C37.1218 8.08572 36.963 7.43096 36.4982 6.96627C35.7918 6.25994 34.6465 6.25994 33.9402 6.96627C33.2486 7.65791 33.2346 8.7701 33.8974 9.47924L31.5796 11.7971L33.8583 14.0758L36.1762 11.758C36.8853 12.4208 37.9975 12.4068 38.6891 11.7152C39.3955 11.0088 39.3955 9.86361 38.6891 9.15721C38.2244 8.69252 37.5697 8.53361 36.975 8.68041Z" fill="white"/>
<path d="M39.2188 28.5625H0.78125C0.78125 31.3239 3.01984 33.5625 5.78125 33.5625H34.2188C36.9802 33.5625 39.2188 31.3239 39.2188 28.5625Z" fill="#B5DCFF"/>
<path d="M34.1947 15.7802L31.9645 20.8351C30.427 24.3201 25.8687 25.1729 23.1753 22.4794C20.4819 19.7861 21.3347 15.2277 24.8196 13.6902L29.8745 11.46C31.1119 10.9141 32.5575 11.1846 33.5138 12.1409C34.4701 13.0972 34.7406 14.5429 34.1947 15.7802Z" fill="#FA962A"/>
<path d="M15.0537 28.5626H9.48366C7.76702 28.5626 6.81303 26.5765 7.88608 25.2365L9.73561 22.927C10.6597 21.7731 10.863 20.2001 10.2626 18.8491L11.0474 19.1819C13.0022 20.0105 14.0245 22.1735 13.424 24.2099H15.0537C16.2587 24.2099 17.2343 25.189 17.23 26.394C17.2258 27.5929 16.2527 28.5626 15.0537 28.5626Z" fill="#FA962A"/>
<path d="M31.8297 28.5627C33.0724 28.5627 34.0797 27.5553 34.0797 26.3126C34.0797 25.0699 33.0724 24.0625 31.8297 24.0625C30.587 24.0625 29.5796 25.0699 29.5796 26.3126C29.5796 27.5553 30.587 28.5627 31.8297 28.5627Z" fill="#E91E63"/>
<path d="M27.3297 28.5627C28.5724 28.5627 29.5797 27.5553 29.5797 26.3126C29.5797 25.0699 28.5724 24.0625 27.3297 24.0625C26.087 24.0625 25.0796 25.0699 25.0796 26.3126C25.0796 27.5553 26.087 28.5627 27.3297 28.5627Z" fill="#E91E63"/>
<path d="M39.219 23.3525H38.1479C35.9013 23.3525 34.0801 25.1738 34.0801 27.4204V28.4914H35.1512C37.3978 28.4914 39.219 26.6702 39.219 24.4236V23.3525Z" fill="#3BBC56"/>
<path d="M39.2188 22.5712H38.1477C37.7322 22.5712 37.3288 22.6239 36.9437 22.7226C36.5887 20.8223 35.7489 18.8921 34.48 17.0697L34.9095 16.0964C35.2273 15.376 35.318 14.5903 35.2011 13.838L36.2732 12.7658C37.2423 13.2431 38.4356 13.0736 39.2412 12.2679C39.7305 11.7788 39.9999 11.1284 39.9999 10.4365C39.9999 9.74472 39.7305 9.09425 39.2413 8.60511C38.8429 8.20659 38.3259 7.95495 37.7804 7.87511C37.7006 7.32964 37.4489 6.81269 37.0504 6.41409C36.0404 5.40425 34.3973 5.40433 33.3875 6.41409C32.5819 7.21979 32.4124 8.41308 32.8896 9.38222L31.8174 10.4544C31.0652 10.3375 30.2795 10.4282 29.5591 10.7461L28.2096 11.3415C25.2289 9.60792 21.9027 8.69308 18.5685 8.69308C16.1067 8.69308 13.6769 9.18128 11.3466 10.1441C9.18367 11.0378 7.20477 12.2948 5.46477 13.8806C2.04289 16.9989 0 21.0585 0 24.74C0 25.8292 0.177266 26.8621 0.526328 27.825C0.220234 27.9307 0 28.2207 0 28.5628C0 31.7506 2.59344 34.3439 5.78125 34.3439H16.4844C16.9159 34.3439 17.2656 33.9942 17.2656 33.5627C17.2656 33.1312 16.9159 32.7814 16.4844 32.7814H5.78125C3.72195 32.7814 2.0025 31.2982 1.635 29.3439H1.70695C1.7075 29.3439 1.70812 29.3441 1.70867 29.3441C1.7093 29.3441 1.70992 29.3439 1.71055 29.3439L38.365 29.344C37.9975 31.2982 36.278 32.7814 34.2188 32.7814H23.5156C23.0842 32.7814 22.7344 33.1312 22.7344 33.5627C22.7344 33.9942 23.0842 34.3439 23.5156 34.3439H34.2188C37.4066 34.3439 40 31.7505 40 28.5627C40 28.3555 39.9177 28.1567 39.7712 28.0103C39.6246 27.8638 39.4259 27.7814 39.2188 27.7814H38.6441C39.4827 26.9094 40 25.7261 40 24.4235V23.3525C40 22.921 39.6502 22.5712 39.2188 22.5712ZM38.4375 24.1337V24.4235C38.4375 26.2357 36.9631 27.71 35.1509 27.71H34.8611V27.4203C34.8611 25.608 36.3355 24.1337 38.1477 24.1337H38.4375ZM35.4702 23.3801C35.0079 23.6875 34.6009 24.0714 34.2682 24.5145C33.7156 23.7671 32.8284 23.2814 31.8298 23.2814C31.538 23.2814 31.256 23.3237 30.9888 23.401C31.7068 22.7994 32.2897 22.0344 32.6793 21.1513L33.7281 18.774C34.6509 20.2889 35.2438 21.8553 35.4702 23.3801ZM31.8298 24.8439C32.6397 24.8439 33.2986 25.5028 33.2986 26.3127C33.2986 27.1225 32.6397 27.7815 31.8298 27.7815C31.0198 27.7815 30.3609 27.1226 30.3609 26.3127C30.3609 25.5028 31.0198 24.8439 31.8298 24.8439ZM27.3296 24.8439C28.1395 24.8439 28.7984 25.5028 28.7984 26.3127C28.7984 27.1225 28.1395 27.7815 27.3296 27.7815C26.5198 27.7815 25.8609 27.1226 25.8609 26.3127C25.8609 25.5028 26.5198 24.8439 27.3296 24.8439ZM34.468 8.94597C34.088 8.53948 34.0987 7.91261 34.4925 7.51894C34.8931 7.11831 35.545 7.11831 35.9456 7.51886C36.2024 7.77565 36.3036 8.13995 36.2164 8.49331C36.1508 8.75894 36.2289 9.03956 36.4224 9.233C36.6159 9.42651 36.8965 9.50472 37.1621 9.43909C37.5155 9.35183 37.8798 9.45308 38.1366 9.70987C38.3307 9.90394 38.4377 10.162 38.4377 10.4364C38.4377 10.7109 38.3308 10.9689 38.1366 11.163C37.743 11.5567 37.1162 11.5675 36.7095 11.1875C36.4019 10.8999 35.9216 10.9079 35.6237 11.2057L34.591 12.2384C34.4405 12.0068 34.2658 11.7887 34.0663 11.5892C33.8669 11.3897 33.6488 11.215 33.4171 11.0646L34.4498 10.0319C34.7476 9.73409 34.7556 9.2537 34.468 8.94597ZM30.1899 12.1756C30.51 12.0344 30.8509 11.9659 31.19 11.9659C31.8416 11.9659 32.4862 12.2188 32.9615 12.6941C33.6841 13.4167 33.8925 14.5306 33.48 15.4657L31.2498 20.5206C30.6227 21.9421 29.387 22.9213 27.8598 23.207C26.3325 23.4926 24.8263 23.0264 23.7277 21.9278C22.6291 20.8292 22.1628 19.3232 22.4485 17.7959C22.7342 16.2686 23.7134 15.033 25.1349 14.4058L30.1899 12.1756ZM6.51727 15.0353C9.89969 11.953 14.1796 10.2555 18.5687 10.2555C21.2514 10.2555 23.9319 10.9035 26.4009 12.1394L24.5043 12.9762C22.6317 13.8024 21.2891 15.4967 20.9127 17.5085C20.5363 19.5203 21.1756 21.5854 22.6229 23.0326C23.2801 23.6897 24.0647 24.18 24.9137 24.4846C24.5279 24.9932 24.2984 25.6265 24.2984 26.3127C24.2984 26.8453 24.437 27.346 24.6793 27.7815H17.6602C17.8825 27.3684 18.0098 26.8971 18.0116 26.3968C18.0144 25.6049 17.708 24.8597 17.1491 24.2988C16.59 23.7378 15.8459 23.4288 15.054 23.4288H14.3608C14.532 21.3365 13.3545 19.3114 11.3526 18.4627L10.5677 18.13C10.2727 18.005 9.93062 18.0728 9.7057 18.3017C9.48078 18.5305 9.41867 18.8735 9.54898 19.1666C10.0327 20.2551 9.8707 21.5089 9.12609 22.4388L7.27656 24.7483C6.5907 25.6048 6.45969 26.7514 6.93477 27.7404C6.94148 27.7545 6.94938 27.7677 6.95633 27.7815H2.19359C1.77477 26.855 1.5625 25.8342 1.5625 24.74C1.5625 21.4907 3.41477 17.8627 6.51727 15.0353ZM11.3831 20.258C12.5454 21.0814 13.0927 22.5721 12.6748 23.989C12.6052 24.2253 12.651 24.4806 12.7985 24.6778C12.946 24.8751 13.1779 24.9913 13.4242 24.9913H15.0538C15.4274 24.9913 15.7784 25.1371 16.042 25.4017C16.3058 25.6663 16.4502 26.0178 16.4489 26.3913C16.4463 27.1578 15.8204 27.7815 15.0538 27.7815H9.48383C8.98531 27.7815 8.55891 27.5133 8.34305 27.0639C8.12719 26.6146 8.18445 26.1141 8.49602 25.725L10.3455 23.4154C11.0763 22.5029 11.4312 21.3811 11.3831 20.258Z" fill="black"/>
<path d="M20 32.7817C19.7945 32.7817 19.593 32.8645 19.4477 33.0099C19.3023 33.156 19.2188 33.3567 19.2188 33.563C19.2188 33.7685 19.3023 33.97 19.4477 34.1153C19.593 34.2606 19.7945 34.3442 20 34.3442C20.2055 34.3442 20.407 34.2606 20.5523 34.1153C20.6976 33.9692 20.7812 33.7685 20.7812 33.563C20.7812 33.3575 20.6977 33.156 20.5523 33.0099C20.407 32.8645 20.2055 32.7817 20 32.7817Z" fill="black"/>
</g>
<defs>
<clipPath id="clip0_300_2419">
<rect width="40" height="40" fill="white"/>
</clipPath>
</defs>
</svg>
