<svg width="40" height="40" viewBox="0 0 40 40" fill="none" xmlns="http://www.w3.org/2000/svg">
<g clip-path="url(#clip0_300_3034)">
<path d="M35.8044 33.3157L35.7505 32.7013C35.358 28.2747 31.6597 24.8741 27.216 24.8537C27.1659 24.8537 27.1165 24.859 27.0658 24.8597C25.1278 23.1198 22.6036 22.1768 19.9999 22.2197C17.4271 22.2197 14.9431 23.1626 13.0195 24.8715C12.9306 24.8683 12.8431 24.8537 12.7561 24.8537C8.30313 24.8794 4.60359 28.2945 4.22297 32.7316L4.19531 33.4725L4.85383 33.4969V34.073H35.1459V33.3737L35.8044 33.3157Z" fill="#FA962A"/>
<path d="M35.7478 32.7013C35.3553 28.2754 31.659 24.8754 27.216 24.8537C27.1659 24.8537 27.1165 24.859 27.0658 24.8597C25.1278 23.1198 22.6036 22.1768 19.9999 22.2197C17.4271 22.2197 14.9431 23.1626 13.0195 24.8715C12.9306 24.8683 12.8431 24.8537 12.7561 24.8537C8.30313 24.8794 4.60359 28.2945 4.22297 32.7316L4.19531 33.4725L5.51235 33.5213L5.53735 32.8107C5.86922 29.0663 8.99657 26.1892 12.7561 26.1708C13.551 26.1754 14.3392 26.3117 15.0892 26.5738C14.6942 26.8899 14.3306 27.2423 14.0027 27.6275C10.8187 26.9275 7.67032 28.9406 6.97032 32.1245C6.92751 32.3201 6.89391 32.5184 6.87157 32.7172L6.83071 33.3757L8.14774 33.4574L8.18462 32.8403C8.50009 30.3142 10.8042 28.5223 13.3303 28.8378C15.4231 29.0992 17.0714 30.7475 17.3328 32.8403L17.3717 32.8351L17.4105 33.4574L18.7275 33.3757L18.6828 32.756C18.6729 32.0284 19.2537 31.4304 19.9814 31.4205C20.709 31.4107 21.307 31.9915 21.3168 32.7191L21.2404 33.3329L22.5469 33.4962L22.6293 32.8377C22.6325 32.8106 22.6345 32.783 22.6339 32.756C22.6339 31.3013 21.4545 30.122 19.9998 30.122C19.2932 30.1213 18.6162 30.4084 18.125 30.9161C17.9353 30.5072 17.6996 30.1206 17.4223 29.765C18.1368 29.1434 19.0528 28.8023 19.9997 28.8048C22.1807 28.8068 23.9489 30.5749 23.9509 32.756H24.0068L23.9924 33.273L25.3094 33.3092L25.3219 32.8535C25.6301 31.8071 26.7286 31.2085 27.7756 31.5167C28.4354 31.711 28.9465 32.2352 29.1249 32.8996L29.2355 33.3935L30.521 33.1064L30.4058 32.5921C29.9579 30.8359 28.1708 29.7756 26.4151 30.2234C25.8732 30.3617 25.3753 30.6363 24.969 31.0216C24.8202 30.5916 24.6167 30.1833 24.3625 29.8059C26.3506 28.2248 29.2435 28.5548 30.8247 30.5422C31.3476 31.2001 31.6808 31.9883 31.7874 32.822L31.8533 33.4805L33.1703 33.3488L33.1005 32.6757C32.814 30.4321 31.2758 28.5461 29.1355 27.8144C28.9083 27.2679 28.6225 26.7463 28.2847 26.2603C31.6004 26.768 34.141 29.4745 34.4387 32.8159L34.4933 33.433L35.8044 33.3158L35.7478 32.7013ZM19.9998 27.4878C18.7064 27.4851 17.4585 27.9626 16.4971 28.8279C16.1474 28.5401 15.7668 28.2938 15.3612 28.0923C17.9156 25.5333 22.0603 25.5294 24.6194 28.0837C24.6221 28.0864 24.6254 28.0897 24.628 28.0923C24.2224 28.2899 23.8404 28.5329 23.4894 28.8167C22.5286 27.96 21.2866 27.4872 19.9998 27.4878ZM27.2159 27.4878C26.803 27.4884 26.3907 27.5326 25.9871 27.6195C23.6315 24.8504 19.683 24.0602 16.4438 25.7098C15.9347 25.4622 15.402 25.2653 14.8541 25.1231C16.372 24.0919 18.1645 23.5394 19.9998 23.5367C23.2668 23.5367 26.105 25.0665 27.5109 27.5017C27.4129 27.4964 27.3154 27.4878 27.2159 27.4878Z" fill="#FA962A"/>
<path d="M12.7562 30.1216C11.2469 30.1222 9.93107 31.1489 9.56231 32.6121L9.39771 33.353L10.6832 33.6401L10.8432 32.9197C11.1138 31.8628 12.1899 31.2253 13.2468 31.496C13.954 31.6771 14.5033 32.2328 14.6765 32.9421L14.8833 33.6421L16.1457 33.2687L15.9481 32.5917C15.5727 31.1364 14.259 30.1196 12.7562 30.1216Z" fill="#FA962A"/>
<path d="M0.902588 32.7559H39.097C39.097 36.3929 36.1488 39.3411 32.5117 39.3411H7.48784C3.8508 39.3411 0.902588 36.3929 0.902588 32.7559Z" fill="#E5E5E5"/>
<path d="M28.6025 32.7559C25.0465 36.0656 20.3709 38.0959 15.9727 39.3411H32.5121C36.1492 39.3411 39.0974 36.3929 39.0974 32.7559H28.6025Z" fill="#E5E5E5"/>
<path d="M9.41513 24.1753C8.66505 22.6054 8.73286 20.7674 9.59559 19.2568C10.2929 18.03 10.2929 16.5272 9.59559 15.3004C8.66841 13.6686 8.66841 11.6693 9.59559 10.0375C9.83333 9.45795 10.0144 8.8574 10.1369 8.24365L11.4224 8.53342C11.2729 9.27623 11.0444 10.0012 10.7401 10.696C10.0434 11.9228 10.0434 13.4249 10.7401 14.6518C11.6686 16.283 11.6686 18.2835 10.7401 19.9147C10.0922 21.05 10.0408 22.4302 10.6038 23.6103L9.41513 24.1753Z" fill="#FA962A"/>
<path d="M36.179 2.55004L16.7078 3.12301L15.504 1.91926C15.0101 1.42535 14.3397 1.14746 13.641 1.14746H7.53455C7.19143 1.75332 6.98861 2.42832 6.94189 3.12301H12.0982V4.44005H7.03799C7.13541 4.90169 7.30268 5.34614 7.53455 5.75708H12.0982V7.07411H8.03377C8.17401 7.72536 8.17401 8.39841 8.03377 9.04966H13.6425C14.3411 9.04966 15.0115 8.77177 15.5054 8.27787L16.7079 7.07411L36.0962 8.21466C37.6588 8.31677 39.0088 7.13333 39.1109 5.57067C39.2129 4.00801 38.0295 2.65801 36.4669 2.55598C36.3714 2.54942 36.2752 2.54809 36.1791 2.55199V2.55004H36.179Z" fill="#E5E5E5"/>
<path d="M4.1957 3.12305H2.87866V4.44008H4.1957V3.12305Z" fill="#E5E5E5"/>
<path d="M4.85421 5.75732H2.87866V7.07436H4.85421V5.75732Z" fill="#E5E5E5"/>
<path d="M5.51273 8.39062H2.87866V9.70766H5.51273V8.39062Z" fill="#E5E5E5"/>
<path d="M4.80812 0.48877H2.87866V1.8058H4.80812V0.48877Z" fill="#E5E5E5"/>
<path d="M4.72814 25.8588C4.66885 25.6948 4.62017 25.5427 4.57205 25.3945C4.48119 25.085 4.36392 24.7834 4.22103 24.4943C3.30236 22.8644 3.31095 20.871 4.24213 19.2485C4.94674 18.0269 4.94478 16.5215 4.23556 15.3026C3.30767 13.6708 3.30767 11.6715 4.23556 10.0397C4.94478 8.82008 4.94674 7.31407 4.2408 6.0925C3.30705 4.45875 3.30509 2.45359 4.23627 0.817803L4.48517 0.350224C4.65572 0.0288956 5.05416 -0.0936046 5.37549 0.0769426C5.69619 0.24749 5.81869 0.645928 5.64814 0.967257L5.38932 1.45585C4.68533 2.68531 4.68205 4.19468 5.38072 5.42742C6.30791 7.05922 6.30791 9.05852 5.38072 10.6903C4.67416 11.9145 4.67416 13.4225 5.38072 14.6467C6.30791 16.2785 6.30791 18.2778 5.38072 19.9096C4.68338 21.1364 4.68338 22.6393 5.38072 23.8661C5.56182 24.2256 5.71127 24.6003 5.82721 24.9855C5.87065 25.1172 5.91479 25.2588 5.96877 25.4082L4.72814 25.8588Z" fill="#FA962A"/>
<path d="M7.20028 25.012C7.13247 24.8441 7.05278 24.6802 6.96325 24.5227C6.03536 22.8909 6.03536 20.891 6.96325 19.2591C7.66982 18.0349 7.66982 16.5269 6.96325 15.3027C6.03536 13.6709 6.03536 11.6716 6.96325 10.0398C7.6606 8.81302 7.6606 7.3102 6.96325 6.0834C6.07224 4.44434 6.05646 2.46808 6.92177 0.815189L7.06536 0.544564C7.23591 0.223235 7.63435 0.10136 7.95568 0.271907C8.277 0.442454 8.39888 0.840892 8.22833 1.16222L8.07028 1.45855C7.42427 2.71504 7.44138 4.20988 8.117 5.45121C9.03693 7.07911 9.03302 9.07114 8.10646 10.6957C7.39989 11.9199 7.39989 13.4279 8.10646 14.6521C9.03497 16.2839 9.03497 18.2832 8.10646 19.915C7.40974 21.1418 7.40974 22.6446 8.10646 23.8714C8.227 24.0808 8.33232 24.2981 8.42193 24.522L7.20028 25.012Z" fill="#FA962A"/>
<path d="M36.0957 8.21421C37.6565 8.31429 39.0025 7.1303 39.1032 5.5696C39.1941 4.15248 38.2214 2.88678 36.8281 2.61084C32.6768 4.64241 28.3437 6.27819 23.8855 7.49577L36.0957 8.21421Z" fill="#E5E5E5"/>
<path d="M39.0973 32.0975H35.6684C35.0006 27.9409 31.4255 24.8774 27.2162 24.8537C27.1662 24.8537 27.1168 24.859 27.0661 24.8597C25.128 23.1198 22.6039 22.1768 20.0001 22.2197C17.4273 22.2197 14.9433 23.1626 13.0198 24.8715C12.9309 24.8683 12.8433 24.8537 12.7564 24.8537C8.54706 24.8774 4.97197 27.9415 4.30486 32.0975H0.902902C0.539385 32.0975 0.244385 32.3925 0.244385 32.756C0.248994 36.7545 3.48963 39.9951 7.48815 39.9998H32.5121C36.5106 39.9951 39.7513 36.7545 39.7559 32.756C39.7558 32.3918 39.4608 32.0975 39.0973 32.0975ZM34.3387 32.0975H32.9947C32.5344 30.0976 31.0737 28.4769 29.1324 27.8125C28.9052 27.2659 28.6194 26.7444 28.2816 26.2583C31.3326 26.7272 33.758 29.0656 34.3387 32.0975ZM15.7724 32.0975C15.0428 30.4321 13.1014 29.6728 11.4353 30.4025C10.6774 30.7344 10.0722 31.3396 9.74034 32.0975H8.34424C9.07386 29.6609 11.6408 28.2767 14.0774 29.0064C15.5624 29.4509 16.7233 30.6126 17.1685 32.0975H15.7724ZM14.2268 32.0975H11.2859C12.0109 31.2855 13.2568 31.2144 14.0688 31.9394C14.1241 31.9888 14.1768 32.0415 14.2268 32.0975ZM20 26.1708C21.7359 26.1767 23.3994 26.8675 24.6282 28.0929C24.2226 28.2905 23.8406 28.5335 23.4896 28.8173C21.4976 27.038 18.4854 27.0413 16.4974 28.8252C16.1477 28.5374 15.7671 28.2911 15.3614 28.0897C16.5915 26.8602 18.2603 26.1694 20 26.1708ZM22.5407 32.0975C22.1837 30.6942 20.7561 29.846 19.3528 30.203C18.8859 30.3222 18.4605 30.5671 18.1233 30.9122C17.9343 30.5045 17.6993 30.1193 17.4226 29.765C18.1372 29.1433 19.0531 28.8022 20 28.8048C21.9262 28.8081 23.5693 30.1989 23.8919 32.0974H22.5407V32.0975ZM21.134 32.0975H18.8661C19.2236 31.4712 20.0211 31.2533 20.6474 31.6108C20.8502 31.7267 21.0182 31.8946 21.134 32.0975ZM30.2329 32.0975C29.5137 30.436 27.5837 29.6722 25.9222 30.3919C25.5698 30.5447 25.2472 30.7574 24.9687 31.0222C24.8198 30.5922 24.6163 30.1839 24.3622 29.8065C26.3476 28.2254 29.2385 28.5527 30.8197 30.5382C31.1884 31.0012 31.4644 31.5306 31.6316 32.0983H30.233V32.0975H30.2329ZM28.6873 32.0975H25.7464C26.4714 31.2855 27.7173 31.2144 28.5293 31.9394C28.5846 31.9888 28.6373 32.0415 28.6873 32.0975ZM20 23.5366C23.267 23.5366 26.1052 25.0664 27.5112 27.5016C27.413 27.4964 27.3136 27.4878 27.2162 27.4878C26.8033 27.4884 26.391 27.5326 25.9873 27.6195C23.6318 24.8504 19.6833 24.0602 16.444 25.7098C15.935 25.4622 15.4022 25.2653 14.8543 25.1231C16.3722 24.0918 18.1647 23.5393 20 23.5366ZM12.7563 26.1708C13.5511 26.1754 14.3394 26.3117 15.0894 26.5738C14.6943 26.8899 14.3308 27.2422 14.0028 27.6275C10.8301 26.9294 7.69026 28.928 6.97838 32.0976H5.6344C6.28565 28.6731 9.27073 26.1892 12.7563 26.1708ZM32.512 38.6827H7.48815C4.4708 38.6787 1.93681 36.4128 1.59767 33.4145H38.4025C38.0634 36.4121 35.5288 38.6787 32.512 38.6827Z" fill="black"/>
<path d="M4.73835 8.39098H2.87866V9.70802H4.39788C4.34718 9.81997 4.29781 9.93192 4.23656 10.0373C3.30804 11.6685 3.30804 13.669 4.23656 15.3002C4.93328 16.527 4.93328 18.0298 4.23656 19.2566C3.31069 20.8773 3.30538 22.8653 4.2214 24.4919C4.36429 24.7809 4.48148 25.0826 4.57242 25.3921C4.62046 25.5403 4.66921 25.6924 4.72851 25.8564L5.96789 25.4106C5.9139 25.2612 5.86976 25.1228 5.82632 24.9879C5.71109 24.602 5.56226 24.2266 5.38117 23.8664C4.68382 22.6396 4.68382 21.1368 5.38117 19.91C6.30906 18.2782 6.30906 16.2789 5.38117 14.6471C4.68382 13.4203 4.68382 11.9175 5.38117 10.6907C6.30906 9.05887 6.30906 7.05957 5.38117 5.42777C4.68578 4.20222 4.68578 2.70214 5.38117 1.47659C5.56289 1.16183 5.45492 0.75878 5.14015 0.57706C5.03937 0.518467 4.92484 0.488154 4.80828 0.488779H2.87866V1.80581H3.80062C3.66429 2.23253 3.58327 2.67503 3.55827 3.12285H2.87866V4.43988H3.63593C3.72288 4.89621 3.86968 5.33879 4.07187 5.75691H2.87866V7.07395H4.63429C4.74163 7.50395 4.77656 7.94911 4.73835 8.39098Z" fill="black"/>
<path d="M36.1593 1.89158L16.9706 2.45596L15.9683 1.45236C15.3526 0.832672 14.5143 0.48564 13.6404 0.488296H7.48783C7.15924 0.488296 6.88065 0.730641 6.83526 1.05595C6.03314 2.6483 6.08057 4.53557 6.96104 6.08573C7.65838 7.31253 7.65838 8.81534 6.96104 10.0421C6.03314 11.6739 6.03314 13.6732 6.96104 15.305C7.65838 16.5318 7.65838 18.0347 6.96104 19.2615C6.03252 20.8933 6.03252 22.8932 6.96104 24.5251C7.05057 24.6825 7.13026 24.8464 7.19807 25.0144L8.41901 24.5218C8.32948 24.2979 8.22409 24.0806 8.10354 23.8712C7.40682 22.6444 7.40682 21.1415 8.10354 19.9147C9.03206 18.2836 9.03206 16.283 8.10354 14.6518C7.40682 13.425 7.40682 11.9222 8.10354 10.6954C8.28268 10.382 8.42948 10.0507 8.54143 9.70761H9.75378C9.70307 9.81894 9.65698 9.93285 9.59573 10.0369C8.66854 11.6687 8.66854 13.668 9.59573 15.2998C10.2931 16.5266 10.2931 18.0294 9.59573 19.2562C8.7337 20.7662 8.66526 22.6029 9.41401 24.1721L10.6027 23.6051C10.0396 22.4251 10.091 21.0448 10.739 19.9095C11.6675 18.2783 11.6675 16.2778 10.739 14.6466C10.0423 13.4198 10.0423 11.9177 10.739 10.6908C10.9128 10.3767 11.0551 10.0454 11.1625 9.703H13.6398C14.5136 9.70566 15.352 9.35863 15.9677 8.73894L16.9634 7.74323L36.0566 8.87128C37.9828 8.97863 39.6318 7.50354 39.7384 5.57737C39.8458 3.65119 38.3707 2.00221 36.4445 1.89556C36.3496 1.89025 36.2541 1.88892 36.1593 1.89158ZM37.7549 6.96745C37.3203 7.38097 36.7323 7.59433 36.1337 7.55683L16.746 6.41495C16.5583 6.4044 16.3746 6.47425 16.2415 6.60659L15.0371 7.81105C14.6657 8.1805 14.1639 8.38855 13.6403 8.39058H8.79167C8.81534 7.94941 8.78377 7.50683 8.69885 7.07354H12.0975V5.75643H8.26166C8.20901 5.64776 8.1662 5.53518 8.10557 5.42713C7.92971 5.11698 7.79674 4.7851 7.71049 4.43932H12.0976V3.12236H7.59909C7.63534 2.66729 7.74987 2.2215 7.9369 1.80533H13.6404C14.1639 1.80666 14.6657 2.01471 15.0371 2.38353L16.2416 3.58799C16.3687 3.71776 16.5445 3.78815 16.7263 3.78096L36.1995 3.20807C37.4007 3.17252 38.4043 4.11682 38.4398 5.31862C38.4583 5.94089 38.21 6.54081 37.757 6.96753C37.7569 6.96745 37.7549 6.96745 37.7549 6.96745Z" fill="black"/>
</g>
<defs>
<clipPath id="clip0_300_3034">
<rect width="40" height="40" fill="white"/>
</clipPath>
</defs>
</svg>
