<svg width="40" height="40" viewBox="0 0 40 40" fill="none" xmlns="http://www.w3.org/2000/svg">
<g clip-path="url(#clip0_300_2961)">
<path d="M39.3334 32.0005H0.666641C0.298672 32.0005 0 32.2985 0 32.6671C0 36.7105 3.29 40.0005 7.33336 40.0005H32.6667C36.71 40.0005 40 36.7105 40 32.6671C40 32.2985 39.702 32.0005 39.3334 32.0005ZM32.6666 38.6671H7.33336C4.25 38.6671 1.70266 36.3298 1.37 33.3338H38.6293C38.2966 36.3299 35.75 38.6671 32.6666 38.6671Z" fill="black"/>
<path d="M20.0008 22.0005C19.9975 22.0005 19.9948 22.0005 19.9922 22.0005C17.3648 22.0005 14.8415 22.9678 12.8882 24.7252L13.7795 25.7159C15.4882 24.1799 17.6942 23.3338 19.9929 23.3338C19.9949 23.3338 19.9982 23.3338 20.0002 23.3338C23.6949 23.3338 26.8536 25.2631 28.0475 28.2478L29.2862 27.7531C27.8881 24.2585 24.2428 22.0005 20.0008 22.0005Z" fill="black"/>
<path d="M25.0961 26.5023C21.6948 23.6937 16.6428 24.1757 13.8335 27.5757L14.8615 28.4244C17.2022 25.591 21.4128 25.1883 24.2461 27.5297C24.7061 27.9104 25.1128 28.3504 25.4548 28.8363L26.5468 28.0703C26.1361 27.487 25.6481 26.9597 25.0961 26.5023Z" fill="black"/>
<path d="M23.7326 28.8572C21.6313 26.7979 18.2486 26.8339 16.1899 28.9332L17.1426 29.8666C18.6866 28.2919 21.2246 28.2659 22.7992 29.8086C23.5626 30.556 23.9999 31.5973 23.9999 32.6666H25.3333C25.3333 31.2412 24.7499 29.8525 23.7326 28.8572Z" fill="black"/>
<path d="M27.3627 24.6665C27.3527 24.6665 27.3434 24.6665 27.3334 24.6665H26.6667V25.9999H27.336C31.1207 26.0145 34.3527 28.9399 34.6694 32.7219L35.9974 32.6112C35.6247 28.1506 31.8334 24.6665 27.3627 24.6665Z" fill="black"/>
<path d="M31.3086 28.8632C30.1139 27.7953 28.5739 27.2546 26.9746 27.3453C25.3746 27.4339 23.9053 28.1413 22.8367 29.3353L23.83 30.2246C24.6614 29.2959 25.804 28.7453 27.0487 28.6759C28.3 28.6112 29.49 29.0259 30.42 29.8566C31.258 30.6066 31.7974 31.6339 31.9387 32.7506L33.2621 32.5826C33.08 31.1478 32.386 29.8265 31.3086 28.8632Z" fill="black"/>
<path d="M28.13 30.0991C26.3493 29.6418 24.5307 30.7218 24.074 32.5018L25.366 32.8325C25.6394 31.7645 26.7313 31.1172 27.7994 31.3911C28.5067 31.5718 29.0601 32.1245 29.2407 32.8325L30.5327 32.5018C30.23 31.3218 29.31 30.4011 28.13 30.0991Z" fill="black"/>
<path d="M13.3474 24.6812C11.04 24.4932 8.79737 25.2132 7.03269 26.7112C5.26737 28.2092 4.19136 30.3052 4.00269 32.6119L5.33136 32.7212C5.49065 30.7685 6.40136 28.9952 7.89472 27.7285C9.3887 26.4612 11.286 25.8499 13.2387 26.0112C14.3221 26.0992 15.3914 26.4359 16.3314 26.9832L17.0027 25.8306C15.8914 25.1832 14.6274 24.7859 13.3474 24.6812Z" fill="black"/>
<path d="M13.4006 27.3639C10.1213 26.9586 7.1159 29.3013 6.71191 32.5853L8.03527 32.7479C8.34926 30.194 10.6826 28.3786 13.2373 28.6866C15.366 28.9493 17.036 30.6193 17.298 32.7479L18.6227 32.5853C18.2852 29.8479 16.1379 27.7007 13.4006 27.3639Z" fill="black"/>
<path d="M13.5092 30.1151C12.6485 29.8897 11.7499 30.0144 10.9819 30.463C10.2132 30.913 9.66585 31.6357 9.44116 32.497L10.7312 32.8344C10.8665 32.3177 11.1951 31.8837 11.6559 31.6144C12.1166 31.3444 12.6559 31.2704 13.1725 31.4057C13.8712 31.5883 14.4191 32.1357 14.6018 32.835L15.8912 32.497C15.5866 31.3318 14.6739 30.419 13.5092 30.1151Z" fill="black"/>
<path d="M19.9999 30C18.5292 30 17.3333 31.196 17.3333 32.6666H18.6666C18.6666 31.9313 19.2646 31.3333 20 31.3333C20.7353 31.3333 21.3333 31.9313 21.3333 32.6666H22.6667C22.6665 31.196 21.4706 30 19.9999 30Z" fill="black"/>
<path d="M12.0001 2.66699H6.66675V4.00035H12.0001V2.66699Z" fill="black"/>
<path d="M12 5.3335H8V6.66686H12V5.3335Z" fill="black"/>
<path d="M5.19878 14.336C4.49214 13.1007 4.49214 11.5667 5.19878 10.3313C6.13878 8.68797 6.13878 6.64602 5.19878 5.00266C4.49214 3.76734 4.49214 2.23336 5.19878 0.997969C5.31675 0.791328 5.31612 0.537969 5.19675 0.331953C5.07745 0.126641 4.85745 0 4.62011 0H2.66675V1.33336H3.60011C3.13745 2.75805 3.28409 4.3407 4.04144 5.66406C4.74808 6.89937 4.74808 8.43336 4.04144 9.66875C3.10144 11.3121 3.10144 13.3541 4.04144 14.9974C4.74808 16.2327 4.74808 17.7667 4.04144 19.0021C3.10144 20.6461 3.10144 22.6874 4.01409 24.2774C4.21808 24.7227 4.39073 25.1848 4.52745 25.6487L5.80612 25.2721C5.65144 24.7468 5.45612 24.2261 5.19878 23.6695C4.49214 22.4348 4.49214 20.8995 5.19878 19.6648C6.13878 18.0213 6.13878 15.9793 5.19878 14.336Z" fill="black"/>
<path d="M39.9985 4.86C39.9438 2.9093 38.3132 1.38133 36.3606 1.42L16.9346 1.99133L15.9178 0.974687C15.2885 0.346016 14.4519 0 13.5632 0C13.5619 0 13.5606 0 13.5599 0H7.37986C7.14057 0 6.91986 0.127969 6.80119 0.335312C5.86119 1.97867 5.86119 4.02063 6.80119 5.66398C7.50783 6.8993 7.50783 8.43336 6.80119 9.66867C5.86119 11.312 5.86119 13.354 6.80119 14.9973C7.50783 16.2327 7.50783 17.7666 6.80119 19.002C5.86119 20.646 5.86119 22.6873 6.80119 24.3307C6.89252 24.4907 6.97252 24.6567 7.04119 24.828L8.27854 24.332C8.18783 24.1047 8.07986 23.8814 7.95854 23.6694C7.25189 22.4347 7.25189 20.8994 7.95854 19.6647C8.89854 18.0213 8.89854 15.9794 7.95854 14.336C7.25189 13.1007 7.25189 11.5667 7.95854 10.3313C8.14119 10.0113 8.28853 9.67734 8.39986 9.33336H13.5592C13.5605 9.33336 13.5612 9.33336 13.5625 9.33336C14.4518 9.33336 15.2885 8.98672 15.9178 8.35805L16.9265 7.34937L36.2531 8.48539C36.3224 8.48938 36.4192 8.48805 36.4598 8.49141C38.4105 8.49141 39.9985 6.90477 39.9998 4.95344L39.9985 4.86ZM36.4592 7.15797C36.4079 7.14664 36.3753 7.15664 36.3326 7.15461L16.7059 6.00133C16.5159 5.98734 16.3299 6.06063 16.1952 6.19531L14.9752 7.41531C14.5978 7.79195 14.0965 8 13.5618 8C13.5611 8 13.5605 8 13.5598 8H8.65314C8.7165 6.9693 8.48518 5.92336 7.95846 5.00203C7.3151 3.87672 7.25775 2.50273 7.78713 1.33336H13.5605C13.5612 1.33336 13.5618 1.33336 13.5625 1.33336C14.0959 1.33336 14.5978 1.54133 14.9752 1.91867L16.1952 3.13867C16.3245 3.26797 16.5059 3.34398 16.6859 3.33336L36.3985 2.75266C37.6432 2.71867 38.6312 3.68133 38.6665 4.95266C38.6652 6.1693 37.6752 7.15797 36.4592 7.15797Z" fill="black"/>
<path d="M10.6248 14.3359C9.9182 13.1006 9.9182 11.5666 10.6241 10.3319C10.8908 9.86791 11.0855 9.36854 11.2034 8.84721L9.90281 8.55322C9.81414 8.94455 9.66812 9.31986 9.4675 9.66924C8.5275 11.3126 8.5275 13.3546 9.4675 14.9979C10.1741 16.2332 10.1741 17.7679 9.46679 19.0039C8.5968 20.5319 8.52883 22.3926 9.28476 23.9799L10.4881 23.4073C9.91883 22.2126 9.97078 20.8133 10.6248 19.6646C11.5648 18.0212 11.5648 15.9792 10.6248 14.3359Z" fill="black"/>
<path d="M4.00011 2.66699H2.66675V4.00035H4.00011V2.66699Z" fill="black"/>
<path d="M4.66675 5.3335H2.66675V6.66686H4.66675V5.3335Z" fill="black"/>
<path d="M5.33339 7.99951H2.66675V9.33287H5.33339V7.99951Z" fill="black"/>
</g>
<defs>
<clipPath id="clip0_300_2961">
<rect width="40" height="40" fill="white"/>
</clipPath>
</defs>
</svg>
