<svg width="40" height="40" viewBox="0 0 40 40" fill="none" xmlns="http://www.w3.org/2000/svg">
<g clip-path="url(#clip0_300_2509)">
<path d="M30.0013 9.28223L29.768 12.7418L27.5216 13.995C25.3058 15.2188 22.6421 15.3249 20.3358 14.2817C18.0301 13.2351 15.365 13.3417 13.1499 14.5683L10.4569 16.0614L10.0103 9.38223L24.6685 9.30887L28.668 9.28887L30.0013 9.28223Z" fill="#DAEFF6"/>
<path d="M29.7678 12.7427L28.288 34.9466L11.3833 29.9472L10.4568 16.0622L13.1498 14.5691C15.3649 13.3425 18.0299 13.2359 20.3357 14.2824C22.6421 15.3256 25.3057 15.2196 27.5215 13.9958L29.7678 12.7427Z" fill="#62BEFF"/>
<path d="M28.6683 21.9482H39.3337C39.3424 31.5111 31.5973 39.2708 22.0345 39.2795C22.0238 39.2795 22.0131 39.2795 22.0024 39.2795H13.2122L28.6683 21.9482Z" fill="#03AA6F"/>
<path d="M28.0015 22.0616H36.9431V21.9482C36.9431 30.1999 30.2539 36.8891 22.0022 36.8891L28.0015 22.0616Z" fill="#DD2E2B"/>
<path d="M10.0036 26.0137H8.67041C8.67041 23.518 9.51431 21.059 11.0455 19.0899L11.1281 18.9839L12.1793 19.8038L12.0974 19.9091C10.7481 21.6442 10.0036 23.8126 10.0036 26.0137Z" fill="black"/>
<path d="M3.37964 20.0592C6.66923 20.0592 9.33555 22.7249 9.33696 26.0144C6.04666 26.0144 3.37964 23.3474 3.37964 20.0571V20.0592Z" fill="#03AA6F"/>
<path d="M8.68328 38.7191C7.36345 39.457 5.74228 39.3937 4.48377 38.5558C2.92198 37.5146 1.79808 35.9341 1.32683 34.117L0.916206 32.5465C0.194256 29.7609 1.09886 26.8052 3.25659 24.9008L3.44987 24.7308C3.81784 24.4055 4.25979 24.1769 4.73768 24.0642H4.92502C6.05423 25.3088 7.65673 26.0174 9.33719 26.014V25.9993C9.60516 25.9993 9.86516 25.9046 10.0705 25.7327L11.3469 24.6661C12.4762 23.7256 14.1233 23.7489 15.2251 24.7214L15.4184 24.8914C17.1482 26.4179 18.0954 28.6443 17.9961 30.9494L8.68328 38.7191Z" fill="#EF5122"/>
<path d="M27.9842 18.7358C28.5675 18.9791 28.9468 19.5483 28.9468 20.1803V22.98C28.9521 26.4643 27.9116 29.8705 25.9599 32.7568C23.0156 37.055 18.0408 39.5047 12.8387 39.218C10.3337 39.102 7.89469 38.3815 5.72892 37.1177L5.63696 37.0637V34.6333L8.5893 34.412C16.9623 33.7847 23.8395 27.5514 25.2846 19.2805C25.3926 18.6005 26.0312 18.1366 26.7111 18.2446C26.8064 18.2599 26.8991 18.2859 26.9884 18.3226L27.9842 18.7358Z" fill="#FFDB6F"/>
<path d="M20.6691 16.6148H19.3359V5.28285C19.3359 5.05488 19.452 4.84293 19.6445 4.72027L26.977 0.0541992L27.6929 1.17943L20.6691 5.64886V16.6148H20.6691Z" fill="#62BEFF"/>
<path d="M32.0029 23.9463H30.6697V25.2795H32.0029V23.9463Z" fill="black"/>
<path d="M30.0031 30.6128H28.6699V31.946H30.0031V30.6128Z" fill="black"/>
<path d="M32.0029 27.9463H30.6697V29.2795H32.0029V27.9463Z" fill="black"/>
<path d="M26.0079 9.9696L27.3411 9.9624L27.3339 8.62921L26.0007 8.63641L26.0079 9.9696Z" fill="black"/>
<path d="M0.67848 34.2841C1.18973 36.2605 2.4123 37.979 4.11143 39.1101C5.57659 40.094 7.47174 40.1673 9.00884 39.3001L8.97149 39.2335C10.2194 39.6028 11.5072 39.8201 12.807 39.8814C12.9403 39.888 13.0737 39.888 13.2116 39.8907V39.9454H22.0019C31.9327 39.954 39.9911 31.9103 39.9997 21.9795C39.9997 21.9688 39.9997 21.9582 39.9997 21.9475C39.9997 21.5795 39.7011 21.2809 39.3332 21.2809H29.8677L30.6676 9.32635C30.6789 9.14174 30.6142 8.96041 30.4883 8.8251C30.3577 8.69643 30.1837 8.62182 30.001 8.61581L28.6678 8.62315L28.6745 9.95635H29.2917L29.1324 12.3407L27.1993 13.4133C25.1862 14.5245 22.7699 14.6305 20.6668 13.7006V9.99697L24.6696 9.97627L24.663 8.64307L20.6688 8.66377V5.64886L27.6926 1.18271L26.9767 0.0541992L19.6442 4.72035C19.4515 4.84301 19.3356 5.05496 19.3356 5.28293V8.67049L10.0067 8.71854C9.63876 8.72057 9.34212 9.02049 9.34415 9.38916C9.34415 9.40252 9.34485 9.41651 9.34548 9.42979L10.0873 20.5551C9.69805 21.263 9.3854 22.0103 9.15415 22.7849C7.98431 20.6918 5.77526 19.3947 3.37753 19.3919C3.00956 19.3919 2.71097 19.6905 2.71097 20.0585C2.70964 21.3523 3.09027 22.6175 3.80417 23.6961C3.5155 23.838 3.2462 24.0174 3.00425 24.2293L2.81097 24.4C0.459184 26.4657 -0.524016 29.6827 0.271216 32.7103L0.67848 34.2841ZM12.869 38.5502C10.5652 38.4409 8.31751 37.799 6.30307 36.6758V35.2512L8.6361 35.0752C17.3144 34.4259 24.4428 27.9641 25.938 19.3904C25.9673 19.2078 26.0793 19.0491 26.2413 18.9605C26.3913 18.8772 26.5706 18.8679 26.7285 18.9345L27.7244 19.3505C28.0597 19.4891 28.2777 19.8171 28.277 20.1797V22.9793C28.283 26.331 27.2817 29.6072 25.404 32.3835C22.601 36.4997 17.8409 38.8414 12.8695 38.5494L12.869 38.5502ZM38.6533 22.6142C38.304 31.5551 30.9495 38.6209 22.0019 38.6122H19.8775C20.614 38.2956 21.3239 37.921 22.0019 37.493V37.555C24.1723 37.559 26.32 37.1064 28.3038 36.2258C33.7312 33.8195 37.3274 28.5454 37.5847 22.6142H38.6533ZM29.613 22.9775V22.6142H36.2515C35.9949 28.0182 32.71 32.8149 27.7639 35.0073C26.5294 35.5533 25.2235 35.9192 23.8857 36.0945C24.8857 35.2233 25.7681 34.2261 26.5114 33.1276C28.5392 30.1313 29.6197 26.595 29.613 22.9775ZM19.3356 10.0037V13.2266C17.1492 12.6207 14.8122 12.894 12.8251 13.9885L11.0506 14.9744L10.7227 10.0476L19.3356 10.0037ZM12.0991 19.9098L12.1805 19.8045L11.3292 19.148L11.1486 16.4476L13.4697 15.1537C15.5008 14.0313 17.9418 13.9319 20.0569 14.8871C22.5566 16.0177 25.4429 15.9016 27.8433 14.5738L29.0212 13.9199L28.7225 18.402C28.5738 18.2873 28.4112 18.1927 28.2386 18.1187L27.2428 17.7034C26.7108 17.4801 26.1062 17.5121 25.601 17.7901C25.083 18.0733 24.7231 18.5787 24.6251 19.1612C23.9185 23.2561 21.7848 26.9689 18.6025 29.6413C18.3679 27.6149 17.3919 25.7471 15.8615 24.3986L15.6682 24.2279C14.3223 23.03 12.3012 23.0014 10.9227 24.1613L10.0835 24.8612C10.2933 23.0581 10.9905 21.3463 12.0991 19.9098ZM8.6222 25.3012C6.26846 24.9772 4.41807 23.1268 4.09409 20.7731C6.44713 21.0977 8.29759 22.9482 8.6222 25.3012ZM3.69745 25.3985L3.89073 25.2278C4.12737 25.0259 4.40268 24.8739 4.69932 24.7806C5.93518 25.9991 7.60095 26.6817 9.33673 26.6803C9.37938 26.6764 9.42141 26.6677 9.46204 26.655C9.84133 26.631 10.2026 26.4877 10.4959 26.2464L11.7724 25.1799C12.6469 24.4446 13.9295 24.4633 14.7827 25.2232L14.976 25.3939C16.4719 26.7117 17.3277 28.6095 17.3251 30.6032C14.732 32.4224 11.6957 33.5082 8.53681 33.7462L5.58448 33.9681C5.23588 33.9941 4.96721 34.2854 4.96792 34.6347V37.063C4.96862 37.3004 5.09588 37.5197 5.3012 37.6383L5.39385 37.693C5.93908 38.0096 6.50307 38.2942 7.08166 38.5455C6.29705 38.6329 5.50721 38.4402 4.85057 38.0016C3.42409 37.0517 2.39824 35.6092 1.96894 33.9501L1.56098 32.377C0.893791 29.834 1.72105 27.1317 3.69745 25.3985Z" fill="black"/>
<path d="M32.0029 23.9473H30.6697V25.2805H32.0029V23.9473Z" fill="black"/>
<path d="M30.0031 30.6138H28.6699V31.947H30.0031V30.6138Z" fill="black"/>
<path d="M32.0029 27.9473H30.6697V29.2805H32.0029V27.9473Z" fill="black"/>
</g>
<defs>
<clipPath id="clip0_300_2509">
<rect width="40" height="40" fill="white"/>
</clipPath>
</defs>
</svg>
