<svg width="40" height="40" viewBox="0 0 40 40" fill="none" xmlns="http://www.w3.org/2000/svg">
<path d="M27.3004 18.7243C27.3004 13.4156 22.6313 9.09668 16.8922 9.09668C11.153 9.09668 6.48389 13.4156 6.48389 18.7243C6.48389 24.033 11.153 28.352 16.8922 28.352C22.6313 28.352 27.3004 24.033 27.3004 18.7243ZM7.65568 18.7243C7.65568 14.0617 11.7992 10.2685 16.8922 10.2685C21.9851 10.2685 26.1286 14.0617 26.1286 18.7243C26.1286 23.3869 21.9851 27.1801 16.8922 27.1801C11.7992 27.1801 7.65568 23.3868 7.65568 18.7243Z" fill="black"/>
<path d="M18.2405 23.5178C18.5705 23.5729 18.8972 23.6001 19.2185 23.6001C20.4589 23.6001 21.6163 23.1941 22.5495 22.4182C24.1176 21.1143 25.0146 19.3305 24.9489 17.6465C24.8953 16.2723 24.2091 15.0805 22.9644 14.2001C20.889 12.7318 19.2418 14.1737 17.9182 15.3323C17.0989 16.0495 16.325 16.7269 15.549 16.7667C14.6247 16.8142 14.1258 16.5424 13.5979 16.2547C12.8666 15.8563 12.0377 15.4045 10.3834 15.9541C10.3773 15.9561 10.372 15.9592 10.3663 15.962C9.73418 16.1413 8.8142 16.6886 8.83154 18.3551C8.8449 19.6592 9.38955 20.74 10.4065 21.4808C11.3937 22.2 12.6668 22.483 13.847 22.483C14.4353 22.483 14.9993 22.4118 15.4946 22.29C16.2582 22.9114 17.2122 23.346 18.2405 23.5178ZM15.6091 17.9369C16.791 17.8763 17.7565 17.0313 18.6902 16.214C20.1013 14.9789 21.03 14.2669 22.2879 15.1567C23.2373 15.8283 23.7387 16.6814 23.7781 17.6922C23.8289 18.995 23.0711 20.4606 21.8004 21.5172C20.8916 22.2728 19.696 22.5728 18.4336 22.362C17.1272 22.1439 15.9795 21.4086 15.3635 20.3951L15.2036 20.1317C14.6269 19.1811 14.0633 18.2519 13.4639 17.5073C13.9829 17.7604 14.6397 17.9868 15.6091 17.9369ZM11.0966 20.5335C10.3808 20.0121 10.0129 19.2751 10.0034 18.3428C9.99263 17.3049 10.4654 17.1408 10.7085 17.0827C11.8883 16.9274 13.0125 18.7789 14.2017 20.7395L14.3621 21.0038C14.418 21.0957 14.4781 21.1854 14.5404 21.2736C13.3905 21.4058 12.0326 21.2154 11.0966 20.5335Z" fill="black"/>
<path d="M36.7332 32.4803C36.6661 30.7586 35.804 29.2638 34.2401 28.1575C33.0805 27.3371 31.9228 27.175 30.701 27.6621C30.4216 27.7735 30.1505 27.9155 29.8858 28.0779C30.3812 20.4766 30.2692 12.783 29.552 5.18425C29.7746 4.82727 30.2077 4.02488 30.4792 2.82339C30.6396 2.11327 30.3375 1.41486 29.7095 1.04398C29.0912 0.678873 28.3459 0.750206 27.8107 1.22555C27.5342 1.47104 27.2728 1.62323 26.8245 1.62323C26.236 1.62323 25.9605 1.35306 25.579 0.979127C25.134 0.542927 24.5803 0 23.5131 0C22.446 0 21.8923 0.542927 21.4474 0.979206C21.0662 1.35314 20.7906 1.62323 20.2022 1.62323C19.6137 1.62323 19.3382 1.35306 18.9569 0.979127C18.5119 0.542927 17.9582 0 16.8911 0C15.8241 0 15.2704 0.542927 14.8255 0.979206C14.4442 1.35314 14.1687 1.62331 13.5803 1.62331C12.992 1.62331 12.7165 1.35314 12.3351 0.979284C11.8902 0.542927 11.3365 0 10.2694 0C9.20249 0 8.64886 0.542927 8.20399 0.979206C7.82271 1.35314 7.54731 1.62323 6.95906 1.62323C6.51091 1.62323 6.24956 1.47104 5.97322 1.22555C5.43802 0.750128 4.6929 0.678873 4.07465 1.04382C3.44664 1.41463 3.14459 2.11295 3.30499 2.823C3.5761 4.02339 4.00871 4.8254 4.23162 5.183C4.10864 6.4827 4.00238 7.78911 3.91691 9.07107C3.89542 9.39398 4.13966 9.67314 4.46257 9.69471C4.78564 9.71627 5.06464 9.47196 5.0862 9.14904C5.16676 7.94115 5.2652 6.71115 5.37943 5.48583C13.0213 4.56452 20.7625 4.56444 28.4045 5.48583C29.1305 13.2899 29.212 21.1936 28.6488 28.9897C28.4053 29.1931 28.1654 29.4027 27.9279 29.6107L27.7643 29.7537C27.5206 29.9665 27.4955 30.3367 27.7083 30.5804C27.9212 30.8241 28.2913 30.8492 28.5351 30.6363L28.6996 30.4923C30.5872 28.8399 31.8318 27.8892 33.5634 29.114C34.8366 30.0147 35.5092 31.1626 35.5624 32.5258C35.6301 34.2627 34.6267 36.211 32.9437 37.6104C31.7293 38.6199 30.1341 39.021 28.4517 38.7399C26.7143 38.4497 25.1864 37.4691 24.3645 36.1168L24.1558 35.7732C23.2173 34.2263 22.3061 32.7245 21.3017 31.701C21.3943 31.7496 21.4884 31.8009 21.5853 31.8537C22.3251 32.2567 23.2458 32.7582 24.8195 32.6776C25.391 32.6483 25.9645 32.4665 26.5729 32.1218C26.8544 31.9623 26.9534 31.6048 26.7939 31.3233C26.6344 31.0417 26.277 30.9428 25.9953 31.1023C25.5491 31.3551 25.1449 31.4876 24.7596 31.5074C23.5157 31.5712 22.8505 31.2086 22.1461 30.8248C21.1865 30.3019 20.1943 29.7612 18.1263 30.4483C18.118 30.451 18.1103 30.4548 18.1028 30.4591C16.8507 30.8063 16.4177 31.7995 16.287 32.6549C12.6643 32.6313 8.9999 32.3989 5.37943 31.9623C4.74579 25.1505 4.60117 18.2536 4.94987 11.4555C4.96643 11.1324 4.7179 10.857 4.39475 10.8403C4.07106 10.8239 3.79612 11.0723 3.77955 11.3954C3.42352 18.3372 3.57837 25.3803 4.2381 32.3333C4.01707 32.6855 3.57837 33.4914 3.30476 34.7037C3.1442 35.4138 3.4461 36.1122 4.07395 36.4831C4.69219 36.8482 5.43763 36.777 5.97306 36.3013C6.24933 36.0559 6.51067 35.9038 6.95922 35.9038C7.54793 35.9038 7.82349 36.1739 8.20493 36.5477C8.64988 36.9839 9.20374 37.5266 10.2708 37.5266C11.3376 37.5266 11.8912 36.9839 12.336 36.5478C12.7174 36.1739 12.993 35.9038 13.5817 35.9038C14.1699 35.9038 14.4453 36.1738 14.8265 36.5476C15.2715 36.9838 15.8253 37.5266 16.8925 37.5266C17.4218 37.5266 17.8179 37.389 18.115 37.225C18.1443 37.2473 18.1725 37.2707 18.2025 37.2926C19.4477 38.1996 21.0551 38.5566 22.5468 38.5566C23.327 38.5566 24.0748 38.4583 24.7234 38.2907C25.698 39.1042 26.9286 39.6736 28.2584 39.8958C28.6754 39.9655 29.0884 39.9999 29.4944 39.9999C31.0583 39.9999 32.5171 39.4886 33.6925 38.5115C35.6795 36.8596 36.816 34.605 36.7332 32.4803ZM5.09722 4.34044C4.90885 3.99378 4.63539 3.39468 4.44796 2.56486C4.37756 2.25327 4.60047 2.09428 4.67047 2.05295C4.75524 2.00287 4.97628 1.90731 5.19504 2.10162C5.5585 2.42446 6.08744 2.79503 6.95914 2.79503C8.02609 2.79503 8.57972 2.2521 9.02459 1.81582C9.40587 1.44189 9.68127 1.1718 10.2695 1.1718C10.8579 1.1718 11.1334 1.44197 11.5148 1.81582C11.9596 2.2521 12.5133 2.79503 13.5804 2.79503C14.6475 2.79503 15.2012 2.2521 15.646 1.81582C16.0274 1.44189 16.3029 1.1718 16.8913 1.1718C17.4797 1.1718 17.7552 1.44197 18.1366 1.8159C18.5816 2.25218 19.1353 2.79511 20.2024 2.79511C21.2694 2.79511 21.8231 2.25218 22.268 1.8159C22.6492 1.44197 22.9248 1.1718 23.5133 1.1718C24.1018 1.1718 24.3773 1.44197 24.7588 1.8159C25.2038 2.25218 25.7575 2.79511 26.8246 2.79511C27.6965 2.79511 28.2255 2.42454 28.5889 2.1017C28.8078 1.90724 29.0289 2.00287 29.1137 2.05303C29.1837 2.09436 29.4067 2.25343 29.3362 2.56509C29.1487 3.39523 28.875 3.99441 28.6871 4.34044C20.8583 3.38491 12.9257 3.38491 5.09722 4.34044ZM15.647 35.7109C15.2022 35.2748 14.6486 34.7321 13.5818 34.7321C12.5144 34.7321 11.9607 35.2749 11.5158 35.7111C11.1346 36.0848 10.8591 36.3549 10.2709 36.3549C9.68221 36.3549 9.40665 36.0848 9.02522 35.711C8.58026 35.2748 8.0264 34.7321 6.9593 34.7321C6.08713 34.7321 5.55819 35.1026 5.19496 35.4253C4.97588 35.6199 4.75485 35.5244 4.67 35.4742C4.60008 35.4329 4.37741 35.274 4.44796 34.9621C4.64938 34.0694 4.95057 33.4439 5.13816 33.1128C8.82903 33.5619 12.5656 33.8019 16.26 33.8266C16.3426 34.7761 16.6616 35.6199 17.2036 36.3253C17.1115 36.3441 17.0089 36.3549 16.8928 36.3549C16.3041 36.3549 16.0284 36.0848 15.647 35.7109ZM18.8927 36.3455C17.9209 35.6377 17.4216 34.6386 17.4087 33.376C17.3945 32.0196 17.9915 31.6923 18.4637 31.5755C20.1015 31.3532 21.585 33.7954 23.154 36.3812L23.3631 36.7257C23.4825 36.9221 23.6142 37.1118 23.7564 37.2945C22.1749 37.5375 20.2184 37.3112 18.8927 36.3455Z" fill="black"/>
<path d="M33.2275 34.8389L33.1983 34.856C32.9192 35.0197 32.8256 35.3787 32.9893 35.6578C33.0984 35.8438 33.2942 35.9474 33.4953 35.9474C33.596 35.9474 33.698 35.9215 33.7912 35.8669L33.8203 35.8497C34.0995 35.6861 34.1931 35.3271 34.0293 35.048C33.8655 34.7687 33.5067 34.6752 33.2275 34.8389Z" fill="black"/>
<path d="M34.3282 34.5905C34.4289 34.5905 34.5309 34.5645 34.6241 34.5099L34.6532 34.4928C34.9324 34.3291 35.026 33.9701 34.8623 33.691C34.6986 33.4119 34.3396 33.3183 34.0605 33.4819L34.0313 33.4991C33.7522 33.6627 33.6586 34.0217 33.8223 34.3008C33.9313 34.4869 34.1271 34.5905 34.3282 34.5905Z" fill="black"/>
<path d="M32.4201 33.4615L32.391 33.4786C32.1118 33.6422 32.0182 34.0013 32.182 34.2803C32.291 34.4664 32.4868 34.57 32.6879 34.57C32.7886 34.57 32.8906 34.544 32.9838 34.4894L33.0129 34.4723C33.2921 34.3086 33.3857 33.9496 33.2219 33.6705C33.0582 33.3913 32.6993 33.2978 32.4201 33.4615Z" fill="black"/>
</svg>
