<svg width="40" height="40" viewBox="0 0 40 40" fill="none" xmlns="http://www.w3.org/2000/svg">
<path d="M29.9088 34.8347C30.1328 35.8242 28.9599 36.5393 28.201 35.8647C27.8633 35.5652 27.4696 35.3192 26.8259 35.3192C25.1708 35.3192 25.1708 36.9427 23.5148 36.9427C21.8597 36.9427 21.8597 35.3192 20.2037 35.3192C18.5486 35.3192 18.5486 36.9427 16.8926 36.9427C15.2367 36.9427 15.2367 35.3192 13.5816 35.3192C11.9257 35.3192 11.9257 36.9427 10.2697 36.9427C8.6138 36.9427 8.6138 35.3192 6.95783 35.3192C6.31412 35.3192 5.92042 35.5652 5.58274 35.8647C4.82379 36.5393 3.65082 35.8242 3.87489 34.8338C4.2207 33.3021 4.83926 32.4871 4.83926 32.4871V5.03854C4.83926 5.03854 4.2207 4.22434 3.87489 2.69182C3.65097 1.70152 4.82394 0.987175 5.5829 1.66089C5.92058 1.96122 6.31428 2.2064 6.95799 2.2064C7.62686 2.2064 8.0254 1.94099 8.37199 1.62605C8.88335 1.1593 9.28197 0.583008 10.2682 0.583008C11.9242 0.583008 11.9242 2.20648 13.5801 2.20648C15.2352 2.20648 15.2352 0.583008 16.8911 0.583008C18.5471 0.583008 18.5471 2.20648 20.2022 2.20648C21.8582 2.20648 21.8582 0.583008 23.5141 0.583008C25.17 0.583008 25.17 2.20648 26.8252 2.20648C27.4697 2.20648 27.8634 1.9613 28.201 1.66097C28.96 0.987253 30.133 1.70152 29.9089 2.6919C29.5631 4.22442 28.9445 5.03862 28.9445 5.03862V32.4872C28.9444 32.4871 29.563 33.3021 29.9088 34.8347Z" fill="#E5E5E5"/>
<path d="M4.83924 7.0306V5.03867C4.83924 5.03867 4.22068 4.22447 3.87488 2.69195C3.65088 1.70165 4.82385 0.987306 5.5828 1.66102C5.92048 1.96136 6.31418 2.20653 6.95789 2.20653C7.62677 2.20653 8.02531 1.94112 8.37189 1.62618C8.66894 3.28457 9.17796 4.59223 9.17796 4.59223L4.83924 7.0306Z" fill="#E5E5E5"/>
<path d="M4.83948 30.4956V32.4876C4.83948 32.4876 4.22093 33.3018 3.87512 34.8343C3.65112 35.8246 4.82401 36.539 5.58297 35.8653C5.92065 35.5649 6.31435 35.3198 6.95806 35.3198C7.62693 35.3198 8.02548 35.5852 8.37206 35.9001C8.66911 34.2417 9.17813 32.9341 9.17813 32.9341L4.83948 30.4956Z" fill="#E5E5E5"/>
<path d="M28.9446 4.96041C20.9094 3.95104 12.8742 4.30599 4.83894 5.31528C3.95505 14.491 3.95505 23.3118 4.83894 32.4875C12.8742 33.4968 20.9094 33.4968 28.9446 32.4875C29.8285 23.3119 29.8285 14.1361 28.9446 4.96041Z" fill="#FA962A"/>
<path d="M9.17765 33.0134C7.73114 32.8973 6.2855 32.748 4.839 32.5661C3.95503 23.3903 3.95503 14.2146 4.839 5.03872C6.2855 4.85691 7.73114 4.70831 9.17765 4.59229C8.27501 14.0653 8.27501 23.5397 9.17765 33.0134Z" fill="#FA962A"/>
<path d="M26.7155 18.7231C26.7155 23.7173 22.3175 27.7657 16.8919 27.7657C13.3714 27.7657 10.2837 26.0606 8.54979 23.4989C7.61066 22.1134 7.06836 20.4764 7.06836 18.7232C7.06836 16.967 7.61222 15.328 8.55385 13.9405C10.2885 11.3818 13.3747 9.68066 16.8919 9.68066C22.3175 9.68059 26.7155 13.729 26.7155 18.7231Z" fill="#E5E5E5"/>
<path d="M8.54978 22.5933C7.61066 21.4706 7.06836 20.1443 7.06836 18.7238C7.06836 17.3008 7.61222 15.9728 8.55385 14.8486C8.48493 17.4298 8.48408 20.0119 8.54978 22.5933Z" fill="#E5E5E5"/>
<path d="M15.6409 21.6422C13.2738 22.3782 9.45046 21.626 9.41647 18.3479C9.38248 15.0698 13.463 17.0225 13.463 17.0225L15.6409 21.6422Z" fill="#FA962A"/>
<path d="M10.5674 16.5091C12.2194 16.2261 13.4742 18.4153 14.8624 20.6989C16.2506 22.9826 19.8656 23.8878 22.1753 21.9674C24.4851 20.0469 25.4627 16.6834 22.6267 14.6772C19.7906 12.671 18.0203 17.2258 15.5788 17.351C13.1374 17.4761 13.1196 15.6613 10.5674 16.5091Z" fill="#FA962A"/>
<path d="M24.8707 37.6423C21.81 38.594 16.8664 37.6213 16.8225 33.3828C16.7786 29.1443 22.0546 31.6691 22.0546 31.6691L24.8707 37.6423Z" fill="#FA962A"/>
<path d="M18.3108 31.0054C20.4469 30.6393 22.0693 33.47 23.8643 36.4228C25.6592 39.3755 30.3333 40.5459 33.3198 38.0628C36.3064 35.5797 37.5704 31.2307 33.9034 28.6366C30.2364 26.0426 27.9474 31.9319 24.7905 32.0938C21.6337 32.2557 21.6107 29.9091 18.3108 31.0054Z" fill="#FA962A"/>
<path d="M27.3007 18.7243C27.3007 13.4156 22.6315 9.09668 16.8924 9.09668C11.1533 9.09668 6.48413 13.4156 6.48413 18.7243C6.48413 24.033 11.1533 28.352 16.8924 28.352C22.6315 28.352 27.3007 24.033 27.3007 18.7243ZM7.65593 18.7243C7.65593 14.0617 11.7994 10.2685 16.8924 10.2685C21.9854 10.2685 26.1289 14.0617 26.1289 18.7243C26.1289 23.3869 21.9854 27.1801 16.8924 27.1801C11.7994 27.1801 7.65593 23.3868 7.65593 18.7243Z" fill="black"/>
<path d="M18.2408 23.5178C18.5707 23.5729 18.8974 23.6001 19.2188 23.6001C20.4591 23.6001 21.6165 23.1941 22.5497 22.4182C24.1179 21.1143 25.0149 19.3305 24.9492 17.6465C24.8956 16.2723 24.2094 15.0805 22.9647 14.2001C20.8893 12.7318 19.242 14.1737 17.9185 15.3323C17.0991 16.0495 16.3252 16.7269 15.5493 16.7667C14.6249 16.8142 14.126 16.5424 13.5981 16.2547C12.8668 15.8563 12.0379 15.4045 10.3837 15.9541C10.3776 15.9561 10.3722 15.9592 10.3666 15.962C9.73442 16.1413 8.81444 16.6886 8.83178 18.3551C8.84514 19.6592 9.38979 20.74 10.4067 21.4808C11.394 22.2 12.667 22.483 13.8473 22.483C14.4355 22.483 14.9995 22.4118 15.4949 22.29C16.2584 22.9114 17.2125 23.346 18.2408 23.5178ZM15.6093 17.9369C16.7913 17.8763 17.7567 17.0313 18.6904 16.214C20.1015 14.9789 21.0302 14.2669 22.2881 15.1567C23.2376 15.8283 23.7389 16.6814 23.7783 17.6922C23.8291 18.995 23.0713 20.4606 21.8006 21.5172C20.8918 22.2728 19.6962 22.5728 18.4338 22.362C17.1275 22.1439 15.9798 21.4086 15.3637 20.3951L15.2038 20.1317C14.6272 19.1811 14.0635 18.2519 13.4641 17.5073C13.9831 17.7604 14.6399 17.9868 15.6093 17.9369ZM11.0969 20.5335C10.381 20.0121 10.0132 19.2751 10.0037 18.3428C9.99288 17.3049 10.4656 17.1408 10.7087 17.0827C11.8885 16.9274 13.0128 18.7789 14.202 20.7395L14.3624 21.0038C14.4182 21.0957 14.4783 21.1854 14.5406 21.2736C13.3908 21.4058 12.0329 21.2154 11.0969 20.5335Z" fill="black"/>
<path d="M36.7335 32.4803C36.6664 30.7586 35.8043 29.2638 34.2403 28.1575C33.0807 27.3371 31.9231 27.175 30.7013 27.6621C30.4218 27.7735 30.1508 27.9155 29.8861 28.0779C30.3814 20.4766 30.2694 12.783 29.5522 5.18425C29.7748 4.82727 30.208 4.02488 30.4795 2.82339C30.6399 2.11327 30.3377 1.41486 29.7097 1.04398C29.0914 0.678873 28.3461 0.750206 27.8109 1.22555C27.5344 1.47104 27.2731 1.62323 26.8248 1.62323C26.2363 1.62323 25.9607 1.35306 25.5793 0.979127C25.1343 0.542927 24.5806 0 23.5134 0C22.4463 0 21.8926 0.542927 21.4477 0.979206C21.0664 1.35314 20.7908 1.62323 20.2025 1.62323C19.614 1.62323 19.3385 1.35306 18.9571 0.979127C18.5122 0.542927 17.9585 0 16.8914 0C15.8243 0 15.2706 0.542927 14.8258 0.979206C14.4444 1.35314 14.1689 1.62331 13.5805 1.62331C12.9922 1.62331 12.7167 1.35314 12.3354 0.979284C11.8905 0.542927 11.3367 0 10.2697 0C9.20274 0 8.64911 0.542927 8.20423 0.979206C7.82296 1.35314 7.54755 1.62323 6.95931 1.62323C6.51115 1.62323 6.24981 1.47104 5.97346 1.22555C5.43827 0.750128 4.69314 0.678873 4.0749 1.04382C3.44689 1.41463 3.14484 2.11295 3.30524 2.823C3.57635 4.02339 4.00895 4.8254 4.23186 5.183C4.10888 6.4827 4.00263 7.78911 3.91715 9.07107C3.89567 9.39398 4.1399 9.67314 4.46281 9.69471C4.78588 9.71627 5.06488 9.47196 5.08645 9.14904C5.167 7.94115 5.26544 6.71115 5.37967 5.48583C13.0216 4.56452 20.7627 4.56444 28.4048 5.48583C29.1307 13.2899 29.2123 21.1936 28.649 28.9897C28.4055 29.1931 28.1656 29.4027 27.9281 29.6107L27.7645 29.7537C27.5208 29.9665 27.4957 30.3367 27.7086 30.5804C27.9215 30.8241 28.2916 30.8492 28.5353 30.6363L28.6999 30.4923C30.5874 28.8399 31.8321 27.8892 33.5636 29.114C34.8369 30.0147 35.5094 31.1626 35.5626 32.5258C35.6304 34.2627 34.6269 36.211 32.9439 37.6104C31.7295 38.6199 30.1344 39.021 28.4519 38.7399C26.7145 38.4497 25.1867 37.4691 24.3648 36.1168L24.1561 35.7732C23.2176 34.2263 22.3063 32.7245 21.302 31.701C21.3946 31.7496 21.4886 31.8009 21.5856 31.8537C22.3253 32.2567 23.2461 32.7582 24.8198 32.6776C25.3912 32.6483 25.9648 32.4665 26.5732 32.1218C26.8547 31.9623 26.9537 31.6048 26.7941 31.3233C26.6347 31.0417 26.2772 30.9428 25.9956 31.1023C25.5494 31.3551 25.1451 31.4876 24.7599 31.5074C23.516 31.5712 22.8508 31.2086 22.1463 30.8248C21.1867 30.3019 20.1946 29.7612 18.1265 30.4483C18.1183 30.451 18.1105 30.4548 18.1031 30.4591C16.851 30.8063 16.418 31.7995 16.2873 32.6549C12.6645 32.6313 9.00014 32.3989 5.37967 31.9623C4.74603 25.1505 4.60142 18.2536 4.95011 11.4555C4.96667 11.1324 4.71814 10.857 4.395 10.8403C4.0713 10.8239 3.79636 11.0723 3.7798 11.3954C3.42376 18.3372 3.57861 25.3803 4.23834 32.3333C4.01731 32.6855 3.57861 33.4914 3.305 34.7037C3.14444 35.4138 3.44634 36.1122 4.07419 36.4831C4.69244 36.8482 5.43788 36.777 5.9733 36.3013C6.24957 36.0559 6.51092 35.9038 6.95946 35.9038C7.54817 35.9038 7.82374 36.1739 8.20517 36.5477C8.65012 36.9839 9.20399 37.5266 10.2711 37.5266C11.3378 37.5266 11.8914 36.9839 12.3362 36.5478C12.7177 36.1739 12.9932 35.9038 13.5819 35.9038C14.1701 35.9038 14.4456 36.1738 14.8268 36.5476C15.2717 36.9838 15.8255 37.5266 16.8928 37.5266C17.422 37.5266 17.8182 37.389 18.1152 37.225C18.1446 37.2473 18.1727 37.2707 18.2028 37.2926C19.4479 38.1996 21.0553 38.5566 22.5471 38.5566C23.3273 38.5566 24.0751 38.4583 24.7237 38.2907C25.6982 39.1042 26.9288 39.6736 28.2586 39.8958C28.6757 39.9655 29.0887 39.9999 29.4946 39.9999C31.0586 39.9999 32.5173 39.4886 33.6927 38.5115C35.6797 36.8596 36.8163 34.605 36.7335 32.4803ZM5.09746 4.34044C4.90909 3.99378 4.63564 3.39468 4.4482 2.56486C4.37781 2.25327 4.60071 2.09428 4.67072 2.05295C4.75549 2.00287 4.97652 1.90731 5.19528 2.10162C5.55875 2.42446 6.08769 2.79503 6.95938 2.79503C8.02633 2.79503 8.57996 2.2521 9.02484 1.81582C9.40611 1.44189 9.68152 1.1718 10.2698 1.1718C10.8582 1.1718 11.1336 1.44197 11.515 1.81582C11.9599 2.2521 12.5136 2.79503 13.5806 2.79503C14.6477 2.79503 15.2014 2.2521 15.6463 1.81582C16.0276 1.44189 16.3031 1.1718 16.8915 1.1718C17.4799 1.1718 17.7555 1.44197 18.1368 1.8159C18.5818 2.25218 19.1355 2.79511 20.2026 2.79511C21.2696 2.79511 21.8233 2.25218 22.2682 1.8159C22.6495 1.44197 22.9251 1.1718 23.5135 1.1718C24.102 1.1718 24.3776 1.44197 24.759 1.8159C25.204 2.25218 25.7577 2.79511 26.8248 2.79511C27.6967 2.79511 28.2257 2.42454 28.5891 2.1017C28.808 1.90724 29.0291 2.00287 29.1139 2.05303C29.1839 2.09436 29.407 2.25343 29.3365 2.56509C29.149 3.39523 28.8753 3.99441 28.6874 4.34044C20.8586 3.38491 12.926 3.38491 5.09746 4.34044ZM15.6472 35.7109C15.2024 35.2748 14.6488 34.7321 13.582 34.7321C12.5147 34.7321 11.961 35.2749 11.516 35.7111C11.1348 36.0848 10.8593 36.3549 10.2712 36.3549C9.68246 36.3549 9.40689 36.0848 9.02546 35.711C8.58051 35.2748 8.02664 34.7321 6.95954 34.7321C6.08737 34.7321 5.55843 35.1026 5.19521 35.4253C4.97613 35.6199 4.7551 35.5244 4.67025 35.4742C4.60032 35.4329 4.37765 35.274 4.4482 34.9621C4.64962 34.0694 4.95081 33.4439 5.1384 33.1128C8.82927 33.5619 12.5659 33.8019 16.2602 33.8266C16.3428 34.7761 16.6618 35.6199 17.2039 36.3253C17.1117 36.3441 17.0092 36.3549 16.893 36.3549C16.3043 36.3549 16.0287 36.0848 15.6472 35.7109ZM18.8929 36.3455C17.9211 35.6377 17.4219 34.6386 17.4089 33.376C17.3948 32.0196 17.9918 31.6923 18.464 31.5755C20.1017 31.3532 21.5852 33.7954 23.1542 36.3812L23.3634 36.7257C23.4827 36.9221 23.6144 37.1118 23.7567 37.2945C22.1752 37.5375 20.2186 37.3112 18.8929 36.3455Z" fill="black"/>
<path d="M33.2275 34.8389L33.1983 34.856C32.9192 35.0197 32.8256 35.3787 32.9893 35.6578C33.0984 35.8438 33.2942 35.9474 33.4953 35.9474C33.596 35.9474 33.698 35.9215 33.7912 35.8669L33.8203 35.8497C34.0995 35.6861 34.1931 35.3271 34.0293 35.048C33.8655 34.7687 33.5067 34.6752 33.2275 34.8389Z" fill="black"/>
<path d="M34.3285 34.5905C34.4292 34.5905 34.5311 34.5645 34.6243 34.5099L34.6535 34.4928C34.9326 34.3291 35.0262 33.9701 34.8626 33.691C34.6989 33.4119 34.3399 33.3183 34.0607 33.4819L34.0316 33.4991C33.7524 33.6627 33.6588 34.0217 33.8226 34.3008C33.9316 34.4869 34.1274 34.5905 34.3285 34.5905Z" fill="black"/>
<path d="M32.4203 33.4615L32.3912 33.4786C32.112 33.6422 32.0184 34.0013 32.1822 34.2803C32.2913 34.4664 32.4871 34.57 32.6882 34.57C32.7889 34.57 32.8908 34.544 32.984 34.4894L33.0132 34.4723C33.2924 34.3086 33.386 33.9496 33.2222 33.6705C33.0584 33.3913 32.6996 33.2978 32.4203 33.4615Z" fill="black"/>
</svg>
