<svg width="40" height="40" viewBox="0 0 40 40" fill="none" xmlns="http://www.w3.org/2000/svg">
<g clip-path="url(#clip0_300_2547)">
<path d="M27.3324 8.63294L25.9993 8.64014L26.0065 9.9733L27.3396 9.9661L27.3324 8.63294Z" fill="black"/>
<path d="M39.3334 21.2809H29.8679L30.6678 9.32639C30.6794 9.14175 30.6145 8.96044 30.4884 8.82512C30.358 8.69664 30.1841 8.62198 30.0012 8.61581L28.668 8.62315L28.6747 9.95632H29.2919L29.1326 12.3407L27.1995 13.4132C25.1864 14.5242 22.7698 14.6304 20.667 13.7005V9.99698L24.6698 9.97631L24.6632 8.64314L20.669 8.66381V5.64885L27.6928 1.18273L26.9769 0.0541992L19.6445 4.72029C19.4521 4.84269 19.3357 5.05492 19.3358 5.28289V8.67047L10.007 8.71847C9.63886 8.72055 9.34214 9.02076 9.34423 9.38889C9.34431 9.40255 9.34481 9.41613 9.34573 9.42971L10.0876 20.555C9.69827 21.263 9.38539 22.0105 9.15442 22.7847C7.98456 20.6919 5.77542 19.3943 3.3778 19.3918C3.00968 19.3918 2.71121 19.6903 2.71121 20.0584C2.71021 21.352 3.09042 22.6173 3.80441 23.696C3.5157 23.8381 3.24673 24.0173 3.00451 24.2292L2.8112 24.3999C0.459325 26.4656 -0.523803 29.6826 0.271516 32.7102L0.678798 34.284C1.18999 36.2604 2.41233 37.9788 4.11171 39.1101C5.57711 40.0937 7.47188 40.1673 9.0091 39.3L8.97177 39.2334C10.2196 39.6026 11.5074 39.8201 12.8073 39.8813C12.9406 39.888 13.0739 39.888 13.2119 39.8906V39.9453H22.0022C31.9332 39.9541 39.9911 31.9106 39.9999 21.9795C39.9999 21.9688 39.9999 21.9582 39.9999 21.9475C39.9999 21.5794 39.7015 21.2809 39.3334 21.2809ZM29.6131 22.9774V22.6141H36.2517C35.995 28.0183 32.7101 32.8147 27.764 35.0072C26.5299 35.5528 25.2238 35.919 23.8858 36.0944C24.886 35.2235 25.7686 34.2261 26.5115 33.1275C28.539 30.1313 29.6196 26.5951 29.6131 22.9774ZM19.3358 10.0036V13.2266C17.1494 12.6205 14.8126 12.894 12.8253 13.9885L11.0508 14.9744L10.7229 10.0476L19.3358 10.0036ZM12.0993 19.9098L12.1806 19.8044L11.3294 19.1479L11.1488 16.4475L13.4698 15.1537C15.5006 14.031 17.9421 13.9321 20.057 14.887C22.5563 16.0177 25.4429 15.9016 27.8434 14.5737L29.0212 13.9198L28.7226 18.4019C28.5739 18.2875 28.4113 18.1923 28.2386 18.1186L27.2428 17.7034C26.711 17.4801 26.1063 17.5121 25.601 17.79C25.0829 18.0736 24.7233 18.5788 24.6251 19.1612C23.9183 23.2562 21.7849 26.9689 18.6025 29.6412C18.3681 27.615 17.3916 25.7474 15.8615 24.3985L15.6682 24.2279C14.3226 23.03 12.3015 23.0015 10.9228 24.1612L10.0836 24.8611C10.2934 23.0583 10.9903 21.3466 12.0993 19.9098ZM8.62248 25.3011C6.26902 24.9768 4.41867 23.1264 4.09438 20.773C6.44734 21.0981 8.29727 22.9481 8.62248 25.3011ZM4.85087 38.0015C3.42454 37.0516 2.3985 35.6091 1.96922 33.95L1.56127 32.3769C0.894022 29.8339 1.72117 27.1321 3.69767 25.3984L3.89098 25.2278C4.12771 25.0259 4.40275 24.8737 4.69955 24.7805C5.9354 25.9989 7.60153 26.6814 9.33698 26.6803C9.37947 26.6759 9.42147 26.6674 9.4623 26.6549C9.84125 26.6307 10.203 26.4877 10.4962 26.2463L11.7727 25.1798C12.6476 24.4445 13.9296 24.4629 14.783 25.2231L14.9763 25.3938C16.4723 26.7114 17.3282 28.6096 17.3253 30.6031C14.732 32.4223 11.6959 33.5081 8.53708 33.7461L5.58478 33.968C5.23632 33.9943 4.96719 34.2852 4.96818 34.6346V37.063C4.96893 37.3004 5.09584 37.5195 5.30148 37.6382L5.39413 37.6929C5.93965 38.0096 6.50325 38.2943 7.08192 38.5455C6.29744 38.6325 5.50737 38.4399 4.85087 38.0015ZM12.87 38.5495L12.8693 38.5501C10.5653 38.4405 8.31802 37.799 6.30344 36.6757V35.2512L8.63648 35.0752C17.315 34.4258 24.4432 27.9639 25.9383 19.3905C25.9678 19.2081 26.0797 19.0495 26.2416 18.9605C26.3914 18.8772 26.5712 18.8676 26.7289 18.9345L27.7248 19.3505C28.06 19.4894 28.2783 19.8169 28.2774 20.1797V22.9794C28.2833 26.3311 27.2824 29.6074 25.4044 32.3836C22.6011 36.4999 17.8416 38.8412 12.87 38.5495ZM22.0022 38.6121H19.8778C20.6141 38.2952 21.3244 37.921 22.0022 37.4929V37.5549C24.1728 37.559 26.32 37.1061 28.3041 36.2258C33.7316 33.8193 37.3274 28.5457 37.5849 22.6141H38.6534C38.3044 31.5552 30.9501 38.6211 22.0022 38.6121Z" fill="black"/>
<path d="M32.0009 23.9473H30.6677V25.2804H32.0009V23.9473Z" fill="black"/>
<path d="M30.0011 30.6133H28.668V31.9465H30.0011V30.6133Z" fill="black"/>
<path d="M32.0009 27.9468H30.6677V29.2799H32.0009V27.9468Z" fill="black"/>
</g>
<defs>
<clipPath id="clip0_300_2547">
<rect width="40" height="40" fill="white"/>
</clipPath>
</defs>
</svg>
