<svg width="36" height="36" viewBox="0 0 36 36" fill="none" xmlns="http://www.w3.org/2000/svg">
<path d="M2.9999 30.5999H4.1999C4.35903 30.5999 4.51164 30.5367 4.62417 30.4242C4.73669 30.3116 4.7999 30.159 4.7999 29.9999C4.7999 29.8408 4.73669 29.6882 4.62417 29.5756C4.51164 29.4631 4.35903 29.3999 4.1999 29.3999H2.9999C2.84077 29.3999 2.68816 29.4631 2.57564 29.5756C2.46312 29.6882 2.3999 29.8408 2.3999 29.9999C2.3999 30.159 2.46312 30.3116 2.57564 30.4242C2.68816 30.5367 2.84077 30.5999 2.9999 30.5999Z" fill="black"/>
<path d="M31.8002 30.5999H33.0002C33.1593 30.5999 33.3119 30.5367 33.4245 30.4242C33.537 30.3116 33.6002 30.159 33.6002 29.9999C33.6002 29.8408 33.537 29.6882 33.4245 29.5756C33.3119 29.4631 33.1593 29.3999 33.0002 29.3999H31.8002C31.6411 29.3999 31.4885 29.4631 31.3759 29.5756C31.2634 29.6882 31.2002 29.8408 31.2002 29.9999C31.2002 30.159 31.2634 30.3116 31.3759 30.4242C31.4885 30.5367 31.6411 30.5999 31.8002 30.5999Z" fill="black"/>
<path d="M2.9999 34.2H4.1999C4.35903 34.2 4.51164 34.1368 4.62417 34.0243C4.73669 33.9117 4.7999 33.7591 4.7999 33.6C4.7999 33.4409 4.73669 33.2883 4.62417 33.1757C4.51164 33.0632 4.35903 33 4.1999 33H2.9999C2.84077 33 2.68816 33.0632 2.57564 33.1757C2.46312 33.2883 2.3999 33.4409 2.3999 33.6C2.3999 33.7591 2.46312 33.9117 2.57564 34.0243C2.68816 34.1368 2.84077 34.2 2.9999 34.2Z" fill="black"/>
<path d="M17.3998 30.5999H18.5998C18.7589 30.5999 18.9115 30.5367 19.0241 30.4242C19.1366 30.3116 19.1998 30.159 19.1998 29.9999C19.1998 29.8408 19.1366 29.6882 19.0241 29.5756C18.9115 29.4631 18.7589 29.3999 18.5998 29.3999H17.3998C17.2407 29.3999 17.0881 29.4631 16.9755 29.5756C16.863 29.6882 16.7998 29.8408 16.7998 29.9999C16.7998 30.159 16.863 30.3116 16.9755 30.4242C17.0881 30.5367 17.2407 30.5999 17.3998 30.5999Z" fill="black"/>
<path d="M17.3998 34.2H18.5998C18.7589 34.2 18.9115 34.1368 19.0241 34.0243C19.1366 33.9117 19.1998 33.7591 19.1998 33.6C19.1998 33.4409 19.1366 33.2883 19.0241 33.1757C18.9115 33.0632 18.7589 33 18.5998 33H17.3998C17.2407 33 17.0881 33.0632 16.9755 33.1757C16.863 33.2883 16.7998 33.4409 16.7998 33.6C16.7998 33.7591 16.863 33.9117 16.9755 34.0243C17.0881 34.1368 17.2407 34.2 17.3998 34.2Z" fill="black"/>
<path d="M31.8002 34.2H33.0002C33.1593 34.2 33.3119 34.1368 33.4245 34.0243C33.537 33.9117 33.6002 33.7591 33.6002 33.6C33.6002 33.4409 33.537 33.2883 33.4245 33.1757C33.3119 33.0632 33.1593 33 33.0002 33H31.8002C31.6411 33 31.4885 33.0632 31.3759 33.1757C31.2634 33.2883 31.2002 33.4409 31.2002 33.6C31.2002 33.7591 31.2634 33.9117 31.3759 34.0243C31.4885 34.1368 31.6411 34.2 31.8002 34.2Z" fill="black"/>
<path d="M9.87168 18.6349C9.84304 18.5614 9.80022 18.4944 9.74567 18.4375C9.69112 18.3807 9.6259 18.3351 9.55374 18.3035C9.48158 18.2718 9.4039 18.2547 9.32512 18.2531C9.24634 18.2514 9.16801 18.2653 9.0946 18.294L7.97666 18.7302C7.90324 18.7588 7.83619 18.8016 7.77933 18.8562C7.72247 18.9108 7.67692 18.976 7.64526 19.0482C7.61361 19.1203 7.59648 19.198 7.59485 19.2768C7.59323 19.3556 7.60713 19.4339 7.63578 19.5073C7.66443 19.5807 7.70725 19.6478 7.76181 19.7046C7.81637 19.7615 7.88159 19.8071 7.95376 19.8387C8.02592 19.8704 8.10362 19.8875 8.1824 19.8891C8.26119 19.8908 8.33952 19.8768 8.41293 19.8482L9.5308 19.4119C9.60421 19.3833 9.67126 19.3405 9.72812 19.2859C9.78498 19.2314 9.83053 19.1661 9.86219 19.094C9.89384 19.0218 9.91097 18.9441 9.9126 18.8654C9.91423 18.7866 9.90032 18.7083 9.87168 18.6349Z" fill="black"/>
<path d="M35.2334 14.4054C35.311 13.6892 35.1144 12.9703 34.6831 12.3933C34.2518 11.8164 33.6179 11.4243 32.909 11.2961C32.4448 10.5905 31.8127 10.0113 31.0693 9.61057C30.3259 9.2098 29.4945 8.99999 28.65 8.99999C27.8055 8.99999 26.9741 9.2098 26.2307 9.61057C25.4874 10.0113 24.8552 10.5905 24.391 11.2961C24.0536 11.3573 23.7301 11.4795 23.4365 11.6566L25.76 5.6154C25.7891 5.53971 25.8026 5.45891 25.7996 5.37787C25.7966 5.29684 25.7773 5.21724 25.7427 5.14391C25.708 5.07057 25.6589 5.00501 25.5983 4.95119C25.5376 4.89736 25.4667 4.85639 25.3898 4.83075L23.5898 4.23075C23.4432 4.18185 23.2835 4.19134 23.1438 4.25725C23.0041 4.32316 22.8952 4.44041 22.8398 4.5846L22.2 6.24855V0.6C22.2 0.44087 22.1368 0.288258 22.0243 0.175736C21.9117 0.0632141 21.7591 0 21.6 0H19.2C19.0409 0 18.8883 0.0632141 18.7757 0.175736C18.6632 0.288258 18.6 0.44087 18.6 0.6V6.24885L17.96 4.58467C17.9046 4.44048 17.7957 4.32321 17.656 4.25728C17.5163 4.19135 17.3566 4.18185 17.21 4.23075L15.41 4.83075C15.3331 4.85639 15.2622 4.89736 15.2015 4.95119C15.1408 5.00501 15.0917 5.07057 15.0571 5.14391C15.0225 5.21724 15.0031 5.29684 15.0001 5.37787C14.9972 5.45891 15.0106 5.53971 15.0398 5.6154L17.6101 12.2979C17.8684 12.9679 18.0006 13.6799 18.0001 14.3979V15.0758C17.8003 15.1524 17.6066 15.2439 17.4206 15.3497L17.2166 14.9414C16.9565 14.4169 16.5548 13.9757 16.0568 13.6679C15.5588 13.3601 14.9845 13.198 14.399 13.2H12.975C12.8727 13.2 12.7722 13.2262 12.6828 13.276C12.5935 13.3258 12.5184 13.3976 12.4646 13.4846C12.4109 13.5716 12.3802 13.6709 12.3756 13.7731C12.371 13.8752 12.3926 13.9769 12.4384 14.0684L12.9334 15.0584C13.1934 15.5829 13.5951 16.0242 14.0932 16.332C14.5912 16.6399 15.1655 16.802 15.751 16.8H15.9129C15.6901 17.1591 15.5222 17.5495 15.4148 17.9582C15.1796 17.7193 14.8965 17.5329 14.5842 17.4114C14.2718 17.2899 13.9372 17.2359 13.6024 17.2531C13.2677 17.2703 12.9404 17.3583 12.6421 17.5112C12.3438 17.6641 12.0813 17.8784 11.8719 18.1402L11.7311 18.3163C11.5922 18.4902 11.4664 18.6741 11.3548 18.8666L10.8206 17.0189C10.5681 16.15 10.021 15.396 9.27323 14.8864C9.79719 14.4928 10.178 13.9386 10.3574 13.3084C10.5368 12.6781 10.505 12.0064 10.2669 11.396C10.0239 10.7825 9.58667 10.2654 9.02207 9.92392C8.45747 9.5824 7.79656 9.43517 7.14038 9.50475C6.64492 9.0813 6.04384 8.80024 5.40121 8.69154C4.75859 8.58284 4.09851 8.65057 3.49135 8.88752C2.88419 9.12446 2.35272 9.52174 1.95359 10.037C1.55446 10.5522 1.30264 11.1661 1.22498 11.8132C0.695249 12.2067 0.308873 12.7627 0.124865 13.3964C-0.0591422 14.03 -0.0306638 14.7065 0.20595 15.3225C0.44251 15.9342 0.873669 16.4511 1.43298 16.7935C1.99229 17.136 2.6487 17.285 3.30105 17.2176C3.09636 18.0989 3.20471 19.0239 3.6075 19.834L5.68552 24H0.6C0.44087 24 0.288258 24.0632 0.175736 24.1757C0.0632141 24.2883 0 24.4409 0 24.6V35.4C0 35.5591 0.0632141 35.7117 0.175736 35.8243C0.288258 35.9368 0.44087 36 0.6 36H35.4C35.5591 36 35.7117 35.9368 35.8243 35.8243C35.9368 35.7117 36 35.5591 36 35.4V24.6C36 24.4409 35.9368 24.2883 35.8243 24.1757C35.7117 24.0632 35.5591 24 35.4 24H31.6425C31.7107 23.5773 31.8513 23.1694 32.0581 22.7945C32.1217 22.7978 32.1856 22.8 32.2498 22.8C32.8406 22.7999 33.4222 22.6543 33.9435 22.3763C34.4648 22.0983 34.9096 21.6963 35.2388 21.2057C35.5681 20.7152 35.7715 20.1512 35.8313 19.5634C35.8911 18.9757 35.8053 18.3822 35.5816 17.8355C35.9063 17.3042 36.0481 16.6812 35.9852 16.0617C35.9223 15.4423 35.6581 14.8605 35.2332 14.4054H35.2334ZM28.6972 22.9967C28.6098 22.5729 28.4667 22.1626 28.2716 21.7765C28.4009 21.7148 28.5273 21.6473 28.65 21.5732C28.7969 21.6615 28.9489 21.741 29.1053 21.8113C28.9193 22.1874 28.7821 22.5858 28.6972 22.9967ZM27.1112 22.1507C27.4322 22.7141 27.6007 23.3515 27.6 24H26.9638C26.8994 23.4749 26.7507 22.9637 26.5235 22.4859C26.7295 22.3929 26.9262 22.2806 27.1112 22.1507ZM25.3328 22.7891C25.5412 23.1656 25.6828 23.5752 25.7513 24H23.9658C23.8792 23.5909 23.7042 23.2057 23.4533 22.8713L22.8132 22.0176C23.4484 22.5247 24.2372 22.8006 25.05 22.8C25.145 22.8 25.2393 22.7964 25.3328 22.7891ZM20.316 23.5125C20.69 22.9128 20.9176 22.2335 20.9806 21.5295C21.0435 20.8256 20.94 20.1167 20.6784 19.4601L21.5086 17.4146C21.5669 17.5604 21.6371 17.7012 21.7186 17.8355C21.4073 18.5956 21.3654 19.4395 21.6 20.2268V22.2C21.6 22.3298 21.6421 22.4561 21.72 22.56L22.4933 23.5914C22.587 23.7165 22.6627 23.854 22.7183 24.0001H20.0108L20.316 23.5125ZM23.7542 5.55053L24.4146 5.77065L22.0698 11.867C21.8118 12.5377 21.6584 13.2441 21.615 13.9614L19.9035 18.1784L19.873 18.1402C19.6868 17.9074 19.4585 17.7117 19.2 17.5634V16.6579L23.7542 5.55053ZM19.8 9.3V1.2H21V9.1368C21.0001 9.1938 21.0083 9.25049 21.0244 9.30518L20.4 10.929L19.7971 9.3615C19.7991 9.34106 19.8001 9.32054 19.8 9.3ZM16.3854 5.77065L17.0454 5.55053L19.4897 11.9063C19.5845 12.1534 19.6576 12.4082 19.7084 12.668L19.1759 13.8305C19.1225 13.158 18.9724 12.4967 18.7302 11.8671L16.3854 5.77065ZM18 16.5269V17.2506C17.6015 17.2539 17.2103 17.3576 16.8626 17.5522C17.1313 17.0732 17.5242 16.6755 18 16.4011V16.5269ZM14.0069 14.522L13.9458 14.4H14.399C14.7614 14.3988 15.1169 14.4991 15.4252 14.6896C15.7335 14.8802 15.9822 15.1533 16.1432 15.478L16.2042 15.6H15.751C15.3886 15.6012 15.0331 15.5009 14.7248 15.3104C14.4165 15.1198 14.1678 14.8467 14.0069 14.522ZM12.668 19.066L12.809 18.8899C12.9241 18.746 13.0716 18.6313 13.2394 18.5551C13.4072 18.4789 13.5906 18.4433 13.7748 18.4513C13.9589 18.4593 14.1385 18.5106 14.2991 18.601C14.4597 18.6915 14.5967 18.8185 14.6989 18.9719C14.8277 19.165 15.0022 19.3234 15.2068 19.4329C15.4115 19.5424 15.64 19.5997 15.8721 19.5997C16.1043 19.5997 16.3328 19.5424 16.5375 19.4329C16.7421 19.3234 16.9166 19.165 17.0453 18.9719C17.1894 18.7561 17.4009 18.5942 17.6467 18.5114C17.8926 18.4286 18.159 18.4296 18.4042 18.5144C18.4079 18.5156 18.4117 18.5172 18.4154 18.5184C18.62 18.5915 18.8002 18.7201 18.9357 18.8899L19.0766 19.066C19.5031 19.6002 19.7535 20.2536 19.7932 20.9361C19.8328 21.6185 19.6599 22.2965 19.2981 22.8766L18.5961 24H13.1488L12.4466 22.8765C12.0847 22.2965 11.9117 21.6185 11.9514 20.936C11.9911 20.2536 12.2415 19.6002 12.668 19.066ZM10.7526 20.896C10.7513 20.8919 10.7501 20.888 10.7486 20.8839L10.7529 20.8887C10.7528 20.8914 10.7528 20.8938 10.7526 20.8963V20.896ZM1.32383 14.886C1.16946 14.485 1.16278 14.0422 1.30498 13.6367C1.44718 13.2312 1.72899 12.8896 2.1 12.6728C2.18878 12.6217 2.26299 12.5488 2.31559 12.4609C2.36818 12.373 2.39739 12.2731 2.40045 12.1707C2.41422 11.6996 2.56635 11.243 2.83789 10.8578C3.10942 10.4725 3.48833 10.1758 3.92739 10.0045C4.36645 9.83314 4.84622 9.79485 5.30689 9.89436C5.76756 9.99387 6.18876 10.2268 6.51795 10.5641C6.58956 10.6373 6.67873 10.691 6.77695 10.72C6.87518 10.749 6.9792 10.7524 7.0791 10.7298C7.49885 10.638 7.93757 10.6985 8.31681 10.9004C8.69605 11.1024 8.99107 11.4327 9.1491 11.8323C9.24853 12.0846 9.28945 12.3562 9.26879 12.6267C9.24814 12.8971 9.16644 13.1593 9.02985 13.3936C8.89326 13.6279 8.70532 13.8282 8.48017 13.9794C8.25502 14.1306 7.99852 14.2288 7.72995 14.2667C7.70903 14.2632 7.68825 14.2592 7.66733 14.2558C7.79373 13.6658 8.07266 13.1193 8.47628 12.6709C8.52989 12.6126 8.57142 12.5442 8.59848 12.4698C8.62554 12.3953 8.63759 12.3162 8.63393 12.2371C8.63027 12.158 8.61099 12.0804 8.57718 12.0087C8.54337 11.9371 8.49572 11.8729 8.43696 11.8197C8.3782 11.7666 8.3095 11.7256 8.23483 11.6992C8.16016 11.6728 8.081 11.6614 8.0019 11.6657C7.92281 11.67 7.84535 11.6899 7.774 11.7243C7.70264 11.7587 7.63881 11.8069 7.58618 11.8661C7.0206 12.4948 6.63688 13.2657 6.47618 14.096C6.3794 14.1047 6.28621 14.1368 6.20468 14.1897L5.35913 12.0231C5.33048 11.9497 5.28766 11.8826 5.23311 11.8258C5.17856 11.7689 5.11334 11.7234 5.04118 11.6917C4.96903 11.6601 4.89134 11.6429 4.81256 11.6413C4.73378 11.6397 4.65546 11.6536 4.58205 11.6822C4.50864 11.7109 4.4416 11.7537 4.38474 11.8082C4.32788 11.8628 4.28233 11.928 4.25068 12.0002C4.21902 12.0723 4.20189 12.15 4.20026 12.2288C4.19863 12.3076 4.21253 12.3859 4.24118 12.4593L5.08673 14.6259C4.99097 14.6423 4.90063 14.6818 4.82348 14.7408C4.14285 14.239 3.33847 13.9319 2.4966 13.8525C2.41813 13.8453 2.33901 13.8536 2.26376 13.877C2.1885 13.9003 2.11859 13.9383 2.05801 13.9887C1.99742 14.0391 1.94736 14.1009 1.91067 14.1706C1.87398 14.2404 1.85138 14.3167 1.84418 14.3951C1.83697 14.4736 1.84528 14.5527 1.86865 14.628C1.89202 14.7032 1.92998 14.7731 1.98037 14.8337C2.03075 14.8943 2.09258 14.9444 2.16232 14.9811C2.23205 15.0177 2.30833 15.0403 2.3868 15.0476C2.98751 15.104 3.56288 15.3171 4.05548 15.6656C4.04213 15.6821 4.02968 15.6994 4.01663 15.7161C3.79343 15.8701 3.53824 15.9715 3.27023 16.0126C3.00222 16.0538 2.72836 16.0337 2.46923 15.9539C2.2101 15.874 1.97244 15.7365 1.77411 15.5516C1.57578 15.3666 1.42193 15.1392 1.32412 14.8863L1.32383 14.886ZM6.5946 23.1342L7.6086 22.7385C7.68228 22.7101 7.74962 22.6674 7.80676 22.6128C7.86389 22.5583 7.9097 22.493 7.94156 22.4208C7.97341 22.3485 7.99069 22.2706 7.99239 22.1917C7.99409 22.1127 7.98018 22.0342 7.95147 21.9606C7.92275 21.887 7.8798 21.8199 7.82506 21.7629C7.77032 21.706 7.70488 21.6604 7.63249 21.6288C7.56011 21.5972 7.4822 21.5803 7.40323 21.5789C7.32426 21.5774 7.24579 21.5916 7.17233 21.6206L6.05678 22.056L5.51888 20.9775L6.17715 20.7206C6.3254 20.6628 6.44459 20.5484 6.50851 20.4027C6.57243 20.2569 6.57584 20.0918 6.51799 19.9435C6.46013 19.7953 6.34576 19.6761 6.20002 19.6121C6.05428 19.5482 5.88912 19.5448 5.74088 19.6027L4.98098 19.8992L4.68098 19.2981C4.51249 18.9645 4.41626 18.5991 4.39857 18.2258C4.38087 17.8524 4.44212 17.4796 4.5783 17.1315C4.65292 16.938 4.74939 16.7537 4.86585 16.5821C5.08915 16.4052 5.28586 16.1972 5.44995 15.9644C5.65091 15.8112 5.87231 15.6869 6.1077 15.5951H6.10883L6.11003 15.5946C6.34547 15.5027 6.59262 15.4442 6.84428 15.4208C7.1225 15.4808 7.40792 15.5006 7.69178 15.4795C7.89381 15.5268 8.08976 15.5971 8.2758 15.689C8.61167 15.8527 8.90922 16.0855 9.14903 16.3721C9.38883 16.6587 9.5655 16.9927 9.6675 17.3521L10.6225 20.6555C10.6262 20.6686 10.631 20.6811 10.6357 20.6938C10.5545 20.6011 10.4468 20.5356 10.3271 20.5063C10.2074 20.477 10.0816 20.4852 9.96683 20.5299L9.40785 20.7481C9.2596 20.8059 9.1404 20.9203 9.07648 21.066C9.01255 21.2117 9.00913 21.3769 9.06698 21.5252C9.12482 21.6734 9.23919 21.7926 9.38492 21.8565C9.53065 21.9205 9.6958 21.9239 9.84405 21.866L10.403 21.6479C10.4831 21.6167 10.5555 21.5686 10.6153 21.5069C10.6751 21.4451 10.7209 21.3713 10.7496 21.2903C10.777 22.0778 11.0112 22.8442 11.4287 23.5125L11.7333 24H7.02653L6.5946 23.1342ZM34.8 31.2H1.2V28.8H34.8V31.2ZM34.8 34.8H1.2V32.4H34.8V34.8ZM34.8 27.6H1.2V25.2H34.8V27.6ZM30.4303 24H29.7941C29.7936 23.3696 29.9529 22.7493 30.257 22.197C30.4455 22.3232 30.6457 22.4312 30.8547 22.5195C30.6363 22.9876 30.4931 23.4873 30.4303 24ZM34.4266 17.3947C34.351 17.4868 34.3046 17.5993 34.2932 17.7179C34.2819 17.8365 34.3061 17.9558 34.3628 18.0606C34.5598 18.4263 34.6586 18.8368 34.6494 19.2521C34.6403 19.6673 34.5236 20.0731 34.3107 20.4298C34.0978 20.7865 33.796 21.0818 33.4348 21.2869C33.0736 21.492 32.6654 21.5999 32.25 21.6C31.7163 21.6017 31.1976 21.4235 30.7775 21.0944C30.6932 21.0286 30.5928 20.9867 30.4867 20.9728C29.951 20.9022 29.4425 20.6947 29.0104 20.3703C28.9065 20.2922 28.78 20.25 28.65 20.25C28.52 20.25 28.3936 20.2922 28.2896 20.3703C27.8575 20.6947 27.349 20.9022 26.8133 20.9728C26.7072 20.9867 26.6068 21.0286 26.5225 21.0944C26.1024 21.4235 25.5837 21.6017 25.05 21.6C24.6346 21.5999 24.2264 21.492 23.8652 21.2869C23.504 21.0818 23.2022 20.7865 22.9893 20.4298C22.7764 20.0731 22.6597 19.6673 22.6506 19.2521C22.6414 18.8368 22.7402 18.4263 22.9373 18.0606C22.9939 17.9558 23.0181 17.8365 23.0068 17.7179C22.9954 17.5993 22.949 17.4868 22.8734 17.3947C22.6599 17.1342 22.5313 16.8145 22.505 16.4786C22.4787 16.1428 22.556 15.807 22.7264 15.5165L22.7279 15.5139C22.8246 15.3497 22.9489 15.2034 23.0954 15.0815C23.1812 15.01 23.2453 14.9161 23.2806 14.8103C23.3159 14.7044 23.321 14.5908 23.2953 14.4822C23.2396 14.2489 23.2356 14.0062 23.2833 13.7712C23.3311 13.5361 23.4296 13.3143 23.5719 13.1212C23.7142 12.9281 23.8969 12.7684 24.1073 12.6532C24.3177 12.538 24.5507 12.4701 24.7901 12.4542C24.8885 12.4477 24.9839 12.4171 25.0677 12.3649C25.1515 12.3128 25.2211 12.2407 25.2704 12.1553C25.6122 11.561 26.1046 11.0673 26.698 10.724C27.2914 10.3808 27.9648 10.2 28.6503 10.2C29.3358 10.2 30.0093 10.3808 30.6026 10.724C31.196 11.0673 31.6884 11.561 32.0302 12.1553C32.0795 12.2407 32.1491 12.3128 32.2329 12.3649C32.3167 12.4171 32.4121 12.4477 32.5106 12.4542C32.7499 12.4701 32.9829 12.538 33.1933 12.6532C33.4036 12.7683 33.5864 12.928 33.7287 13.1211C33.871 13.3142 33.9695 13.536 34.0173 13.771C34.065 14.0061 34.061 14.2487 34.0053 14.482C33.9796 14.5907 33.9846 14.7043 34.0199 14.8102C34.0553 14.9161 34.1194 15.01 34.2052 15.0815C34.3915 15.2361 34.5414 15.43 34.6442 15.6493C34.7471 15.8686 34.8002 16.1078 34.8 16.35C34.8016 16.7312 34.6694 17.1008 34.4266 17.3947Z" fill="black"/>
<path d="M28.6501 11.3999C28.1538 11.4004 27.6699 11.5544 27.2647 11.8409C26.8594 12.1274 26.5528 12.5323 26.3868 13C26.3338 13.15 26.3426 13.315 26.4111 13.4585C26.4797 13.6021 26.6026 13.7126 26.7526 13.7656C26.9027 13.8187 27.0676 13.8099 27.2112 13.7413C27.3548 13.6727 27.4653 13.5499 27.5183 13.3999C27.6011 13.1659 27.7544 12.9633 27.9571 12.8201C28.1598 12.6768 28.4019 12.5999 28.6501 12.5999C28.8983 12.5999 29.1404 12.6768 29.3431 12.8201C29.5458 12.9633 29.6991 13.1659 29.7819 13.3999C29.8082 13.4741 29.8488 13.5425 29.9015 13.6011C29.9542 13.6597 30.0179 13.7073 30.089 13.7413C30.1601 13.7753 30.2372 13.7949 30.3159 13.7991C30.3946 13.8033 30.4733 13.7919 30.5476 13.7656C30.6219 13.7394 30.6903 13.6987 30.7489 13.646C30.8075 13.5934 30.8551 13.5296 30.8891 13.4585C30.923 13.3874 30.9427 13.3104 30.9468 13.2317C30.951 13.153 30.9396 13.0742 30.9134 13C30.7474 12.5323 30.4408 12.1274 30.0356 11.8409C29.6303 11.5544 29.1464 11.4004 28.6501 11.3999Z" fill="black"/>
<path d="M25.6501 15.5999C25.8092 15.5999 25.9618 15.5367 26.0744 15.4242C26.1869 15.3116 26.2501 15.159 26.2501 14.9999C26.2501 14.8408 26.1869 14.6882 26.0744 14.5756C25.9618 14.4631 25.8092 14.3999 25.6501 14.3999C25.1727 14.3999 24.7149 14.5895 24.3773 14.9271C24.0397 15.2647 23.8501 15.7225 23.8501 16.1999C23.8501 16.6773 24.0397 17.1351 24.3773 17.4727C24.7149 17.8103 25.1727 17.9999 25.6501 17.9999C25.8092 17.9999 25.9618 17.9367 26.0744 17.8242C26.1869 17.7116 26.2501 17.559 26.2501 17.3999C26.2501 17.2408 26.1869 17.0882 26.0744 16.9756C25.9618 16.8631 25.8092 16.7999 25.6501 16.7999C25.491 16.7999 25.3384 16.7367 25.2258 16.6242C25.1133 16.5116 25.0501 16.359 25.0501 16.1999C25.0501 16.0408 25.1133 15.8882 25.2258 15.7756C25.3384 15.6631 25.491 15.5999 25.6501 15.5999Z" fill="black"/>
<path d="M4.1999 25.7998H2.9999C2.84077 25.7998 2.68816 25.863 2.57564 25.9755C2.46312 26.0881 2.3999 26.2407 2.3999 26.3998C2.3999 26.5589 2.46312 26.7115 2.57564 26.8241C2.68816 26.9366 2.84077 26.9998 2.9999 26.9998H4.1999C4.35903 26.9998 4.51164 26.9366 4.62417 26.8241C4.73669 26.7115 4.7999 26.5589 4.7999 26.3998C4.7999 26.2407 4.73669 26.0881 4.62417 25.9755C4.51164 25.863 4.35903 25.7998 4.1999 25.7998Z" fill="black"/>
<path d="M31.8002 26.9998H33.0002C33.1593 26.9998 33.3119 26.9366 33.4245 26.8241C33.537 26.7115 33.6002 26.5589 33.6002 26.3998C33.6002 26.2407 33.537 26.0881 33.4245 25.9755C33.3119 25.863 33.1593 25.7998 33.0002 25.7998H31.8002C31.6411 25.7998 31.4885 25.863 31.3759 25.9755C31.2634 26.0881 31.2002 26.2407 31.2002 26.3998C31.2002 26.5589 31.2634 26.7115 31.3759 26.8241C31.4885 26.9366 31.6411 26.9998 31.8002 26.9998Z" fill="black"/>
<path d="M18.5998 25.7998H17.3998C17.2407 25.7998 17.0881 25.863 16.9755 25.9755C16.863 26.0881 16.7998 26.2407 16.7998 26.3998C16.7998 26.5589 16.863 26.7115 16.9755 26.8241C17.0881 26.9366 17.2407 26.9998 17.3998 26.9998H18.5998C18.7589 26.9998 18.9115 26.9366 19.0241 26.8241C19.1366 26.7115 19.1998 26.5589 19.1998 26.3998C19.1998 26.2407 19.1366 26.0881 19.0241 25.9755C18.9115 25.863 18.7589 25.7998 18.5998 25.7998Z" fill="black"/>
<path d="M14.1448 22.8C14.2635 22.8 14.3795 22.7648 14.4782 22.6989C14.5769 22.633 14.6538 22.5393 14.6992 22.4296C14.7446 22.32 14.7565 22.1993 14.7333 22.083C14.7102 21.9666 14.653 21.8597 14.5691 21.7757C14.4833 21.6901 14.4267 21.5797 14.4073 21.4601C14.3879 21.3405 14.4067 21.2178 14.461 21.1094L14.6815 20.6684C14.7512 20.5262 14.7619 20.3623 14.7112 20.2123C14.6606 20.0623 14.5527 19.9384 14.4111 19.8676C14.2695 19.7967 14.1057 19.7848 13.9553 19.8342C13.8049 19.8837 13.6801 19.9906 13.6082 20.1317L13.3873 20.5725C13.2202 20.9061 13.1624 21.2838 13.2221 21.6521C13.2819 22.0204 13.4562 22.3605 13.7203 22.6241C13.7759 22.6799 13.8421 22.7242 13.915 22.7544C13.9879 22.7846 14.066 22.8001 14.1448 22.8Z" fill="black"/>
</svg>
