<svg width="40" height="40" viewBox="0 0 40 40" fill="none" xmlns="http://www.w3.org/2000/svg">
<g clip-path="url(#clip0_207_1873)">
<path d="M7.71873 11.2714C6.43157 9.95435 4.3204 9.93018 3.00332 11.2173C2.38598 11.8207 2.02665 12.6399 2.00098 13.5028C0.725315 14.2388 0.287815 15.8695 1.02382 17.1452C1.75982 18.4208 3.39057 18.8583 4.66623 18.1223C5.15132 17.8425 5.5359 17.417 5.76565 16.9063C6.30173 16.8361 6.81265 16.6367 7.25457 16.3253C8.60873 16.9043 10.1759 16.2758 10.7549 14.9217C11.3339 13.5675 10.7055 12.0003 9.35131 11.4213C8.8364 11.2012 8.26515 11.1488 7.71873 11.2714Z" fill="#3BBC56"/>
<path d="M6.54537 17.3735C6.27062 17.3736 6.02395 17.2051 5.92412 16.9491L4.71228 13.8438C4.57845 13.5008 4.74803 13.1142 5.09103 12.9803C5.43403 12.8465 5.82062 13.0161 5.95445 13.3591L7.16653 16.4644C7.30045 16.8074 7.13103 17.1939 6.78803 17.3279C6.71078 17.358 6.62853 17.3735 6.54562 17.3735H6.54537Z" fill="#3BBC56"/>
<path d="M7.78804 16.8889C7.76762 16.8889 7.74704 16.8879 7.72629 16.8861C7.35962 16.8524 7.08971 16.5278 7.12346 16.1611V16.1611C7.22737 15.0544 7.68512 14.0107 8.42887 13.1847C8.67354 12.9095 9.09487 12.8847 9.37004 13.1294C9.64521 13.3741 9.66996 13.7954 9.42529 14.0706C9.42287 14.0733 9.42037 14.0761 9.41787 14.0788C8.86712 14.6906 8.52821 15.4635 8.45121 16.283C8.41979 16.6259 8.13237 16.8885 7.78804 16.8889Z" fill="#3BBC56"/>
<path d="M5.30314 17.8582C5.13797 17.8583 4.97864 17.797 4.85622 17.686C4.24456 17.1353 3.47164 16.7963 2.65214 16.7193C2.28547 16.6857 2.01556 16.3611 2.04922 15.9944C2.08289 15.6278 2.40747 15.3578 2.77414 15.3915C3.88056 15.4955 4.92414 15.9531 5.75014 16.6966C6.02347 16.9433 6.04506 17.3648 5.79839 17.6382C5.67189 17.7783 5.49197 17.8583 5.30314 17.8582Z" fill="#3BBC56"/>
<path d="M14.3616 29.4002L9.39314 31.3393L4.60456 21.7403C3.70414 19.935 4.43764 17.7415 6.24306 16.8411C6.34172 16.7918 6.44264 16.7471 6.54531 16.707C8.42464 15.9736 10.5427 16.9025 11.2762 18.7819C11.3164 18.8848 11.3518 18.9894 11.3825 19.0955L14.3616 29.4002Z" fill="#FA962A"/>
<path d="M21.3335 0.666504H24.0002V19.3332H21.3335V0.666504Z" fill="#3BBC56"/>
<path d="M22.5927 14.1618C22.5293 13.761 22.4237 13.3679 22.2777 12.9893L19.3335 5.3335L17.3335 6.00016L20.1893 13.4252C20.5051 14.2461 20.667 15.1181 20.6668 15.9977V18.3635L22.5927 14.1618Z" fill="#3BBC56"/>
<path d="M25.5255 25.8127C26.2013 26.7139 26.2013 27.9531 25.5255 28.8543L25.5163 28.8668C24.9813 29.5802 24.1415 30.0002 23.2497 30.0002H22.083C21.1912 30.0002 20.3514 29.5802 19.8163 28.8668L19.8072 28.8543C19.1313 27.9531 19.1313 26.7139 19.8072 25.8127L20.6663 24.6668V18.3635L22.5922 14.1618L22.6663 14.0002L25.9997 5.3335L27.9997 6.00016L25.1438 13.4252C24.8281 14.2461 24.6662 15.1181 24.6663 15.9977V24.6668L25.5255 25.8127Z" fill="#3BBC56"/>
<path d="M25.5255 28.8542L25.5163 28.8667C25.2361 29.2409 24.8672 29.5396 24.443 29.7359L20.4572 29.4867C20.2119 29.3156 19.9956 29.1062 19.8163 28.8667L19.8072 28.8542C19.1313 27.953 19.1313 26.7138 19.8072 25.8126L19.8663 25.7334L20.6663 25.3334L24.6663 15.9976V24.6667L25.5255 25.8126C26.2013 26.7138 26.2013 27.953 25.5255 28.8542Z" fill="#3BBC56"/>
<path d="M5.37893 23.5538C5.01076 23.5543 4.71184 23.2562 4.71143 22.888C4.71109 22.6127 4.87993 22.3656 5.13643 22.2658L6.37851 21.7811C6.72151 21.6473 7.1081 21.8168 7.24201 22.1598C7.37593 22.5028 7.20635 22.8894 6.86326 23.0233L5.62159 23.5081C5.54426 23.5383 5.46193 23.5538 5.37893 23.5538Z" fill="#FA962A"/>
<path d="M9.1054 22.0996C8.73724 22.1 8.43841 21.8019 8.43799 21.4337C8.43766 21.1586 8.60641 20.9115 8.86282 20.8117L10.105 20.327C10.448 20.1932 10.8346 20.3628 10.9684 20.7058C11.1022 21.0488 10.9326 21.4354 10.5897 21.5692L9.34799 22.0539C9.27065 22.0841 9.1884 22.0996 9.1054 22.0996Z" fill="#FA962A"/>
<path d="M6.4507 25.9775C6.08254 25.978 5.78362 25.6799 5.7832 25.3117C5.78287 25.0364 5.9517 24.7892 6.2082 24.6895L7.96903 24.0228C8.31203 23.889 8.6987 24.0586 8.83253 24.4016C8.96637 24.7446 8.79678 25.1312 8.45378 25.2651L6.69287 25.9317C6.6157 25.9619 6.53354 25.9774 6.4507 25.9775Z" fill="#FA962A"/>
<path d="M10.6957 24.3417C10.3275 24.3421 10.0287 24.0439 10.0283 23.6757C10.0281 23.4007 10.1968 23.1537 10.4532 23.0538L11.0742 22.8114C11.4172 22.6776 11.8038 22.8472 11.9377 23.1902C12.0715 23.5332 11.9019 23.9198 11.5588 24.0537L10.9377 24.2961C10.8607 24.3262 10.7785 24.3417 10.6957 24.3417Z" fill="#FA962A"/>
<path d="M14.4165 15.3335H15.9988C17.0721 15.3335 18.0533 15.9401 18.5332 16.9002L19.0832 18.0002H17.5009C16.4278 18.0002 15.4467 17.3938 14.9668 16.4339L14.4165 15.3335Z" fill="#3BBC56"/>
<path d="M17.6359 21.8335C17.2677 21.8335 16.9692 21.535 16.9692 21.1668C16.9742 18.9126 18.5643 16.973 20.7738 16.5261L20.8386 16.5131C21.1997 16.4409 21.5508 16.6751 21.623 17.0361C21.6952 17.3972 21.461 17.7484 21.0999 17.8206L21.0352 17.8335C19.4482 18.1545 18.3061 19.5477 18.3026 21.1668C18.3026 21.535 18.0041 21.8335 17.6359 21.8335Z" fill="#B27946"/>
<path d="M25.5255 28.8542L25.5163 28.8667C25.2361 29.2409 24.8672 29.5396 24.443 29.7359L20.4572 29.4867C20.2119 29.3156 19.9956 29.1062 19.8163 28.8667L19.8072 28.8542C19.1313 27.953 19.1313 26.7138 19.8072 25.8126L19.8663 25.7334L20.6663 25.3334L24.6663 15.9976V24.6667L25.5255 25.8126C26.2013 26.7138 26.2013 27.953 25.5255 28.8542Z" fill="#E5E5E5"/>
<path d="M15.249 19.8335C15.9073 19.8335 16.5221 20.1625 16.8872 20.7102C17.163 21.1238 17.7217 21.2356 18.1353 20.9598C18.2341 20.8939 18.319 20.8091 18.3849 20.7102C18.7501 20.1625 19.3648 19.8335 20.0231 19.8335C20.6211 19.8335 21.1868 20.1053 21.5605 20.5724L21.7171 20.7681C22.8666 22.205 22.9832 24.2112 22.008 25.7717L20.7071 27.8531C20.4556 28.2557 20.0143 28.5002 19.5396 28.5002C19.1745 28.5002 18.8243 28.3551 18.5661 28.0969C18.0525 27.5832 17.2196 27.5832 16.706 28.0969C16.4478 28.3551 16.0976 28.5002 15.7325 28.5002C15.2578 28.5002 14.8166 28.2557 14.565 27.8531L13.2641 25.7717C12.2889 24.2112 12.4055 22.205 13.5551 20.7681L13.7116 20.5724C14.0852 20.1054 14.6509 19.8335 15.249 19.8335Z" fill="#E91E63"/>
<path d="M15.7167 25.333C15.5399 25.3332 15.3702 25.2629 15.2453 25.1377C14.6433 24.537 14.4941 23.6182 14.8751 22.858L15.1202 22.3679C15.2874 22.0399 15.6889 21.9095 16.0169 22.0768C16.3413 22.2422 16.473 22.6373 16.3127 22.9642L16.0677 23.4543C15.9439 23.7012 15.9923 23.9995 16.1878 24.1946C16.4483 24.4548 16.4486 24.877 16.1883 25.1375C16.0633 25.2626 15.8937 25.333 15.7167 25.333Z" fill="#F87C68"/>
<path d="M0.666504 31.3335H39.3332V35.3335H0.666504V31.3335Z" fill="#FA962A"/>
<path d="M4.6665 33.9998H3.33317C2.965 33.9998 2.6665 33.7013 2.6665 33.3332C2.6665 32.965 2.965 32.6665 3.33317 32.6665H4.6665C5.03467 32.6665 5.33317 32.965 5.33317 33.3332C5.33317 33.7013 5.03467 33.9998 4.6665 33.9998Z" fill="#FA962A"/>
<path d="M36.6665 33.9998H35.3332C34.965 33.9998 34.6665 33.7013 34.6665 33.3332C34.6665 32.965 34.965 32.6665 35.3332 32.6665H36.6665C37.0347 32.6665 37.3332 32.965 37.3332 33.3332C37.3332 33.7013 37.0347 33.9998 36.6665 33.9998Z" fill="#FA962A"/>
<path d="M0.666504 35.3335H39.3332V39.3335H0.666504V35.3335Z" fill="#FA962A"/>
<path d="M4.6665 37.9998H3.33317C2.965 37.9998 2.6665 37.7013 2.6665 37.3332C2.6665 36.965 2.965 36.6665 3.33317 36.6665H4.6665C5.03467 36.6665 5.33317 36.965 5.33317 37.3332C5.33317 37.7013 5.03467 37.9998 4.6665 37.9998Z" fill="#FA962A"/>
<path d="M20.6665 33.9998H19.3332C18.965 33.9998 18.6665 33.7013 18.6665 33.3332C18.6665 32.965 18.965 32.6665 19.3332 32.6665H20.6665C21.0347 32.6665 21.3332 32.965 21.3332 33.3332C21.3332 33.7013 21.0347 33.9998 20.6665 33.9998Z" fill="#FA962A"/>
<path d="M20.6665 37.9998H19.3332C18.965 37.9998 18.6665 37.7013 18.6665 37.3332C18.6665 36.965 18.965 36.6665 19.3332 36.6665H20.6665C21.0347 36.6665 21.3332 36.965 21.3332 37.3332C21.3332 37.7013 21.0347 37.9998 20.6665 37.9998Z" fill="#FA962A"/>
<path d="M36.6665 37.9998H35.3332C34.965 37.9998 34.6665 37.7013 34.6665 37.3332C34.6665 36.965 34.965 36.6665 35.3332 36.6665H36.6665C37.0347 36.6665 37.3332 36.965 37.3332 37.3332C37.3332 37.7013 37.0347 37.9998 36.6665 37.9998Z" fill="#FA962A"/>
<path d="M28 23.3332L28.5857 23.9189C29.4913 24.8244 30 26.0526 30 27.3332H32V26.6665C32 25.3859 31.4913 24.1578 30.5858 23.2523L30 22.6665L28 23.3332Z" fill="#3BBC56"/>
<path d="M36 23.3332L35.4142 23.9189C34.5087 24.8244 34 26.0526 34 27.3332H32V26.6665C32 25.3859 32.5088 24.1578 33.4142 23.2523L34 22.6665L36 23.3332Z" fill="#3BBC56"/>
<path d="M39.3334 18.1669C39.334 17.424 39.0036 16.7195 38.4321 16.245C38.7517 14.9024 37.9224 13.5549 36.5798 13.2354C36.444 13.203 36.3059 13.1822 36.1667 13.1729C34.79 10.7799 31.7341 9.95603 29.3411 11.3327C28.5759 11.7729 27.941 12.4078 27.5008 13.1729C26.1238 13.2642 25.0813 14.4544 25.1726 15.8315C25.1818 15.9709 25.2027 16.1092 25.235 16.245C24.1791 17.1228 24.0293 18.688 24.8994 19.7502C24.0256 21.3705 24.6308 23.3924 26.2511 24.2663C27.4135 24.8931 28.8363 24.7746 29.8791 23.9641C30.5884 23.8714 31.2617 23.5968 31.8334 23.1669C32.405 23.5969 33.0783 23.8715 33.7876 23.9643C35.241 25.0942 37.3352 24.832 38.4651 23.3786C39.2759 22.3359 39.3944 20.9127 38.7673 19.7502C39.1339 19.3041 39.3341 18.7444 39.3334 18.1669Z" fill="#3BBC56"/>
<path d="M33.7195 15.333C33.4369 15.333 33.185 15.1549 33.0909 14.8884C32.845 14.1938 32.0826 13.8301 31.3881 14.076C31.0086 14.2104 30.7101 14.5089 30.5757 14.8884C30.4531 15.2355 30.0721 15.4174 29.725 15.2948C29.3778 15.1721 29.1959 14.7912 29.3185 14.444C29.8099 13.0552 31.3341 12.3276 32.7231 12.819C33.4823 13.0876 34.0795 13.6849 34.3481 14.444C34.4708 14.7911 34.289 15.1721 33.9419 15.2949C33.8705 15.3201 33.7952 15.333 33.7195 15.333Z" fill="#3BBC56"/>
<path d="M28.5 20C27.3954 20 26.5 19.1046 26.5 18C26.5 16.8954 27.3954 16 28.5 16C28.8682 16 29.1667 16.2985 29.1667 16.6667C29.1667 17.0348 28.8682 17.3333 28.5 17.3333C28.1318 17.3333 27.8333 17.6318 27.8333 18C27.8333 18.3682 28.1318 18.6667 28.5 18.6667C28.8682 18.6667 29.1667 18.9652 29.1667 19.3333C29.1667 19.7015 28.8682 20 28.5 20Z" fill="#3BBC56"/>
<path d="M0.666504 27.3335H39.3332V31.3335H0.666504V27.3335Z" fill="#FA962A"/>
<path d="M4.6665 29.9998H3.33317C2.965 29.9998 2.6665 29.7013 2.6665 29.3332C2.6665 28.965 2.965 28.6665 3.33317 28.6665H4.6665C5.03467 28.6665 5.33317 28.965 5.33317 29.3332C5.33317 29.7013 5.03467 29.9998 4.6665 29.9998Z" fill="#FA962A"/>
<path d="M36.6665 29.9998H35.3332C34.965 29.9998 34.6665 29.7013 34.6665 29.3332C34.6665 28.965 34.965 28.6665 35.3332 28.6665H36.6665C37.0347 28.6665 37.3332 28.965 37.3332 29.3332C37.3332 29.7013 37.0347 29.9998 36.6665 29.9998Z" fill="#FA962A"/>
<path d="M20.6665 29.9998H19.3332C18.965 29.9998 18.6665 29.7013 18.6665 29.3332C18.6665 28.965 18.965 28.6665 19.3332 28.6665H20.6665C21.0347 28.6665 21.3332 28.965 21.3332 29.3332C21.3332 29.7013 21.0347 29.9998 20.6665 29.9998Z" fill="#FA962A"/>
<path d="M3.33317 33.9998H4.6665C5.03467 33.9998 5.33317 33.7013 5.33317 33.3332C5.33317 32.965 5.03467 32.6665 4.6665 32.6665H3.33317C2.965 32.6665 2.6665 32.965 2.6665 33.3332C2.6665 33.7013 2.965 33.9998 3.33317 33.9998Z" fill="black"/>
<path d="M35.3332 33.9998H36.6665C37.0347 33.9998 37.3332 33.7013 37.3332 33.3332C37.3332 32.965 37.0347 32.6665 36.6665 32.6665H35.3332C34.965 32.6665 34.6665 32.965 34.6665 33.3332C34.6665 33.7013 34.965 33.9998 35.3332 33.9998Z" fill="black"/>
<path d="M3.33317 37.9998H4.6665C5.03467 37.9998 5.33317 37.7013 5.33317 37.3332C5.33317 36.965 5.03467 36.6665 4.6665 36.6665H3.33317C2.965 36.6665 2.6665 36.965 2.6665 37.3332C2.6665 37.7013 2.965 37.9998 3.33317 37.9998Z" fill="black"/>
<path d="M19.3332 33.9998H20.6665C21.0347 33.9998 21.3332 33.7013 21.3332 33.3332C21.3332 32.965 21.0347 32.6665 20.6665 32.6665H19.3332C18.965 32.6665 18.6665 32.965 18.6665 33.3332C18.6665 33.7013 18.965 33.9998 19.3332 33.9998Z" fill="black"/>
<path d="M19.3332 37.9998H20.6665C21.0347 37.9998 21.3332 37.7013 21.3332 37.3332C21.3332 36.965 21.0347 36.6665 20.6665 36.6665H19.3332C18.965 36.6665 18.6665 36.965 18.6665 37.3332C18.6665 37.7013 18.965 37.9998 19.3332 37.9998Z" fill="black"/>
<path d="M35.3332 37.9998H36.6665C37.0347 37.9998 37.3332 37.7013 37.3332 37.3332C37.3332 36.965 37.0347 36.6665 36.6665 36.6665H35.3332C34.965 36.6665 34.6665 36.965 34.6665 37.3332C34.6665 37.7013 34.965 37.9998 35.3332 37.9998Z" fill="black"/>
<path d="M10.9686 20.7058C10.8347 20.3628 10.4482 20.1932 10.1052 20.327L8.863 20.8117C8.52 20.9455 8.35042 21.3322 8.48425 21.6752C8.61809 22.0182 9.00475 22.1878 9.34775 22.054L10.5898 21.5692C10.9328 21.4354 11.1024 21.0489 10.9686 20.7058Z" fill="black"/>
<path d="M39.1483 16.006C39.3272 14.3552 38.1996 12.8468 36.5656 12.5512C34.8461 9.93758 31.3335 9.21283 28.7199 10.9323C28.0758 11.3562 27.5249 11.907 27.1011 12.5512C26.7262 12.6192 26.3668 12.7549 26.0405 12.9518L28.6223 6.23933C28.7544 5.89567 28.5831 5.50992 28.2394 5.37775C28.23 5.37408 28.2204 5.37067 28.2108 5.3675L26.2108 4.70083C25.8726 4.58792 25.5054 4.76117 25.3775 5.094L24.6667 6.94283V0.666667C24.6667 0.2985 24.3682 0 24 0H21.3333C20.9652 0 20.6667 0.2985 20.6667 0.666667V6.94317L19.9556 5.09408C19.8277 4.76125 19.4605 4.58792 19.1222 4.70083L17.1222 5.3675C16.7729 5.48392 16.5842 5.86142 16.7006 6.21075C16.7038 6.22033 16.7072 6.22992 16.7108 6.23933L19.5667 13.6643C19.8538 14.4088 20.0007 15.1998 20.0001 15.9977V16.7509C19.7781 16.836 19.5629 16.9377 19.3563 17.0552L19.1295 16.6016C18.5402 15.4126 17.326 14.6622 15.9989 14.6667H14.4167C14.0485 14.6667 13.75 14.9652 13.75 15.3333C13.75 15.4368 13.7741 15.5389 13.8204 15.6315L14.3704 16.7315C14.9598 17.9207 16.1739 18.6712 17.5011 18.6667H17.681C17.4335 19.0657 17.2469 19.4994 17.1275 19.9535C16.1064 18.9161 14.4377 18.9028 13.4002 19.9238C13.326 19.9969 13.2561 20.0743 13.191 20.1558L13.0345 20.3515C12.8802 20.5447 12.7404 20.749 12.6164 20.9629L12.0229 18.9099C11.7423 17.9444 11.1344 17.1067 10.3036 16.5404C11.5 15.6418 11.9514 14.0563 11.4077 12.6622C10.8527 11.2613 9.43217 10.4019 7.93375 10.5608C6.25383 9.125 3.728 9.32292 2.29217 11.0029C1.77908 11.6032 1.45517 12.3418 1.36108 13.1258C0.1515 14.0243 -0.3115 15.6185 0.228833 17.025C0.769167 18.4221 2.17783 19.2846 3.66783 19.1307C3.44042 20.1098 3.56075 21.1377 4.00833 22.0378L6.31725 26.6667H0.666667C0.2985 26.6667 0 26.9652 0 27.3333V39.3333C0 39.7015 0.2985 40 0.666667 40H39.3333C39.7015 40 40 39.7015 40 39.3333V27.3333C40 26.9652 39.7015 26.6667 39.3333 26.6667H35.1583C35.2342 26.1969 35.3903 25.7438 35.6201 25.3272C35.6908 25.3308 35.7618 25.3333 35.8331 25.3333C38.0428 25.3328 39.8337 23.541 39.8331 21.3313C39.8329 20.8121 39.7318 20.2978 39.5351 19.8172C40.2767 18.604 40.1184 17.0453 39.148 16.006H39.1483ZM31.8857 25.5518C31.7887 25.081 31.6297 24.6252 31.4129 24.1961C31.5565 24.1276 31.697 24.0525 31.8333 23.9702C31.9966 24.0683 32.1655 24.1567 32.3392 24.2348C32.1325 24.6527 31.9802 25.0953 31.8857 25.5518ZM30.1235 24.6118C30.4803 25.2378 30.6675 25.9462 30.6667 26.6667H29.9598C29.8882 26.0833 29.723 25.5152 29.4706 24.9843C29.6994 24.8809 29.9181 24.7563 30.1235 24.6118ZM28.1476 25.3213C28.3791 25.7395 28.5364 26.1947 28.6126 26.6667H26.6287C26.5324 26.2122 26.338 25.7842 26.0592 25.4126L25.348 24.464C26.0538 25.0274 26.9303 25.334 27.8333 25.3333C27.9389 25.3333 28.0437 25.3293 28.1476 25.3213ZM22.5733 26.125C23.4161 24.7736 23.5656 23.1018 22.976 21.6223L23.8984 19.3495C23.9633 19.5115 24.0413 19.6679 24.1318 19.8172C23.7858 20.6618 23.7393 21.5994 24 22.4742V24.6667C24 24.8109 24.0468 24.9513 24.1333 25.0667L24.9926 26.2127C25.0967 26.3517 25.1808 26.5045 25.2426 26.6668H22.2343L22.5733 26.125ZM26.3936 6.16725L27.1273 6.41183L24.522 13.1856C24.2353 13.9308 24.0649 14.7157 24.0167 15.5127L22.115 20.1982L22.0811 20.1558C21.8743 19.8971 21.6206 19.6797 21.3333 19.5148V18.5088L26.3936 6.16725ZM22 10.3333V1.33333H23.3333V10.152C23.3334 10.2153 23.3426 10.2783 23.3604 10.3391L22.6667 12.1433L21.9967 10.4017C21.999 10.379 22.0001 10.3562 22 10.3333ZM18.206 6.41183L18.9393 6.16725L21.6552 13.2293C21.7605 13.5038 21.8418 13.7869 21.8983 14.0755L21.3066 15.3672C21.2472 14.62 21.0805 13.8853 20.8113 13.1857L18.206 6.41183ZM20 18.3633V19.1673C19.5573 19.171 19.1226 19.2863 18.7363 19.5025C19.0348 18.9703 19.4713 18.5283 20 18.2234V18.3633ZM15.5632 16.1356L15.4953 16H15.9989C16.8204 15.9972 17.572 16.4618 17.9368 17.1978L18.0047 17.3333H17.5011C16.6796 17.3362 15.928 16.8716 15.5632 16.1356ZM14.0756 21.1844L14.2322 20.9888C14.6815 20.4272 15.501 20.3363 16.0625 20.7857C16.167 20.8693 16.2579 20.9685 16.3322 21.0798C16.8121 21.7998 17.7848 21.9943 18.5048 21.5143C18.6768 21.3996 18.8245 21.2519 18.9393 21.0798C19.2684 20.5868 19.8888 20.3779 20.4491 20.5715C20.4533 20.5729 20.4574 20.5747 20.4616 20.576C20.6889 20.6572 20.8891 20.8002 21.0397 20.9888L21.1962 21.1844C22.1674 22.4008 22.2661 24.0976 21.4423 25.4184L20.6623 26.6667H14.6098L13.8295 25.4183C13.0057 24.0976 13.1042 22.4008 14.0756 21.1844ZM11.9473 23.2178C11.9458 23.2133 11.9445 23.2088 11.9429 23.2043L11.9477 23.2097C11.9475 23.2127 11.9475 23.2153 11.9473 23.2181V23.2178ZM1.47092 16.54C1.11667 15.6198 1.48183 14.5783 2.33333 14.0809C2.53392 13.9655 2.66025 13.7543 2.66717 13.523C2.71017 12.0505 3.93883 10.8917 5.41125 10.9347C6.10258 10.9549 6.759 11.2429 7.24217 11.7378C7.40392 11.9033 7.63992 11.973 7.86567 11.922C8.829 11.7113 9.803 12.23 10.1657 13.147C10.5693 14.1713 10.0661 15.3289 9.04175 15.7325C8.896 15.7899 8.744 15.83 8.58883 15.8518C8.56558 15.848 8.5425 15.8435 8.51925 15.8398C8.65967 15.1842 8.96958 14.5771 9.41808 14.0788C9.66725 13.8077 9.64958 13.386 9.3785 13.1368C9.10742 12.8876 8.68575 12.9053 8.4365 13.1763C8.434 13.1791 8.4315 13.1818 8.429 13.1846C7.80058 13.8832 7.37425 14.7397 7.19567 15.6622C7.08817 15.6718 6.98458 15.7076 6.894 15.7663L5.9545 13.359C5.82067 13.016 5.43408 12.8464 5.09108 12.9803C4.74808 13.1141 4.5785 13.5007 4.71233 13.8437L5.65183 16.251C5.54542 16.2693 5.44508 16.3131 5.35933 16.3787C4.60308 15.8211 3.70933 15.4799 2.77392 15.3917C2.40725 15.358 2.08267 15.6279 2.049 15.9946C2.01533 16.3612 2.28525 16.6858 2.65192 16.7195C3.31933 16.7823 3.95867 17.0191 4.506 17.4062C4.49117 17.4246 4.47733 17.4438 4.46283 17.4623C3.5565 18.0876 2.31483 17.8597 1.68958 16.9533C1.60083 16.8247 1.52758 16.6861 1.47117 16.5403L1.47092 16.54ZM7.32733 25.7047L8.454 25.265C8.7975 25.1324 8.96842 24.7465 8.83583 24.403C8.70325 24.0595 8.31733 23.8886 7.97383 24.0212C7.97233 24.0218 7.97075 24.0223 7.96925 24.023L6.72975 24.5068L6.13208 23.3084L6.8635 23.023C7.2065 22.8892 7.37608 22.5026 7.24225 22.1595C7.10842 21.8164 6.72183 21.6469 6.37875 21.7808L5.53442 22.1103L5.20108 21.4424C4.82242 20.6927 4.781 19.8173 5.087 19.0351C5.81833 17.3064 7.96075 16.9388 9.19533 17.4323C9.95008 17.8003 10.5124 18.4724 10.7417 19.2803L11.8027 22.9506C11.8069 22.9652 11.8123 22.9791 11.8174 22.9932C11.6327 22.7822 11.3356 22.7094 11.0743 22.8111L10.4532 23.0535C10.1102 23.1873 9.94058 23.5739 10.0744 23.9169C10.2083 24.2599 10.5948 24.4295 10.9378 24.2957L11.5589 24.0533C11.7389 23.9831 11.8795 23.8381 11.944 23.6559C11.9744 24.5309 12.2347 25.3825 12.6985 26.1251L13.037 26.6668H7.80725L7.32733 25.7047ZM38.6667 34.6667H1.33333V32H38.6667V34.6667ZM38.6667 38.6667H1.33333V36H38.6667V38.6667ZM38.6667 30.6667H1.33333V28H38.6667V30.6667ZM33.8114 26.6667H33.1045C33.104 25.9662 33.281 25.277 33.6188 24.6633C33.8283 24.8036 34.0508 24.9236 34.283 25.0217C34.0404 25.5418 33.8813 26.097 33.8114 26.6667ZM38.2518 19.3274C38.0801 19.5368 38.052 19.8292 38.1808 20.0673C38.8796 21.3643 38.3948 22.9821 37.0978 23.6808C36.7093 23.8903 36.2747 23.9999 35.8333 24C35.2403 24.0018 34.664 23.8039 34.1973 23.4382C34.1035 23.3652 33.992 23.3185 33.8742 23.3031C33.2789 23.2247 32.7139 22.9942 32.2337 22.6337C31.9966 22.4555 31.6701 22.4555 31.4329 22.6337C30.9528 22.9942 30.3878 23.2247 29.7925 23.3031C29.6747 23.3185 29.5632 23.3652 29.4694 23.4382C29.0027 23.8039 28.4263 24.0018 27.8333 24C26.3602 23.9996 25.1663 22.805 25.1667 21.3318C25.1667 20.8904 25.2765 20.4559 25.4858 20.0673C25.6147 19.8292 25.5866 19.5368 25.4149 19.3274C24.9289 18.7346 24.8638 17.9018 25.2516 17.2405L25.2533 17.2377C25.3607 17.0552 25.4988 16.8927 25.6616 16.7572C25.8559 16.5953 25.9419 16.3374 25.8837 16.0913C25.6489 15.107 26.2565 14.1188 27.2408 13.884C27.3406 13.8602 27.4422 13.8448 27.5445 13.838C27.7668 13.8234 27.967 13.6988 28.0783 13.5058C29.2709 11.4318 31.9192 10.7173 33.9933 11.91C34.6568 12.2916 35.2075 12.8423 35.5891 13.5058C35.7003 13.6988 35.9006 13.8234 36.1228 13.838C37.1324 13.905 37.8966 14.7777 37.8297 15.7873C37.8228 15.8898 37.8075 15.9913 37.7837 16.0912C37.7253 16.3373 37.8113 16.5953 38.0058 16.7572C38.4249 17.1052 38.6673 17.6218 38.6667 18.1667C38.6684 18.5902 38.5216 19.0009 38.2518 19.3274Z" fill="black"/>
<path d="M31.8333 12.6665C30.7034 12.6676 29.6965 13.3795 29.3185 14.4443C29.1959 14.7915 29.3778 15.1724 29.725 15.2951C30.0721 15.4177 30.453 15.2358 30.5757 14.8887C30.8216 14.1941 31.584 13.8304 32.2785 14.0763C32.658 14.2107 32.9565 14.5092 33.0909 14.8887C33.2135 15.2358 33.5945 15.4177 33.9416 15.2951C34.2888 15.1724 34.4707 14.7915 34.348 14.4443C33.9701 13.3795 32.9632 12.6676 31.8333 12.6665Z" fill="black"/>
<path d="M28.5 17.3333C28.8682 17.3333 29.1667 17.0348 29.1667 16.6667C29.1667 16.2985 28.8682 16 28.5 16C27.3954 16 26.5 16.8954 26.5 18C26.5 19.1046 27.3954 20 28.5 20C28.8682 20 29.1667 19.7015 29.1667 19.3333C29.1667 18.9652 28.8682 18.6667 28.5 18.6667C28.1318 18.6667 27.8333 18.3682 27.8333 18C27.8333 17.6318 28.1318 17.3333 28.5 17.3333Z" fill="black"/>
<path d="M4.6665 28.6665H3.33317C2.965 28.6665 2.6665 28.965 2.6665 29.3332C2.6665 29.7013 2.965 29.9998 3.33317 29.9998H4.6665C5.03467 29.9998 5.33317 29.7013 5.33317 29.3332C5.33317 28.965 5.03467 28.6665 4.6665 28.6665Z" fill="black"/>
<path d="M35.3332 29.9998H36.6665C37.0347 29.9998 37.3332 29.7013 37.3332 29.3332C37.3332 28.965 37.0347 28.6665 36.6665 28.6665H35.3332C34.965 28.6665 34.6665 28.965 34.6665 29.3332C34.6665 29.7013 34.965 29.9998 35.3332 29.9998Z" fill="black"/>
<path d="M20.6665 28.6665H19.3332C18.965 28.6665 18.6665 28.965 18.6665 29.3332C18.6665 29.7013 18.965 29.9998 19.3332 29.9998H20.6665C21.0347 29.9998 21.3332 29.7013 21.3332 29.3332C21.3332 28.965 21.0347 28.6665 20.6665 28.6665Z" fill="black"/>
<path d="M15.7167 25.3327C16.0849 25.3327 16.3834 25.0343 16.3834 24.6661C16.3834 24.4892 16.3132 24.3197 16.1882 24.1947C15.9927 23.9996 15.9442 23.7012 16.068 23.4543L16.313 22.9642C16.4751 22.6336 16.3385 22.2342 16.0079 22.0721C15.681 21.9118 15.2858 22.0435 15.1205 22.3679L14.8751 22.8577C14.4942 23.6179 14.6432 24.5366 15.245 25.1372C15.3699 25.2626 15.5397 25.333 15.7167 25.3327Z" fill="black"/>
</g>
<defs>
<clipPath id="clip0_207_1873">
<rect width="40" height="40" fill="white"/>
</clipPath>
</defs>
</svg>
