<svg width="273" height="239" viewBox="0 0 273 239" fill="none" xmlns="http://www.w3.org/2000/svg">
<path d="M270.993 231.268C270.993 231.268 247.898 237.302 219.406 237.302C190.916 237.302 167.819 231.268 167.819 231.268C167.819 231.268 190.916 225.236 219.406 225.236C247.898 225.236 270.993 231.268 270.993 231.268Z" fill="#CBB59B"/>
<path d="M252.193 65.8283L263.462 66.5186C263.462 66.5186 268.493 41.3626 265.442 34.1514C264.984 33.0615 264.339 32.3839 263.462 32.2614C260.018 31.7843 257.128 40.7372 255.142 49.5161C253.271 57.753 252.193 65.8283 252.193 65.8283Z" fill="#FAB663"/>
<path d="M258.526 42.3867C260.401 41.0727 262.577 40.1915 264.838 39.8316C263.058 41.58 261.018 42.5091 258.526 42.3867Z" fill="#F7923D"/>
<path d="M257.853 48.797C259.727 47.4829 261.903 46.6017 264.164 46.2419C262.384 47.9895 260.344 48.9187 257.853 48.797Z" fill="#F7923D"/>
<path d="M257.121 55.4972C258.996 54.1824 261.172 53.3019 263.433 52.9413C261.653 54.6897 259.613 55.6189 257.121 55.4972Z" fill="#F7923D"/>
<path d="M255.142 49.5166C255.431 48.5491 255.703 47.575 255.98 46.6075C256.812 43.7434 257.754 40.8469 259.489 38.4215C260.947 36.3966 263.049 34.7264 265.442 34.1519C264.984 33.062 264.339 32.3844 263.463 32.2619C260.018 31.7848 257.128 40.7377 255.142 49.5166" fill="#F7923D"/>
<path d="M247.04 101.347L251.829 58.3542L266.726 59.6041L262.186 101.347H247.04Z" fill="#C07E53"/>
<path d="M271.133 91.505C271.133 94.0778 264.453 95.0497 259.887 94.9501C255.499 95.0445 249.179 94.1523 248.679 91.8088C248.65 91.7092 248.64 91.6097 248.64 91.505C248.64 89.3311 251.132 77.068 252.304 71.4246C252.668 69.6946 252.903 68.5826 252.903 68.5826H266.866C266.866 68.5826 267.101 69.6946 267.464 71.4246C268.636 77.068 271.133 89.3311 271.133 91.505" fill="#F04242"/>
<path d="M267.464 71.4246C267.101 69.6946 266.866 68.5826 266.866 68.5826H264.384H252.903C252.903 68.5826 252.668 69.6946 252.304 71.4246H265.028C266.428 77.6881 268.458 87.3379 268.057 88.8378C267.495 90.9866 257.723 94.7452 248.68 91.8088C249.179 94.1523 255.499 95.0445 259.887 94.9501C264.454 95.0497 271.133 94.0778 271.133 91.505C271.133 89.3311 268.636 77.068 267.464 71.4246" fill="#EF2D2E"/>
<path d="M268.059 69.7373H251.711V66.006H268.059V69.7373Z" fill="#F04242"/>
<path d="M264.857 83.5088H252.418V77.9413H264.857V83.5088Z" fill="white"/>
<path d="M180.972 71.2715L192.212 76.4813L197.294 64.8834L208.672 69.4221C208.672 69.4221 200.965 90.7421 196.833 91.4788C193.865 92.0082 179.06 80.8697 179.06 80.8697L180.972 71.2715" fill="#F68672"/>
<path d="M166.385 74.1742C166.573 74.4507 166.806 74.6793 167.07 74.8777L167.078 74.8821C167.692 75.36 168.475 75.6564 169.224 75.9233C170.063 76.2227 170.902 76.5627 171.734 76.91C172.437 77.1991 173.132 77.4896 173.827 77.761C174.236 77.9276 174.638 78.0758 175.046 78.2218L177.336 79.8486C177.336 79.8486 177.965 80.2276 179.059 80.8691L180.68 78.7955L180.672 78.7911L182.613 76.3083L183.688 74.93L181.664 73.5481L179.838 72.3056C179.829 69.297 179.434 66.1674 178.259 63.3977C178.069 62.9412 177.842 62.4966 177.628 62.0541L177.625 62.0416C177.301 61.3993 176.998 60.7563 176.789 60.0712C176.405 58.7896 176.42 57.4306 176.268 56.0966C176.244 55.8894 176.21 55.6785 176.171 55.4698C176.115 55.118 176.011 54.7486 175.74 54.5252L175.698 54.4986C175.344 54.2472 174.825 54.3239 174.47 54.5827L174.322 54.7103C174.045 54.9787 173.865 55.3437 173.709 55.7013L173.66 55.8444C172.889 57.7845 172.787 59.9761 173.358 61.9767C173.432 62.2348 173.52 62.5157 173.438 62.7635C173.36 62.9884 173.158 63.1529 172.96 63.29C172.151 63.8328 171.187 64.096 170.205 64.1705C169.72 64.2088 169.221 64.1985 168.726 64.1602L168.712 64.1579C168.106 64.1071 167.463 64.0282 166.931 64.2958C166.504 64.5178 166.24 64.916 166.071 65.3791L166.042 65.4551C165.914 65.8171 165.851 66.2131 165.806 66.5826C165.78 66.778 165.761 66.9719 165.751 67.1762C165.604 68.7122 165.597 70.2637 165.733 71.8042C165.8 72.6345 165.915 73.4906 166.385 74.1742" fill="#F36269"/>
<path d="M175.738 54.5237C176.014 54.7464 176.113 55.1173 176.175 55.4705C176.211 55.6785 176.242 55.8916 176.269 56.0995C176.42 57.4298 176.408 58.7874 176.79 60.0683C176.997 60.7563 177.303 61.4 177.628 62.0431V62.0519C177.844 62.4958 178.069 62.9398 178.263 63.3969C179.434 66.1681 179.83 69.2955 179.837 72.3041L183.691 74.9315L182.616 76.309L180.679 78.7985L179.06 80.8691L176.372 76.3333C176.8 73.4604 177.765 67.8118 177.243 64.2317C177.149 63.5938 177.011 63.0282 176.812 62.5482C176.578 61.9959 176.321 61.4384 176.078 60.8772C175.605 59.7858 175.205 58.6761 175.235 57.4999L175.239 57.3141C175.245 56.6673 175.183 55.8894 174.686 55.6799C174.622 55.6527 174.559 55.635 174.487 55.6254C174.202 55.5929 173.939 55.7552 173.659 55.8451L173.709 55.705C173.863 55.3437 174.045 54.9816 174.326 54.711L174.471 54.5849C174.825 54.3231 175.345 54.2472 175.697 54.5016L175.738 54.5237" fill="#F68672"/>
<path d="M172.139 70.2392C172.108 71.8541 172.541 73.4587 173.25 74.9092C172.215 73.7138 171.394 72.2788 171.187 70.7111C170.98 69.1426 171.463 67.4348 172.663 66.4039C172.881 66.2173 173.154 65.9865 173.412 65.9202C173.423 66.4983 172.739 67.2976 172.544 67.8765C172.288 68.6368 172.154 69.4376 172.139 70.2392" fill="#F14568"/>
<path d="M181.705 72.9508C181.647 75.4078 181.583 77.6326 181.537 79.1096C181.505 80.1346 180.667 80.9473 179.641 80.9473H169.69C168.664 80.9473 167.826 80.1346 167.794 79.1096C167.748 77.6326 167.684 75.4078 167.626 72.9508C167.555 69.9576 167.503 66.6304 167.517 63.9087C167.536 60.987 167.626 58.7748 167.852 58.4142C168.613 57.2336 171.206 56.0538 171.206 56.0538L171.819 52.6425H177.507L178.125 56.0538C178.125 56.0538 180.719 57.2336 181.479 58.4142C181.705 58.7748 181.795 60.987 181.808 63.9087C181.828 66.6304 181.776 69.9576 181.705 72.9508" fill="#D1F0FC"/>
<path d="M177.659 53.4717H171.671C171.29 53.4717 170.981 53.1627 170.981 52.7815V52.3929C170.981 52.0124 171.29 51.7034 171.671 51.7034H177.659C178.039 51.7034 178.348 52.0124 178.348 52.3929V52.7815C178.348 53.1627 178.039 53.4717 177.659 53.4717Z" fill="#363950"/>
<path d="M181.705 72.9512H167.626C167.555 69.958 167.503 66.6308 167.517 63.9091H181.808C181.828 66.6308 181.776 69.958 181.705 72.9512" fill="white"/>
<path d="M166.262 74.7141C168.706 75.394 171.647 74.3705 171.647 74.3705C171.823 73.8469 171.912 73.2356 171.927 72.5808C171.941 72.3058 171.937 72.0226 171.923 71.732C171.891 71.0905 171.815 70.4194 171.698 69.7455C171.651 69.4505 171.596 69.1533 171.536 68.8591C171.372 68.076 171.179 67.3061 170.974 66.5938C170.891 66.2863 170.803 65.992 170.718 65.7096C170.481 64.9457 170.254 64.2871 170.077 63.7968C169.872 63.2282 169.734 62.8875 169.734 62.8875C167.409 62.9436 164.266 64.8616 164.266 64.8616C164.067 65.7273 164.028 66.6506 164.099 67.5664C164.367 71.1672 166.262 74.7141 166.262 74.7141" fill="#F68672"/>
<path d="M167.223 66.9509C167.223 66.9509 167.549 66.9671 168.029 66.9583C168.514 66.948 169.149 66.9266 169.828 66.8248C170.242 66.7636 170.629 66.6803 170.974 66.594C170.891 66.2865 170.803 65.9923 170.718 65.7098C170.395 65.6796 170.038 65.6826 169.667 65.7349C168.914 65.8492 168.282 66.1582 167.862 66.4362C167.442 66.7142 167.223 66.9509 167.223 66.9509" fill="#D03B58"/>
<path d="M168.134 69.9402C168.134 69.9402 168.444 69.9829 168.901 70.0043C169.362 70.0235 169.968 70.0331 170.62 69.952C171.007 69.904 171.371 69.8244 171.698 69.7455C171.651 69.4505 171.596 69.1534 171.535 68.8591C171.215 68.8208 170.857 68.809 170.481 68.8577C169.773 68.9476 169.167 69.2227 168.761 69.4712C168.354 69.7241 168.134 69.9402 168.134 69.9402Z" fill="#D03B58"/>
<path d="M168.112 72.8277C168.112 72.8277 168.436 72.8756 168.922 72.9C169.41 72.9206 170.058 72.9251 170.754 72.8292C171.178 72.7702 171.577 72.6788 171.928 72.5807C171.942 72.3056 171.937 72.0225 171.923 71.7319C171.534 71.6833 171.08 71.6715 170.602 71.7386C169.859 71.8418 169.225 72.1161 168.791 72.3646C168.354 72.6131 168.112 72.8277 168.112 72.8277" fill="#D03B58"/>
<path d="M164.099 67.5664C164.485 66.8858 164.934 66.2501 165.536 65.759C166.085 65.3077 166.737 65.0017 167.387 64.7215C168.132 64.4 168.916 64.0254 169.709 63.8381C169.812 63.8115 169.939 63.8041 170.077 63.7968C169.872 63.2282 169.734 62.8875 169.734 62.8875C167.409 62.9436 164.266 64.8616 164.266 64.8616C164.067 65.7273 164.028 66.6505 164.099 67.5664" fill="#F9AA7F"/>
<path d="M221.028 223.736L219.322 215.612L220.116 200.043L208.149 200.504L207.036 217.713L210.596 224.138L219.852 225.953L221.028 223.736" fill="#F36269"/>
<path d="M187.508 228.279L221.539 227.882C221.47 227.248 221.289 225.663 221.028 223.737C218.686 223.887 215.595 223.819 213.929 222.716C211.858 221.345 210.573 217.124 210.005 214.791L204.401 214.715C203.867 215.984 202.487 218.976 200.836 220.386C198.708 222.21 190.738 225.552 188.573 226.616C187.832 226.981 187.582 227.678 187.508 228.279" fill="#282A3E"/>
<path d="M187.542 231.269L187.508 228.276L221.538 227.882L221.577 231.269H187.542" fill="#DCDDDA"/>
<path d="M204.221 203.477C205.37 203.662 207.319 203.687 209.631 203.625C212.734 203.53 216.493 203.273 219.838 202.997C220.842 202.919 221.815 202.836 222.716 202.752C223.669 202.671 224.539 202.589 225.309 202.513C227.27 202.328 228.537 202.195 228.537 202.195L225.684 158.481C225.684 158.481 234.601 129.235 236.561 120.654C236.134 117.624 235.348 113.937 234.495 110.388L228.597 111.503L207.036 108.485C206.229 121.794 206.837 153.619 206.611 155.607C206.58 155.9 206.561 156.296 206.555 156.79L206.552 156.829L204.221 203.477" fill="#A3889F"/>
<path d="M209.821 166.415C211.506 168.15 213.779 167.395 215.007 164.924C215.664 163.599 216.073 162.087 215.979 160.549C215.885 159.012 215.246 157.454 214.119 156.481C212.992 155.509 211.366 155.221 210.159 155.946C208.731 156.804 208.198 158.761 208.108 160.574C208.035 162.054 208.189 163.598 208.83 164.94C209.122 165.552 209.458 166.041 209.821 166.415" fill="#B99EB2"/>
<path d="M245.752 222.714L243.324 214.776L242.718 199.198L230.841 200.731L231.277 217.971L235.399 224.05L244.779 225.028L245.752 222.714" fill="#F68672"/>
<path d="M212.775 230.247L246.633 226.797C246.507 226.172 246.185 224.609 245.752 222.714C243.433 223.073 240.348 223.283 238.591 222.334C236.405 221.155 234.747 217.067 233.971 214.794L228.383 215.221C227.965 216.533 226.858 219.636 225.342 221.189C223.385 223.197 215.748 227.241 213.686 228.494C212.981 228.924 212.795 229.641 212.775 230.247Z" fill="#363950"/>
<path d="M213.078 233.222L212.774 230.244L246.632 226.797L246.949 229.914L213.078 233.222" fill="white"/>
<path d="M224.081 203.421C225.242 203.494 227.185 203.33 229.48 203.043C232.559 202.648 236.275 202.026 239.578 201.427C240.569 201.251 241.529 201.074 242.419 200.903C243.359 200.729 244.217 200.563 244.976 200.414C246.909 200.039 248.157 199.782 248.157 199.782L241.071 156.552C241.071 156.552 247.104 126.579 248.221 117.849C247.502 114.873 246.362 111.281 245.167 107.832L239.404 109.514L219.406 109.236C219.897 122.56 221.84 153.545 221.809 155.546C221.807 155.841 221.826 156.235 221.868 156.729V156.768L224.081 203.421" fill="#B99EB2"/>
<path d="M236.325 157.902L244.976 200.414C246.909 200.039 248.157 199.783 248.157 199.783L241.07 156.553C241.07 156.553 247.104 126.579 248.22 117.849C247.501 114.874 246.361 111.282 245.167 107.832L239.404 109.515C240.236 114.005 241.778 122.549 241.613 124.046C241.43 125.668 238.175 146.248 236.866 154.509C236.53 156.605 236.325 157.902 236.325 157.902" fill="#A3889F"/>
<path d="M226.053 165.992C227.899 167.554 230.088 166.583 231.069 164.003C231.595 162.621 231.856 161.077 231.613 159.555C231.37 158.035 230.582 156.545 229.367 155.687C228.15 154.829 226.503 154.7 225.374 155.539C224.034 156.532 223.694 158.533 223.781 160.344C223.853 161.824 224.155 163.346 224.923 164.62C225.274 165.201 225.655 165.655 226.053 165.992Z" fill="#D0B6C7"/>
<path d="M202.354 43.4037C202.702 46.4573 205.313 48.7329 207.936 50.3361C218.935 57.0856 233.59 57.3806 244.849 51.0786C247.719 49.4696 250.449 47.3828 252.005 44.4825C252.176 44.164 252.329 43.8343 252.459 43.4981C253.568 40.7571 253.472 37.4624 251.651 35.169C250.484 33.6957 248.768 32.7872 247.313 31.6029C245.857 30.4238 244.554 28.7086 244.784 26.8459C245.067 24.4876 247.655 22.8897 247.891 20.5263C248.067 18.7403 246.824 17.1195 245.444 15.9698C242.231 13.3048 241.13 9.95107 238.671 6.82667C235.888 3.29005 231.102 0.95025 226.74 0.248235C223.127 -0.341693 219.296 0.0948728 216.065 1.81599C212.829 3.53784 210.264 6.60251 209.48 10.1812C208.908 12.7923 209.25 15.6572 208.007 18.0213C207.246 19.4651 205.943 20.603 205.353 22.1235C205.011 23.0018 204.929 23.9154 204.988 24.8409C205.13 27.087 206.061 29.4335 205.901 31.7202C205.62 35.829 201.882 39.3125 202.354 43.4037" fill="#FABF75"/>
<path d="M205.915 42.6521C205.915 42.6521 203.491 43.4757 202.312 46.0014C201.133 48.5277 191.139 66.5382 191.139 66.5382L207.941 72.4316L205.915 42.6521Z" fill="#88C036"/>
<path d="M190.259 68.0385L192.127 63.4628L208.6 70.0523L207.248 74.4414L190.259 68.0385Z" fill="#61AE32"/>
<path d="M249.593 114.634C249.593 114.634 218.849 117.465 205.915 114.821L207.941 79.0249L205.915 42.6521L211.572 41.0069L219.416 38.721L223.317 39.2998L229.578 37.4512C229.578 37.4512 232.345 38.2711 235.807 39.6022C239.659 41.0807 244.367 43.1882 247.041 45.4867L249.593 114.634Z" fill="#88C036"/>
<path d="M235.806 39.6007C233.388 42.0061 227.803 46.9851 222.688 47.6495C217.471 48.3198 213.241 43.3349 211.57 41.0062L214.524 40.1486L219.419 38.7231L223.314 39.2976L229.576 37.4526C229.576 37.4526 230.789 37.8139 232.607 38.4393C233.543 38.7622 234.632 39.1494 235.806 39.6007Z" fill="#F68672"/>
<path d="M235.806 39.6007C233.388 42.0061 227.803 46.9851 222.688 47.6495C217.471 48.3198 213.241 43.3349 211.57 41.0062L214.524 40.1486C215.93 42.1543 219.212 46.314 222.237 46.14C225.378 45.9594 230.556 40.6773 232.607 38.4393C233.543 38.7622 234.632 39.1494 235.806 39.6007Z" fill="#61AE32"/>
<path d="M231.53 38.0734C231.53 38.0734 223.347 41.8556 222.199 41.4294C221.051 41.0091 219.417 38.7231 219.417 38.7231C219.656 38.4289 221.322 37.2785 221.237 36.3848C221.043 34.323 220.289 31.4493 220.289 31.4493L227.203 29.0682C227.203 29.0682 227.489 31.0467 227.889 33.1409C228.292 35.2617 231.092 37.749 231.53 38.0734" fill="#F68672"/>
<path d="M227.888 33.1389C225.987 34.5576 223.652 36.2375 222.889 36.4978C222.266 36.7079 221.684 36.5818 221.24 36.3857C221.042 34.3224 220.287 31.4524 220.287 31.4524L227.202 29.0706C227.202 29.0706 227.491 31.0513 227.888 33.1389" fill="#F36269"/>
<path d="M231.014 9.67962C227.22 5.33849 220.862 4.0355 215.869 6.91804C214.721 7.58023 213.804 8.33311 213.392 9.16196C211.743 12.4751 209.392 24.6682 211.92 30.5284C214.446 36.3894 218.424 35.5863 219.842 35.1734C221.258 34.7612 227.915 31.9848 229.454 29.8139C230.994 27.6422 234.293 16.4365 233.558 13.5164C233.313 12.5415 232.28 11.1294 231.014 9.67962" fill="#F9AA7F"/>
<path d="M231.468 8.80149C227.674 4.45962 221.316 3.15588 216.323 6.03915C215.175 6.70209 214.258 7.45422 213.846 8.28307C212.197 11.597 209.846 23.7893 212.373 29.6495C214.901 35.5105 218.878 34.7074 220.295 34.2945C221.712 33.8823 228.369 31.1059 229.909 28.935C231.448 26.7633 234.748 15.5576 234.012 12.6382C233.767 11.6626 232.734 10.2505 231.468 8.80149" fill="#F68672"/>
<path d="M230.101 23.7513C230.456 23.5825 232.255 21.2397 233.508 22.6732C234.76 24.106 235.088 26.4679 233.896 27.7879C232.808 28.9921 231.294 30.2899 229.454 29.8143L230.101 23.7513" fill="#F68672"/>
<path d="M233.461 24.4754C233.533 24.791 233.481 25.1177 233.379 25.4267C232.948 26.7407 231.696 27.7304 230.498 28.6484C230.864 28.0143 231.005 27.2938 230.941 26.5888C230.919 26.3433 230.873 26.0992 230.874 25.8544C230.879 24.8648 233.038 22.6105 233.461 24.4754" fill="#F36269"/>
<path d="M229.896 29.0166L229.964 28.9768C230.008 28.9495 230.078 28.9141 230.158 28.858C230.318 28.7474 230.54 28.5697 230.75 28.3043C230.959 28.0388 231.151 27.6848 231.245 27.263C231.331 26.8427 231.321 26.3509 231.115 25.8752L231.031 25.7005L231.007 25.6584L231.004 25.6533L231.005 25.654H231.003L231.006 25.6474L231.027 25.609L231.067 25.5346L231.153 25.3893C231.267 25.1975 231.39 25.0176 231.517 24.8502C231.644 24.6836 231.775 24.5295 231.904 24.3901C232.035 24.2507 232.16 24.1202 232.284 24.0236C232.409 23.927 232.544 23.8643 232.671 23.8488C232.797 23.8348 232.916 23.8673 232.997 23.9108C233.078 23.955 233.121 24.0111 233.14 24.0531L233.16 24.1194L233.157 24.0487C233.15 24.0029 233.118 23.9329 233.037 23.8673C232.957 23.8046 232.832 23.7441 232.664 23.7375C232.497 23.7331 232.317 23.7906 232.154 23.885C231.99 23.9801 231.843 24.0995 231.688 24.2308C231.534 24.3635 231.376 24.5125 231.226 24.6799C231.076 24.8465 230.93 25.0302 230.797 25.23L230.7 25.3826L230.653 25.4608L230.591 25.5714L230.548 25.6488L230.588 25.7277L230.647 25.8413L230.719 25.9925C230.899 26.4054 230.934 26.8353 230.894 27.2203C230.846 27.6052 230.719 27.9466 230.567 28.2165C230.414 28.4871 230.241 28.687 230.111 28.819L229.953 28.965L229.896 29.0166" fill="#D03B58"/>
<path d="M218.712 24.0898C219.017 24.0411 219.331 23.9416 219.627 24.0308C219.193 24.6598 218.503 25.1067 217.753 25.2453L217.576 25.252C217.506 25.2357 217.448 25.1878 217.393 25.1406C217.052 24.839 216.77 24.4688 216.569 24.0588C216.529 23.9755 216.492 23.8885 216.488 23.7963C216.475 23.4903 216.664 23.5935 216.825 23.6953C217.011 23.814 217.212 23.9091 217.421 23.9792C217.835 24.1171 218.281 24.1584 218.712 24.0898" fill="#F36269"/>
<path d="M217.722 25.0655C217.574 24.8716 217.4 24.6975 217.248 24.5066C217.06 24.2706 216.89 24.0199 216.751 23.7522C217.829 23.2825 218.012 22.2877 218.186 21.1536C218.264 20.6418 218.219 20.1131 218.059 19.6212C217.975 19.3624 217.859 19.1146 217.715 18.8838C217.641 18.7673 217.561 18.6545 217.474 18.5468C217.389 18.4421 217.293 18.375 217.18 18.3005C217.226 18.3787 217.25 18.4642 217.29 18.5431C217.394 18.7503 217.506 18.9457 217.587 19.1633C217.668 19.3808 217.73 19.6057 217.773 19.8343C217.86 20.2908 217.871 20.7627 217.798 21.2221C217.728 21.6727 217.573 22.1122 217.328 22.4978C217.049 22.9373 216.625 23.3466 216.138 23.5398C216.133 23.5413 216.64 24.4232 216.692 24.497C216.826 24.688 216.978 24.8664 217.147 25.0272C217.315 25.1842 217.505 25.3693 217.739 25.4055C217.812 25.4173 217.89 25.4151 217.958 25.3848L217.863 25.2727L217.829 25.2196L217.722 25.0655" fill="#F14568"/>
<path d="M223.697 26.8597C221.342 28.1597 218.413 28.3706 215.896 27.4209C217.124 28.2821 218.491 28.8315 219.988 28.7401C221.485 28.6479 222.583 27.864 223.697 26.8597Z" fill="#F14568"/>
<path d="M221.376 29.4583C220.393 30.0571 219.113 30.1375 218.062 29.667C218.461 30.1743 219.021 30.4937 219.666 30.4922C220.312 30.4914 220.979 29.9671 221.376 29.4583Z" fill="#F14568"/>
<path d="M212.321 15.2145C212.321 15.2145 214.08 13.8665 215.177 13.9749C216.273 14.0826 216.6 15.0891 216.167 15.2875C215.735 15.4866 212.321 15.2145 212.321 15.2145Z" fill="#FCD18A"/>
<path d="M227.817 16.9688C227.817 16.9688 225.295 14.7373 223.595 14.4084C221.894 14.0796 221.254 15.0729 221.892 15.4725C222.531 15.8722 227.817 16.9688 227.817 16.9688Z" fill="#FCD18A"/>
<path d="M223.333 24.727C223.4 25.2491 224.573 25.5278 225.95 25.3494C227.328 25.1709 228.39 24.6031 228.323 24.0817C228.255 23.5597 227.084 23.2817 225.706 23.4594C224.328 23.6378 223.265 24.2056 223.333 24.727Z" fill="#F36269"/>
<path d="M209.916 22.0159C209.745 22.3758 210.485 23.0852 211.57 23.5999C212.655 24.1146 213.673 24.2407 213.843 23.8808C214.014 23.5202 213.273 22.8116 212.189 22.2969C211.104 21.7814 210.087 21.6561 209.916 22.0159Z" fill="#F36269"/>
<path d="M226.123 18.477C225.873 18.8818 225.243 19.1178 224.809 19.2372C224.649 18.9659 224.426 18.7815 224.157 18.7314C223.472 18.6045 222.749 19.395 222.545 20.4975C222.341 21.5992 222.733 22.5961 223.418 22.723C224.105 22.8498 224.827 22.0593 225.031 20.9569C225.095 20.6155 225.1 20.2851 225.058 19.9864C225.667 19.6229 226.123 18.477 226.123 18.477" fill="#121414"/>
<path d="M223.789 20.8742C223.789 20.8742 224.442 21.2385 225.137 21.1072C225.832 20.976 226.307 20.3978 226.307 20.3978C226.307 20.3978 225.655 20.0335 224.959 20.1648C224.264 20.2961 223.789 20.8742 223.789 20.8742Z" fill="white"/>
<path d="M212.762 17.4874C212.833 17.8634 213.24 18.2233 213.532 18.4378C213.731 18.28 213.952 18.2048 214.169 18.2454C214.722 18.3472 215.039 19.1509 214.874 20.0403C214.711 20.9288 214.129 21.5667 213.575 21.4649C213.022 21.3632 212.706 20.5594 212.87 19.6701C212.92 19.395 213.011 19.1435 213.129 18.9312C212.775 18.4814 212.762 17.4874 212.762 17.4874" fill="#121414"/>
<path d="M213.828 19.965C213.828 19.965 213.231 20.0513 212.745 19.7519C212.259 19.4525 212.068 18.881 212.068 18.881C212.068 18.881 212.665 18.794 213.151 19.0934C213.637 19.3928 213.828 19.965 213.828 19.965" fill="white"/>
<path d="M234.638 25.0713C234.317 24.3022 233.856 23.4549 233.067 23.1865C232.278 22.9173 231.52 23.1548 230.796 23.5684C231.248 21.2139 232.108 18.5614 232.888 16.2939C228.41 15.2704 224.412 12.3008 222.138 8.30922C222.132 9.79731 222.747 11.278 223.805 12.3244C221.939 12.3016 220.117 11.2751 219.129 9.69334C217.264 11.7455 214.645 13.21 211.872 13.2174C212.059 9.21107 214.336 5.30647 217.897 3.46147C221.458 1.61573 225.909 1.69613 229.483 3.51753C233.056 5.33819 235.704 8.81213 236.684 12.7012C237.664 16.5903 236.593 21.5693 234.638 25.0713Z" fill="#FABF75"/>
<path d="M204.987 24.8408C206.402 23.4324 207.428 21.5756 208.217 19.7188C209.384 16.9417 210.193 13.9832 211.86 11.4775C213.653 8.78375 216.323 6.8038 218.934 4.88727C219.565 5.58855 220.202 6.28982 220.838 6.99184C221.198 6.15414 221.552 5.3179 221.911 4.48094C225.383 9.15538 230.641 12.4619 236.359 13.5644C235.445 15.4094 237.173 17.4431 238.829 18.6576C240.485 19.8773 242.472 21.4045 242.207 23.4442C241.982 25.2184 240.126 26.3267 239.46 27.9829C238.452 30.4887 240.491 33.2355 242.826 34.5916C245.161 35.9529 247.925 36.6128 249.929 38.4224C251.367 39.7196 252.246 41.5764 252.458 43.498C253.566 40.7571 253.471 37.4623 251.65 35.169C251.539 35.0274 251.421 34.8917 251.303 34.762C250.159 33.5179 248.626 32.6751 247.312 31.6029C245.856 30.4238 244.553 28.7085 244.783 26.8458C245.066 24.4876 247.654 22.8896 247.89 20.5262C248.066 18.7402 246.823 17.1194 245.443 15.9698C242.23 13.3048 241.128 9.95105 238.67 6.82664C235.887 3.29002 231.101 0.950224 226.739 0.24821C223.125 -0.341718 219.295 0.0948474 216.064 1.81596C212.827 3.53781 210.263 6.60249 209.479 10.1811C209.391 10.5875 209.325 10.9945 209.273 11.4126C208.977 13.6705 209.055 16.0221 208.006 18.0213C207.245 19.4651 205.942 20.603 205.352 22.1235C205.01 23.0017 204.928 23.9154 204.987 24.8408" fill="#FCD18A"/>
<path d="M209.273 11.4133C209.715 11.2076 210.134 10.9598 210.517 10.6767C212.291 9.36777 213.547 7.48736 214.956 5.79058C216.358 4.08642 218.08 2.47077 220.243 2.02316C220.32 2.56 220.397 3.0961 220.479 3.63293C221.871 2.6072 223.573 1.99956 225.307 1.91107C228.597 6.59142 233.66 9.98719 239.236 11.2548C238.658 12.852 239.808 14.5377 241.057 15.6874C242.302 16.837 243.799 17.9335 244.193 19.578C244.671 21.5704 243.351 23.5275 243.138 25.5613C242.902 27.8657 244.135 30.1236 245.862 31.6619C247.424 33.0593 249.358 33.967 251.303 34.7627C250.159 33.5187 248.627 32.6758 247.312 31.6036C245.856 30.4245 244.553 28.7093 244.783 26.8466C245.067 24.4884 247.654 22.8904 247.89 20.527C248.066 18.741 246.823 17.1202 245.443 15.9705C242.231 13.3055 241.129 9.95179 238.67 6.82738C235.887 3.29076 231.102 0.950964 226.739 0.248949C223.126 -0.340979 219.295 0.0955869 216.064 1.8167C212.828 3.53855 210.263 6.60323 209.479 10.1819C209.391 10.5882 209.326 10.9952 209.273 11.4133" fill="#FDE498"/>
<path d="M253.63 90.4759C253.622 90.5437 253.614 90.6079 253.602 90.6757C253.506 91.2634 253.354 91.8504 253.147 92.4182C252.734 93.545 252.108 94.5921 251.264 95.4113C251.044 95.6274 250.813 95.8272 250.561 96.0028C250.361 96.1547 250.149 96.2867 249.926 96.4105C248.73 97.0661 247.383 97.2578 246.045 97.0941C245.741 97.058 245.438 97.0019 245.134 96.926C244.046 96.662 242.991 96.1746 242.064 95.5197C241.625 95.2078 241.213 94.8642 240.841 94.4844L240.662 94.2927C238.443 91.9426 237.364 88.7334 236.625 85.5883C235.558 81.0363 234.088 74.842 235.89 70.2782C236.346 69.1271 237.201 68.2157 238.255 67.5726C238.668 67.3204 239.112 67.1088 239.571 66.9407C239.802 66.8529 240.038 66.777 240.278 66.7173C240.558 66.6413 240.841 66.5772 241.129 66.5329C241.385 66.4931 241.641 66.4658 241.897 66.4496C242.16 66.4333 242.428 66.4297 242.692 66.4415C243.068 66.4533 243.439 66.4931 243.803 66.5617C244.099 66.617 244.386 66.6892 244.662 66.7851C245.002 66.8928 245.321 67.0292 245.629 67.1929C248.466 68.7237 249.869 71.9647 250.869 75.0257C251.8 77.8632 252.559 80.7524 253.155 83.6777C253.61 85.9157 253.966 88.2223 253.63 90.4759" fill="#20795A"/>
<path d="M242.064 95.5195C241.625 95.2076 241.213 94.864 240.842 94.4842L240.662 94.2925C240.606 94.1561 240.55 94.0204 240.497 93.8803C238.824 89.5288 237.864 84.8411 237.077 80.2529C236.353 76.0327 236.162 71.4165 238.256 67.5724C238.668 67.3202 239.112 67.1086 239.571 66.9405L239.535 67.0009C238.116 69.107 237.481 71.6046 237.373 74.1221C237.269 76.5998 237.644 79.062 238.116 81.4874C238.548 83.7254 239.012 85.9598 239.567 88.1698C240.198 90.6799 240.982 93.1731 242.064 95.5195" fill="#51C292"/>
<path d="M246.044 97.0938C245.74 97.0576 245.437 97.0016 245.134 96.9256C244.693 95.731 244.249 94.5401 243.811 93.3448C242.963 91.047 241.912 88.733 241.413 86.3276C240.932 84.0055 241.005 81.6111 240.533 79.2853C240.065 76.992 239.47 74.734 239.511 72.3758C239.542 70.4651 239.878 68.5833 240.278 66.7169C240.557 66.6409 240.841 66.5768 241.129 66.5325C240.633 68.8384 240.202 71.1731 240.334 73.5387C240.461 75.8571 241.18 78.0826 241.54 80.3649C241.908 82.6862 241.817 85.0526 242.492 87.3223C243.171 89.6046 244.102 91.8301 244.925 94.0645C245.301 95.0755 245.673 96.0828 246.044 97.0938" fill="#51C292"/>
<path d="M251.264 95.4115C251.044 95.6276 250.813 95.8274 250.56 96.0029C250.289 94.3128 249.894 92.6418 249.417 90.9952C248.178 86.7116 246.412 82.6189 244.845 78.4548C243.39 74.5863 242.148 70.594 241.896 66.4497C242.16 66.4335 242.428 66.4298 242.691 66.4416C242.831 68.7033 243.275 70.9332 243.895 73.1115C245.102 77.3796 246.92 81.4443 248.454 85.5966C249.637 88.7933 250.676 92.0585 251.264 95.4115" fill="#51C292"/>
<path d="M253.629 90.4756C253.621 90.5435 253.614 90.6076 253.602 90.6755C253.506 91.2632 253.354 91.8502 253.146 92.418C253.042 91.6909 252.919 90.9675 252.775 90.2441C251.903 85.8122 250.385 81.5721 248.355 77.5437C246.572 74.0063 244.55 70.4852 243.803 66.5614C244.098 66.6167 244.386 66.689 244.662 66.7848C245.085 68.7552 245.828 70.6415 246.692 72.4636C247.635 74.462 248.706 76.3962 249.661 78.3902C250.621 80.3886 251.452 82.4467 252.131 84.5572C252.755 86.4951 253.254 88.4736 253.629 90.4756" fill="#51C292"/>
<path d="M270.495 77.2484C270.495 77.2484 274.247 110.64 272.03 113.904C269.812 117.168 257.415 120.301 253.039 120.77C248.663 121.24 237.065 113.904 237.065 113.904L234.639 81.2304L270.495 77.2484Z" fill="#46689C"/>
<path d="M238.252 79.8008C238.252 79.8008 236.023 61.0138 236.562 58.9586C237.1 56.9042 243.452 43.0741 243.452 43.0741C243.452 43.0741 246.753 43.9531 247.041 45.4861C247.041 45.4861 239.629 58.6283 239.629 60.3523C239.629 62.0764 241.759 79.5228 241.759 79.5228L238.252 79.8008" fill="#46689C"/>
<path d="M247.041 45.4867C247.041 45.4867 255.241 50.3521 256.165 54.1284C256.974 57.429 260.495 70.9052 260.495 70.9052L245.625 72.4316L244.401 55.6098L247.041 45.4867Z" fill="#88C036"/>
<path d="M244.401 70.9676L260.495 68.0386L262.12 74.1886L244.401 75.7998V70.9676Z" fill="#61AE32"/>
<path d="M266.427 168.275C265.066 174.408 253.212 179.464 247.949 179.774C242.694 180.077 231.594 175.175 231.704 171.647C231.813 168.126 231.704 141.42 231.704 141.42L231.839 141.407L260.493 138.505C260.493 138.505 263.601 148.585 265.382 157.285C266.323 161.909 266.897 166.146 266.427 168.275" fill="#D1F0FC"/>
<path d="M266.427 168.275C265.066 174.408 253.212 179.464 247.949 179.774C242.694 180.077 231.594 175.175 231.704 171.647C231.813 168.126 231.704 141.42 231.704 141.42L231.839 141.407C232.362 147.211 234.444 168.178 237.05 170.423C240.088 173.028 250.51 175.943 250.51 175.943C250.51 175.943 245.622 174.099 246.53 171.035C247.446 167.972 259.139 161.226 260.493 164.908C261.848 168.584 261.235 170.268 261.235 170.268C261.235 170.268 264.492 169.5 264.859 166.746C265.027 165.444 265.221 161.296 265.382 157.285C266.323 161.909 266.897 166.146 266.427 168.275Z" fill="#B5DEED"/>
<path d="M235.754 141.421C235.754 141.421 241.458 124.449 246.322 125.368C251.188 126.288 257.311 140.692 257.311 140.692L252.939 141.421C252.939 141.421 247.939 129.659 245.809 130.119C243.678 130.579 239.091 143.758 239.091 143.758L235.754 141.421Z" fill="#D1F0FC"/>
<path d="M237.672 135.035C238.87 135.411 240.515 126.892 240.515 126.892L242.891 126.485L242.537 130.109L244.603 134.996C244.603 134.996 245.634 135.029 246.899 134.993C247.057 134.99 247.218 134.982 247.381 134.977C248.137 134.946 248.937 134.887 249.627 134.781C249.695 134.774 249.762 134.761 249.827 134.753C250.171 134.692 251.235 134.323 251.356 134.184L250.61 130.116C250.61 130.116 254.316 125.78 254.486 124.931C254.553 124.593 251.77 117.922 251.439 117.189L247.703 116.932C247.703 116.932 241.765 121.887 241.444 122.183C240.279 123.261 239.103 124.502 238.412 125.654C238.117 126.142 237.913 126.614 237.834 127.05C237.286 130.058 236.475 134.66 237.672 135.035" fill="#F68672"/>
<path d="M249.628 134.781C249.695 134.774 249.763 134.761 249.828 134.753C249.775 134.589 249.703 134.375 249.619 134.117C249.43 133.53 249.186 132.733 248.941 131.866C248.701 130.997 248.538 130.199 248.484 129.586C248.471 129.431 248.46 129.29 248.45 129.167C248.452 129.042 248.451 128.934 248.453 128.844C248.45 128.664 248.449 128.56 248.449 128.56C248.449 128.56 248.402 128.653 248.327 128.828C248.288 128.914 248.241 129.024 248.192 129.15C248.155 129.279 248.115 129.425 248.073 129.593C247.917 130.251 247.883 131.212 248.147 132.166C248.415 133.115 248.873 133.859 249.252 134.345C249.393 134.525 249.521 134.668 249.628 134.781" fill="#D03B58"/>
<path d="M246.899 134.993C247.057 134.99 247.219 134.983 247.381 134.977L247.35 134.874C247.161 134.287 246.917 133.49 246.673 132.624C246.433 131.754 246.27 130.957 246.214 130.343C246.203 130.188 246.19 130.05 246.181 129.927C246.181 129.8 246.183 129.692 246.182 129.603C246.18 129.421 246.18 129.32 246.18 129.32C246.18 129.32 246.135 129.412 246.057 129.585C246.021 129.673 245.972 129.78 245.925 129.908C245.886 130.036 245.846 130.185 245.804 130.349C245.648 131.011 245.615 131.973 245.879 132.925C246.127 133.806 246.539 134.511 246.899 134.993" fill="#D03B58"/>
<path d="M247.703 116.933L249.828 97.3626L247.381 75.5294L258.916 74.4801C258.916 74.4801 260.087 97.707 259.857 98.8559C259.628 100.006 253.634 123.296 253.634 123.296L247.703 116.933Z" fill="#F68672"/>
<path d="M191.282 27.4395L181.511 18.4615L178.349 25.1365L191.282 27.4395Z" fill="white"/>
<path d="M195.475 26.4395L196.456 18.1605L191.902 18.7483L195.475 26.4395Z" fill="white"/>
<path d="M190.857 33.2416L182.007 33.2556L182.402 37.4492L190.857 33.2416Z" fill="white"/>
<path d="M103.245 232.969C103.245 232.969 80.1578 239 51.6772 239C23.1973 239 0.110352 232.969 0.110352 232.969C0.110352 232.969 23.1973 226.939 51.6772 226.939C80.1578 226.939 103.245 232.969 103.245 232.969" fill="#CBB59B"/>
<path d="M225.668 231.936C225.668 231.936 192.501 237.967 151.587 237.967C110.673 237.967 77.5059 231.936 77.5059 231.936C77.5059 231.936 110.673 225.906 151.587 225.906C192.501 225.906 225.668 231.936 225.668 231.936Z" fill="#CBB59B"/>
<path d="M90.3208 86.8896L80.7826 80.7269L77.1671 69.2986L70.1279 71.5959L70.9269 86.8896L86.732 93.5059L90.3208 86.8896Z" fill="#F68672"/>
<path d="M97.9307 102.443C97.6028 102.381 97.3003 102.258 97.0127 102.096L97.0055 102.091C96.323 101.72 95.7381 101.12 95.1942 100.541C94.5845 99.8921 93.9378 99.2603 93.2859 98.6351C92.7407 98.1074 92.1967 97.5869 91.6704 97.0573C91.3548 96.7502 91.0581 96.4412 90.7608 96.1256L88.3548 94.6773C88.3548 94.6773 87.7568 94.2525 86.7314 93.5062L87.9833 91.1926L87.9904 91.1978L89.4895 88.4267L90.3223 86.8906L92.3978 88.1938L94.2664 89.3708C97.027 88.1762 100.052 87.2875 103.059 87.2563C103.553 87.2484 104.051 87.279 104.542 87.2972L104.555 87.2959C105.273 87.335 105.983 87.3558 106.694 87.2738C108.022 87.1131 109.261 86.5562 110.544 86.1619C110.744 86.102 110.95 86.048 111.157 85.9999C111.502 85.912 111.882 85.8587 112.195 86.0181L112.237 86.0461C112.608 86.2699 112.746 86.7767 112.65 87.2048C112.638 87.2706 112.612 87.3311 112.593 87.3909C112.457 87.7527 112.194 88.0637 111.929 88.3493L111.818 88.4508C110.349 89.9329 108.38 90.9017 106.32 91.1795C106.054 91.214 105.761 91.2453 105.567 91.4203C105.391 91.581 105.322 91.8328 105.276 92.0689C105.102 93.0267 105.246 94.015 105.57 94.9447C105.729 95.4041 105.937 95.8576 106.171 96.2961L106.179 96.3078C106.467 96.8433 106.797 97.3996 106.764 97.9949C106.731 98.4744 106.472 98.8752 106.116 99.2155L106.057 99.2734C105.777 99.5349 105.44 99.7509 105.119 99.9396C104.95 100.041 104.78 100.136 104.596 100.227C103.248 100.975 101.829 101.602 100.363 102.093C99.5755 102.364 98.7453 102.6 97.9307 102.443" fill="#F36269"/>
<path d="M112.198 86.0198C111.884 85.8559 111.504 85.9138 111.155 85.9977C110.95 86.0484 110.744 86.1044 110.542 86.1636C109.262 86.5566 108.023 87.1103 106.697 87.2723C105.984 87.3582 105.272 87.3341 104.553 87.2937L104.545 87.2976C104.052 87.2768 103.555 87.2475 103.059 87.2527C100.052 87.2885 97.0276 88.1747 94.2683 89.3705L90.3203 86.8897L89.4875 88.4252L87.9813 91.1949L86.7314 93.5059L91.9618 94.1553C94.4232 92.6165 99.2125 89.474 102.701 88.5215C103.323 88.3517 103.898 88.2534 104.416 88.243C105.016 88.2365 105.629 88.2495 106.241 88.2476C107.43 88.2443 108.606 88.1682 109.672 87.6711L109.84 87.5924C110.431 87.3282 111.168 87.0738 111.559 87.446C111.609 87.4928 111.651 87.5436 111.688 87.606C111.831 87.8546 111.788 88.1604 111.818 88.4532L111.926 88.351C112.196 88.0654 112.455 87.7537 112.591 87.3881C112.613 87.3289 112.637 87.269 112.648 87.2053C112.747 86.7765 112.608 86.2696 112.235 86.0478L112.198 86.0198" fill="#F68672"/>
<path d="M99.2382 95.598C97.7704 96.2714 96.1276 96.516 94.5146 96.4458C96.0241 96.9168 97.6669 97.0957 99.1862 96.6585C100.705 96.2213 102.077 95.0957 102.542 93.5843C102.627 93.3104 102.728 92.9682 102.686 92.706C102.152 92.9259 101.694 93.8725 101.241 94.2824C100.647 94.8205 99.9663 95.2629 99.2382 95.598Z" fill="#F14568"/>
<path d="M149.36 105.682C149.025 106.035 148.439 106.116 148.02 105.869C147.648 107.937 147.276 110.006 146.904 112.075C146.817 112.565 146.666 113.134 146.202 113.314C145.593 113.55 145.01 112.933 144.668 112.378C143.861 111.064 143.334 109.682 142.787 108.286H140.916C141.014 109.148 141.682 110.26 142.009 110.834C142.338 111.408 144.165 116.742 144.28 116.764C145.494 117.009 146.763 116.977 147.964 116.671C147.64 112.965 148.12 109.19 149.36 105.682" fill="#2AB57E"/>
<path d="M152.021 101.019C152.79 99.9401 152.455 98.2433 151.335 97.5367C150.215 96.8301 148.54 97.2595 147.897 98.4176C147.646 97.2758 146.507 96.3987 145.339 96.4495C144.171 96.4996 143.111 97.4716 142.96 98.6304C142.176 97.3376 140.493 96.6655 139.035 97.0617C137.575 97.4579 136.464 98.888 136.442 100.4C135.646 100.201 134.765 100.211 134.046 100.607C133.327 101.002 132.821 101.837 132.971 102.644C133.12 103.451 134.04 104.074 134.806 103.777C134.095 104.333 133.878 105.429 134.324 106.213C134.77 106.996 135.822 107.371 136.663 107.045C135.571 108.561 136.434 111.052 138.23 111.567C140.065 112.094 141.89 110.485 141.972 108.678L142.004 108.734C142.013 109.599 142.554 110.411 143.281 110.89C144.044 111.39 144.976 111.571 145.888 111.61C148.439 111.717 152.527 109.998 151.553 106.796L151.552 106.727C153.158 106.575 154.939 106.126 155.144 104.172C155.32 102.489 153.705 100.859 152.021 101.019" fill="#2EAE7D"/>
<path d="M167.055 107.756C166.657 107.93 166.147 107.794 165.888 107.445C164.865 109.019 163.841 110.592 162.819 112.165C162.577 112.537 162.255 112.953 161.811 112.941C161.228 112.924 160.962 112.215 160.874 111.638C160.665 110.278 160.711 108.959 160.745 107.62L159.206 106.971C158.987 107.714 159.152 108.861 159.222 109.447C159.293 110.033 158.948 115.054 159.035 115.112C159.949 115.734 161.004 116.149 162.097 116.313C163.116 113.151 164.819 110.213 167.055 107.756" fill="#2AB57E"/>
<path d="M170.86 104.842C171.866 104.222 172.179 102.71 171.502 101.74C170.826 100.771 169.299 100.543 168.369 101.273C168.559 100.247 167.925 99.1298 166.947 98.7667C165.969 98.403 164.759 98.8357 164.234 99.7368C164.036 98.4017 162.885 97.2651 161.548 97.0848C160.21 96.9053 158.8 97.6971 158.257 98.9333C157.672 98.4934 156.943 98.1968 156.215 98.2722C155.486 98.3484 154.78 98.8604 154.624 99.5761C154.467 100.292 155.008 101.123 155.741 101.145C154.964 101.356 154.406 102.181 154.501 102.981C154.595 103.78 155.331 104.453 156.136 104.477C154.712 105.346 154.559 107.693 155.857 108.74C157.185 109.81 159.244 109.118 159.938 107.661L159.945 107.718C159.652 108.432 159.815 109.288 160.249 109.933C160.703 110.609 161.407 111.081 162.143 111.429C164.205 112.403 168.164 112.406 168.473 109.432L168.495 109.375C169.87 109.807 171.491 110.056 172.336 108.519C173.064 107.196 172.301 105.294 170.86 104.842" fill="#2EAE7D"/>
<path d="M198.718 103.468V142.69H171.391V103.468H198.718Z" fill="#5B9FDC"/>
<path d="M179.46 103.47H173.485V101.057H179.46V103.47Z" fill="#363950"/>
<path d="M198.718 122.055V128.224C198.654 128.25 198.59 128.27 198.525 128.296C196.043 129.205 193.703 130.784 192.413 133.098C191.505 134.717 191.002 136.78 189.351 137.631C187.436 138.617 185.193 137.379 183.201 136.547C179.488 134.981 175.207 134.884 171.391 136.148V115.531C173.466 116.485 175.974 116.627 178.172 115.918C181.776 114.758 184.535 111.74 186.224 108.362C187.005 106.796 187.591 105.158 188.068 103.469H191.524C191.202 107.505 191.937 111.624 193.697 115.267C194.922 117.82 196.643 120.128 198.718 122.055" fill="white"/>
<path d="M176.062 121.795L177.245 124.625L178.427 121.795H180.322V127.215H178.76V124.246L177.833 126.69H176.657L175.73 124.246V127.215H174.167V121.795H176.062" fill="#363950"/>
<path d="M182.892 121.795V127.215H181.099V121.795H182.892Z" fill="#363950"/>
<path d="M185.462 121.795V125.723H187.719V127.215H183.668V121.795H185.462" fill="#363950"/>
<path d="M191.635 127.215L190.506 125.351L189.979 125.939V127.215H188.186V121.795H189.979V123.674L191.595 121.795H193.66L191.727 123.975L193.776 127.215H191.635" fill="#363950"/>
<path d="M200.36 130.644C200.724 130.677 201.102 130.701 201.447 130.582C201.792 130.463 202.101 130.16 202.113 129.794C202.129 129.316 201.673 128.971 201.256 128.737C199.934 127.994 198.489 127.467 196.999 127.183C199.127 127.064 201.216 126.317 202.936 125.057C203.493 124.649 204.049 123.871 203.598 123.348C203.325 123.031 202.839 123.04 202.422 123.088C200.805 123.273 199.208 123.64 197.672 124.178C198.869 123.267 199.662 121.841 199.802 120.342C199.84 119.938 199.778 119.44 199.407 119.276C199.064 119.124 198.679 119.358 198.389 119.597C197.24 120.54 196.289 121.723 195.617 123.049C195.92 122.432 196.231 121.774 196.169 121.089C196.107 120.405 195.509 119.72 194.83 119.831C194.3 119.918 193.953 120.422 193.695 120.893C192.9 122.34 190.649 127.208 191.924 128.723C192.528 129.44 194.857 129.69 195.743 129.897C197.262 130.254 198.805 130.504 200.36 130.644" fill="#2EAE7D"/>
<path d="M189.792 124.133C188.37 124.276 187.04 124.874 185.781 125.58C185.596 125.682 185.407 125.797 185.225 125.908C185.088 125.982 184.963 126.061 184.832 126.138C181.753 127.988 178.611 130.049 175.702 132.351C175.533 132.482 175.361 132.618 175.196 132.757C173.445 134.163 171.786 135.666 170.276 137.26C168.12 139.537 169.237 140.681 171.947 140.153C172.91 139.966 173.871 139.757 174.829 139.518C175.037 139.475 175.25 139.419 175.46 139.37C177.599 138.834 179.719 138.192 181.801 137.449C182.001 137.375 182.202 137.299 182.402 137.225C183.462 136.834 184.512 136.417 185.544 135.972C185.742 135.888 185.933 135.803 186.127 135.711C187.287 135.202 188.427 134.655 189.552 134.081C190.39 133.65 191.238 133.181 191.997 132.625C192.191 132.484 192.38 132.34 192.55 132.189C192.956 131.852 193.327 131.479 193.653 131.065C194.701 129.713 195.178 127.784 194.393 126.264C193.571 124.665 191.578 123.958 189.792 124.133" fill="#F68640"/>
<path d="M172.879 137.408C173.164 138.108 173.453 138.816 173.746 139.519C173.954 139.475 174.166 139.42 174.377 139.37C174.078 138.636 173.778 137.903 173.48 137.169C173.315 136.789 172.722 137.025 172.879 137.408" fill="#F46F2E"/>
<path d="M174.618 132.351C174.449 132.481 174.278 132.618 174.112 132.757C174.849 134.165 175.521 135.608 176.125 137.078C176.282 137.461 176.883 137.223 176.727 136.839C176.099 135.31 175.395 133.811 174.618 132.351Z" fill="#F46F2E"/>
<path d="M178.558 133.143C179.402 134.513 180.123 135.956 180.717 137.449C180.918 137.375 181.119 137.3 181.318 137.225C180.707 135.674 179.951 134.182 179.073 132.762C178.855 132.407 178.339 132.789 178.558 133.143" fill="#F46F2E"/>
<path d="M181.81 129.935C182.911 131.845 183.8 133.873 184.461 135.972C184.659 135.888 184.85 135.803 185.044 135.711C184.365 133.57 183.458 131.505 182.328 129.548C182.125 129.193 181.607 129.58 181.81 129.935Z" fill="#F46F2E"/>
<path d="M184.698 125.58C184.513 125.682 184.324 125.798 184.142 125.909C185.328 127.784 186.203 129.842 186.716 132.01C186.812 132.403 187.451 132.335 187.354 131.928C186.82 129.68 185.92 127.535 184.698 125.58Z" fill="#F46F2E"/>
<path d="M189.033 127.076C188.884 127.194 188.882 127.376 188.962 127.531C189.851 129.123 190.514 130.844 190.914 132.625C191.108 132.484 191.296 132.341 191.467 132.19C191.037 130.43 190.368 128.736 189.486 127.146C189.397 126.995 189.158 126.983 189.033 127.076Z" fill="#F46F2E"/>
<path d="M193.397 118.446C193.377 118.081 193.349 117.704 193.18 117.379C193.012 117.054 192.669 116.792 192.305 116.833C191.83 116.885 191.554 117.386 191.382 117.832C190.836 119.248 190.521 120.753 190.453 122.269C190.032 120.179 188.991 118.218 187.499 116.697C187.015 116.205 186.165 115.767 185.712 116.287C185.438 116.604 185.517 117.083 185.624 117.488C186.039 119.062 186.63 120.59 187.384 122.034C186.309 120.978 184.785 120.399 183.281 120.475C182.876 120.495 182.393 120.628 182.283 121.019C182.182 121.381 182.469 121.727 182.747 121.98C183.844 122.983 185.153 123.753 186.561 124.23C185.906 124.018 185.211 123.803 184.542 123.963C183.873 124.123 183.281 124.813 183.489 125.468C183.651 125.981 184.199 126.252 184.702 126.44C186.248 127.02 191.388 128.55 192.705 127.07C193.328 126.37 193.243 124.029 193.321 123.122C193.455 121.568 193.481 120.004 193.397 118.446" fill="#2EAE7D"/>
<path d="M188.625 130.911C188.97 132.297 189.752 133.528 190.631 134.673C190.759 134.841 190.9 135.012 191.036 135.176C191.128 135.301 191.225 135.414 191.319 135.533C193.592 138.314 196.083 141.128 198.778 143.678C198.932 143.826 199.091 143.976 199.253 144.119C200.895 145.65 202.62 147.077 204.413 148.343C206.977 150.15 207.948 148.88 207.038 146.274C206.715 145.348 206.369 144.427 205.996 143.513C205.923 143.314 205.838 143.111 205.759 142.909C204.922 140.87 203.983 138.863 202.949 136.91C202.846 136.723 202.743 136.535 202.641 136.348C202.102 135.355 201.538 134.376 200.949 133.417C200.839 133.233 200.727 133.056 200.609 132.878C199.938 131.803 199.234 130.753 198.504 129.722C197.958 128.954 197.372 128.182 196.713 127.51C196.545 127.338 196.376 127.173 196.202 127.025C195.81 126.673 195.388 126.358 194.932 126.096C193.443 125.252 191.466 125.057 190.074 126.052C188.609 127.095 188.195 129.168 188.625 130.911" fill="#F68640"/>
<path d="M204.032 144.674C204.683 144.291 205.343 143.904 205.996 143.513C205.923 143.314 205.838 143.111 205.759 142.909C205.076 143.311 204.393 143.712 203.709 144.114C203.356 144.332 203.675 144.884 204.032 144.674Z" fill="#F46F2E"/>
<path d="M198.778 143.677C198.933 143.826 199.092 143.975 199.254 144.119C200.541 143.188 201.873 142.316 203.24 141.507C203.598 141.297 203.275 140.737 202.918 140.947C201.495 141.787 200.112 142.699 198.778 143.677" fill="#F46F2E"/>
<path d="M198.996 139.664C200.232 138.633 201.556 137.712 202.949 136.91C202.846 136.723 202.743 136.535 202.641 136.347C201.194 137.174 199.825 138.136 198.546 139.209C198.226 139.475 198.677 139.931 198.996 139.664" fill="#F46F2E"/>
<path d="M195.356 136.906C197.088 135.542 198.968 134.372 200.95 133.417C200.839 133.233 200.727 133.056 200.609 132.878C198.587 133.855 196.674 135.05 194.899 136.449C194.577 136.701 195.034 137.159 195.356 136.906" fill="#F46F2E"/>
<path d="M190.632 134.673C190.759 134.841 190.901 135.012 191.037 135.176C192.723 133.733 194.634 132.572 196.705 131.753C197.081 131.602 196.922 130.979 196.533 131.133C194.385 131.984 192.391 133.184 190.632 134.673" fill="#F46F2E"/>
<path d="M191.491 130.167C191.63 130.298 191.809 130.274 191.951 130.171C193.4 129.064 195.007 128.16 196.713 127.509C196.546 127.338 196.377 127.172 196.203 127.025C194.523 127.703 192.943 128.608 191.495 129.708C191.359 129.818 191.381 130.057 191.491 130.167" fill="#F46F2E"/>
<path d="M179.406 146.936C179.393 147.046 179.38 147.148 179.361 147.258C179.206 148.206 178.961 149.154 178.626 150.069C177.961 151.887 176.949 153.576 175.59 154.897C175.235 155.246 174.861 155.568 174.455 155.852C174.132 156.097 173.791 156.31 173.429 156.51C171.502 157.567 169.33 157.876 167.169 157.612C166.68 157.554 166.19 157.464 165.7 157.341C163.946 156.916 162.245 156.129 160.749 155.072C160.039 154.569 159.376 154.015 158.776 153.402C158.673 153.299 158.576 153.196 158.486 153.093C154.908 149.302 153.167 144.126 151.975 139.052C150.254 131.709 147.881 121.716 150.789 114.354C151.523 112.497 152.903 111.028 154.605 109.99C155.269 109.583 155.985 109.242 156.726 108.971C157.1 108.829 157.48 108.707 157.867 108.61C158.318 108.487 158.776 108.384 159.24 108.314C159.653 108.249 160.065 108.204 160.478 108.178C160.903 108.152 161.335 108.146 161.761 108.165C162.367 108.184 162.966 108.249 163.553 108.359C164.03 108.449 164.495 108.565 164.939 108.72C165.487 108.893 166.003 109.113 166.499 109.377C171.077 111.846 173.339 117.074 174.951 122.013C176.453 126.59 177.678 131.251 178.639 135.97C179.374 139.58 179.948 143.3 179.406 146.936" fill="#20795A"/>
<path d="M160.749 155.071C160.039 154.568 159.376 154.014 158.776 153.401C158.673 153.298 158.576 153.196 158.486 153.092C158.396 152.873 158.305 152.654 158.222 152.428C155.521 145.408 153.974 137.845 152.703 130.444C151.536 123.637 151.227 116.19 154.605 109.989C155.269 109.583 155.985 109.241 156.726 108.97L156.668 109.067C154.38 112.464 153.355 116.494 153.18 120.555C153.013 124.552 153.619 128.524 154.38 132.437C155.076 136.047 155.823 139.651 156.72 143.216C157.739 147.264 159.002 151.287 160.749 155.071" fill="#51C292"/>
<path d="M167.17 157.611C166.68 157.553 166.19 157.464 165.7 157.341C164.992 155.413 164.276 153.492 163.567 151.564C162.201 147.858 160.505 144.125 159.699 140.244C158.925 136.498 159.041 132.636 158.281 128.885C157.526 125.184 156.566 121.542 156.63 117.738C156.681 114.657 157.223 111.62 157.868 108.609C158.319 108.487 158.777 108.383 159.241 108.313C158.441 112.032 157.745 115.798 157.958 119.614C158.164 123.353 159.325 126.944 159.905 130.625C160.498 134.37 160.35 138.187 161.439 141.849C162.535 145.53 164.037 149.121 165.366 152.724C165.971 154.356 166.571 155.98 167.17 157.611" fill="#51C292"/>
<path d="M175.59 154.897C175.235 155.245 174.861 155.568 174.455 155.852C174.017 153.125 173.378 150.43 172.611 147.774C170.613 140.863 167.763 134.261 165.236 127.543C162.889 121.303 160.885 114.863 160.479 108.178C160.903 108.152 161.335 108.146 161.762 108.164C161.987 111.813 162.702 115.411 163.702 118.924C165.648 125.809 168.581 132.366 171.058 139.064C172.965 144.222 174.642 149.489 175.59 154.897Z" fill="#51C292"/>
<path d="M179.406 146.937C179.393 147.046 179.381 147.149 179.361 147.259C179.207 148.206 178.961 149.154 178.626 150.069C178.459 148.896 178.259 147.73 178.027 146.562C176.622 139.413 174.171 132.573 170.897 126.074C168.022 120.369 164.759 114.689 163.554 108.359C164.031 108.449 164.495 108.565 164.94 108.72C165.623 111.898 166.822 114.941 168.215 117.881C169.737 121.104 171.464 124.224 173.005 127.441C174.552 130.664 175.892 133.985 176.989 137.389C177.994 140.516 178.8 143.706 179.406 146.937" fill="#51C292"/>
<path d="M183.748 161.272C183.748 164.598 175.109 165.855 169.204 165.726C163.531 165.848 155.356 164.695 154.712 161.665C154.673 161.536 154.66 161.407 154.66 161.272C154.66 158.461 157.883 142.602 159.399 135.304C159.87 133.067 160.172 131.63 160.172 131.63H178.23C178.23 131.63 178.532 133.067 179.003 135.304C180.518 142.602 183.748 158.461 183.748 161.272Z" fill="#FAB663"/>
<path d="M179.004 135.304C178.533 133.067 178.23 131.63 178.23 131.63H175.02H160.172C160.172 131.63 159.87 133.067 159.399 135.304H175.853C177.665 143.404 180.289 155.882 179.771 157.822C179.042 160.601 166.406 165.462 154.712 161.665C155.357 164.695 163.531 165.848 169.205 165.726C175.109 165.855 183.749 164.598 183.749 161.272C183.749 158.461 180.518 142.602 179.004 135.304" fill="#F7923D"/>
<path d="M179.772 133.121H158.633V128.296H179.772V133.121Z" fill="#FAB663"/>
<path d="M175.631 150.931H159.546V143.731H175.631V150.931Z" fill="white"/>
<path d="M204.418 161.587C204.418 164.913 195.779 166.17 189.874 166.041C184.201 166.164 176.027 165.01 175.381 161.98C175.343 161.851 175.33 161.722 175.33 161.587C175.33 158.775 178.553 142.916 180.068 135.618C180.539 133.382 180.842 131.944 180.842 131.944H198.9C198.9 131.944 199.203 133.382 199.673 135.618C201.188 142.916 204.418 158.775 204.418 161.587" fill="#F04242"/>
<path d="M199.673 135.618C199.203 133.382 198.9 131.944 198.9 131.944H195.689H180.843C180.843 131.944 180.539 133.382 180.068 135.618H196.523C198.335 143.719 200.959 156.197 200.441 158.138C199.712 160.916 187.076 165.777 175.382 161.98C176.027 165.01 184.201 166.164 189.875 166.041C195.78 166.17 204.418 164.913 204.418 161.587C204.418 158.775 201.188 142.916 199.673 135.618" fill="#EF2D2E"/>
<path d="M200.443 133.438H179.303V128.612H200.443V133.438Z" fill="#F04242"/>
<path d="M196.301 151.245H180.216V144.045H196.301V151.245Z" fill="white"/>
<path d="M138.178 120.617L124.65 121.444C124.65 121.444 118.61 91.2461 122.273 82.5894C122.823 81.281 123.597 80.4677 124.65 80.3207C128.785 79.7475 132.254 90.4952 134.639 101.033C136.884 110.922 138.178 120.617 138.178 120.617" fill="#FAB663"/>
<path d="M130.575 92.4765C128.325 90.8987 125.712 89.8414 122.998 89.4088C125.135 91.5077 127.584 92.6229 130.575 92.4765Z" fill="#F7923D"/>
<path d="M131.384 100.171C129.133 98.593 126.521 97.5358 123.807 97.1031C125.944 99.202 128.393 100.317 131.384 100.171Z" fill="#F7923D"/>
<path d="M132.262 108.214C130.011 106.636 127.399 105.579 124.685 105.146C126.822 107.245 129.27 108.36 132.262 108.214Z" fill="#F7923D"/>
<path d="M134.639 101.034C134.291 99.8728 133.965 98.7036 133.633 97.5423C132.634 94.1043 131.503 90.6274 129.421 87.7158C127.67 85.2844 125.146 83.2792 122.273 82.5902C122.823 81.2817 123.597 80.4685 124.65 80.3214C128.785 79.7482 132.254 90.4959 134.639 101.034" fill="#F7923D"/>
<path d="M144.363 163.255L138.615 111.644L120.731 113.144L126.181 163.255H144.363Z" fill="#C07E53"/>
<path d="M158.166 143.275C158.03 143.773 157.379 144.154 156.61 144.437C156.616 140.236 156.619 136.096 156.614 132.928C157.575 133.076 158.414 133.258 158.49 133.448C158.676 133.911 158.536 141.918 158.166 143.275V143.275ZM160.758 130.933C160.304 130.221 158.354 129.917 156.603 129.788C156.594 128.276 156.581 127.336 156.562 127.231C156.439 126.552 149.033 121.8 149.033 121.8V117.11H139.036V122.294C139.036 122.294 132.125 127.231 131.632 128.464C131.138 129.699 131.632 163.269 131.632 163.269H156.562C156.562 163.269 156.588 155.818 156.604 147.692C158.503 147.255 160.624 146.698 160.758 146.361C161.005 145.743 161.622 132.291 160.758 130.933Z" fill="#D1F0FC"/>
<path d="M150.484 119.239H137.618V113.408H150.484V119.239Z" fill="#363950"/>
<path d="M198.291 209.604H111.661C111.176 209.604 110.717 209.386 110.411 209.009C110.104 208.632 109.985 208.137 110.084 207.663L119.276 163.774C119.458 162.902 120.311 162.345 121.183 162.526C122.054 162.708 122.613 163.563 122.43 164.434L113.646 206.381H198.291C199.181 206.381 199.903 207.103 199.903 207.993C199.903 208.883 199.181 209.604 198.291 209.604Z" fill="#BCBEBC"/>
<path d="M113.038 107.35C112.293 107.35 111.624 106.83 111.464 106.073L109.743 97.9753L93.1551 95.4977C92.2748 95.3663 91.6677 94.5459 91.7991 93.6656C91.9306 92.7853 92.751 92.1802 93.6313 92.3097L111.325 94.9525C111.99 95.0521 112.523 95.5537 112.663 96.2115L114.616 105.403C114.801 106.273 114.245 107.129 113.375 107.314C113.262 107.339 113.149 107.35 113.038 107.35Z" fill="#363950"/>
<path d="M122.268 162.523L202.457 164.3L209.975 121.343L114.921 107.638L122.268 162.523ZM203.807 167.554L203.77 167.553L120.818 165.715C120.023 165.697 119.361 165.105 119.256 164.317L111.443 105.952C111.376 105.451 111.548 104.948 111.907 104.592C112.266 104.237 112.771 104.07 113.271 104.143L212.079 118.39C212.51 118.452 212.897 118.686 213.154 119.039C213.409 119.392 213.512 119.834 213.437 120.263L205.394 166.221C205.258 166.993 204.588 167.554 203.807 167.554Z" fill="#BCBEBC"/>
<path d="M196.392 149.314L185.996 149.181L187.212 130.834L198.79 131.382L196.392 149.314ZM174.362 149.032L174.909 130.252L185.923 130.773L184.705 149.164L174.362 149.032ZM164.392 148.903V129.754L173.621 130.191L173.072 149.015L164.392 148.903ZM153.07 148.758L152.893 129.21L163.103 129.694V148.887L153.07 148.758ZM141.582 148.611L140.837 128.64L151.603 129.149L151.78 148.741L141.582 148.611ZM130.965 148.474L129.073 128.083L139.544 128.578L140.291 148.594L130.965 148.474ZM209.905 130.617L200.254 130.161L201.809 118.531C201.857 118.178 201.609 117.853 201.255 117.806C200.903 117.76 200.578 118.007 200.531 118.36L198.962 130.099L187.297 129.547L188.16 116.519C188.183 116.164 187.914 115.857 187.559 115.833C187.204 115.807 186.897 116.078 186.873 116.434L186.009 129.487L174.947 128.963L175.382 114.029C175.393 113.673 175.112 113.376 174.757 113.365C174.408 113.343 174.103 113.635 174.094 113.991L173.659 128.902L164.392 128.463V113.049C164.392 112.693 164.103 112.404 163.747 112.404C163.391 112.404 163.103 112.693 163.103 113.049V128.403L152.881 127.918L152.732 111.362C152.729 111.008 152.441 110.723 152.087 110.723H152.081C151.726 110.726 151.439 111.018 151.443 111.374L151.592 127.857L140.788 127.347L140.124 109.526C140.11 109.17 139.807 108.887 139.455 108.906C139.1 108.919 138.822 109.218 138.835 109.574L139.496 127.286L128.953 126.786L127.175 107.624C127.142 107.27 126.826 107.011 126.474 107.042C126.119 107.074 125.859 107.389 125.891 107.743L127.652 126.724L115.892 126.168C115.533 126.159 115.234 126.426 115.218 126.781C115.201 127.137 115.475 127.439 115.83 127.456L127.773 128.021L129.669 148.458L118.834 148.318H118.826C118.474 148.318 118.186 148.601 118.181 148.955C118.177 149.311 118.462 149.603 118.817 149.607L129.788 149.749L131.125 164.163C131.157 164.498 131.438 164.749 131.767 164.749L131.827 164.746C132.182 164.713 132.442 164.399 132.41 164.044L131.085 149.765L140.338 149.884L140.887 164.586C140.9 164.934 141.186 165.207 141.531 165.207L141.556 165.206C141.911 165.192 142.189 164.894 142.176 164.539L141.629 149.901L151.791 150.031L151.919 164.109C151.922 164.463 152.21 164.749 152.564 164.749H152.569C152.925 164.746 153.212 164.454 153.208 164.098L153.082 150.048L163.103 150.176V165.265C163.103 165.621 163.391 165.909 163.747 165.909C164.103 165.909 164.392 165.621 164.392 165.265V150.193L173.035 150.304L172.6 165.246C172.589 165.602 172.869 165.898 173.225 165.909L173.244 165.909C173.591 165.909 173.878 165.633 173.888 165.284L174.325 150.32L184.62 150.452L183.625 165.466C183.601 165.822 183.871 166.129 184.226 166.152L184.269 166.153C184.606 166.153 184.889 165.893 184.912 165.551L185.911 150.469L196.22 150.602L194.207 165.658C194.16 166.011 194.407 166.335 194.76 166.382L194.847 166.388C195.165 166.388 195.441 166.153 195.485 165.829L197.519 150.618L206.572 150.735H206.58C206.932 150.735 207.22 150.451 207.225 150.098C207.229 149.742 206.944 149.45 206.589 149.445L197.691 149.331L200.082 131.443L209.844 131.905L209.876 131.906C210.217 131.906 210.503 131.637 210.519 131.291C210.536 130.936 210.261 130.634 209.905 130.617" fill="#BCBEBC"/>
<path d="M133.266 225.137C133.266 229.691 129.573 233.384 125.019 233.384C120.464 233.384 116.771 229.691 116.771 225.137C116.771 220.581 120.464 216.89 125.019 216.89C129.573 216.89 133.266 220.581 133.266 225.137Z" fill="#363950"/>
<path d="M123.176 208.793L124.881 219.956L122.013 226.001L124.881 227.939L133.252 219.491L133.795 208.793H123.176Z" fill="#DCDDDA"/>
<path d="M125.967 225.304C125.967 225.946 125.445 226.467 124.804 226.467C124.161 226.467 123.641 225.946 123.641 225.304C123.641 224.663 124.161 224.142 124.804 224.142C125.445 224.142 125.967 224.663 125.967 225.304Z" fill="#363950"/>
<path d="M137.371 211.051H119.597V205.416H137.371V211.051Z" fill="#363950"/>
<path d="M187.419 225.137C187.419 229.691 183.727 233.384 179.172 233.384C174.617 233.384 170.925 229.691 170.925 225.137C170.925 220.581 174.617 216.89 179.172 216.89C183.727 216.89 187.419 220.581 187.419 225.137Z" fill="#363950"/>
<path d="M176.92 208.793L178.625 219.956L175.757 226.001L178.625 227.939L186.997 219.491L187.54 208.793H176.92" fill="#DCDDDA"/>
<path d="M179.711 225.304C179.711 225.946 179.19 226.467 178.547 226.467C177.905 226.467 177.385 225.946 177.385 225.304C177.385 224.663 177.905 224.142 178.547 224.142C179.19 224.142 179.711 224.663 179.711 225.304Z" fill="#363950"/>
<path d="M191.114 211.051H173.34V205.416H191.114V211.051" fill="#363950"/>
<path d="M59.9209 41.2339C59.9209 41.2339 71.6784 44.9835 72.8268 46.5938C73.9758 48.2041 82.484 76.3529 82.484 76.3529L65.4376 79.9814L59.9209 41.2339Z" fill="#DCDDDA"/>
<path d="M83.6029 73.9219L85.0674 79.0891L69.7581 82.0781L69.2656 77.5023L83.6029 73.9219Z" fill="white"/>
<path d="M37.152 230.447C37.4077 229.967 37.5808 229.317 37.208 228.666C36.1188 226.767 31.813 220.206 31.1493 217.768C30.634 215.873 31.1435 212.938 31.3972 211.72L19.8479 204.179C17.0554 206.541 12.4952 211.687 11.5459 212.768L37.152 230.447Z" fill="#DD3464"/>
<path d="M35.3441 232.969L9.7373 215.29L11.5461 212.768L37.1522 230.447L35.3441 232.969" fill="white"/>
<path d="M28.4866 216.985L28.3721 217.037C28.0885 217.171 27.7644 217.455 27.9661 217.793C28.0689 217.966 28.2596 218.067 28.445 218.149C29.0852 218.431 29.7749 218.551 30.4691 218.618C31.2154 218.69 32.0144 218.761 32.7307 218.489C33.4718 218.207 33.3332 217.371 32.6351 217.074C31.4281 216.56 29.7183 216.456 28.4866 216.985" fill="white"/>
<path d="M29.4414 219.664L29.3262 219.715C29.0426 219.849 28.7185 220.134 28.9202 220.471C29.023 220.644 29.2137 220.746 29.3998 220.827C30.04 221.109 30.729 221.23 31.4239 221.297C32.1701 221.369 32.9691 221.44 33.6854 221.168C34.4259 220.886 34.2873 220.05 33.5898 219.753C32.3829 219.238 30.6724 219.135 29.4414 219.664" fill="white"/>
<path d="M31.1738 222.191L31.0593 222.243C30.775 222.377 30.451 222.662 30.6527 222.999C30.7555 223.172 30.9461 223.273 31.1322 223.355C31.7724 223.637 32.4621 223.757 33.1563 223.824C33.9026 223.896 34.7015 223.967 35.4179 223.695C36.1583 223.413 36.0203 222.577 35.3222 222.28C34.1153 221.766 32.4048 221.662 31.1738 222.191" fill="white"/>
<path d="M63.0164 170.753L47.4918 155.751L16.6162 202.849L33.2268 214.362L63.0164 170.753Z" fill="#282A3E"/>
<path d="M49.4627 117.235C50.5447 128.937 51.9682 147.919 50.246 152.037C50.192 152.167 49.7795 152.855 49.1035 153.951L66.5046 169.356C66.5046 169.356 72.7311 159.162 73.4826 155.315C75.1677 146.681 71.655 123.838 70.7688 117.235H49.4627Z" fill="#282A3E"/>
<path d="M71.7941 166.043L55.9455 117.235H29.5039C31.597 122.42 48.2609 163.7 52.5225 173.942L58.1329 220.342L75.9672 216.637L75.5274 211.328L71.7941 166.043" fill="#363950"/>
<path d="M60.8054 165.68C61.3364 167.621 62.6096 169.349 64.3058 170.431C65.4301 171.148 66.9858 171.551 68.0437 170.74C69.0157 169.994 69.1211 168.58 69.0203 167.359C68.8908 165.802 68.5622 164.262 68.045 162.788C67.5759 161.452 66.8875 160.097 65.6702 159.375C61.35 156.812 60.0221 162.815 60.8054 165.68" fill="#52546E"/>
<path d="M91.308 226.551C91.1688 226.027 90.8513 225.431 90.1304 225.194C88.0236 224.505 80.3443 222.481 78.1829 221.11C76.5049 220.047 74.8738 217.535 74.2277 216.466L60.5099 218.488C60.0564 222.079 60.1995 228.897 60.2353 230.323L91.308 226.551" fill="#DD3464"/>
<path d="M91.6929 229.611L60.6202 233.384L60.2344 230.323L91.3071 226.551L91.6929 229.611Z" fill="white"/>
<path d="M75.674 222.285L75.6246 222.4C75.5062 222.687 75.4606 223.11 75.8413 223.228C76.0351 223.288 76.2466 223.237 76.4398 223.176C77.1067 222.963 77.7007 222.598 78.2609 222.19C78.8634 221.751 79.5043 221.278 79.8485 220.604C80.2044 219.907 79.5297 219.378 78.8094 219.619C77.5628 220.033 76.2251 221.083 75.674 222.285" fill="white"/>
<path d="M78.2154 223.641L78.1653 223.755C78.0476 224.042 78.0014 224.466 78.382 224.584C78.5765 224.643 78.7867 224.593 78.9806 224.531C79.6475 224.318 80.2415 223.954 80.8017 223.546C81.4035 223.106 82.0444 222.633 82.3892 221.959C82.7451 221.262 82.0704 220.734 81.3495 220.974C80.1036 221.388 78.7659 222.438 78.2154 223.641" fill="white"/>
<path d="M81.2265 224.374L81.177 224.488C81.0593 224.775 81.0131 225.198 81.3937 225.316C81.5882 225.376 81.7984 225.326 81.9923 225.264C82.6592 225.05 83.2532 224.686 83.8134 224.278C84.4152 223.839 85.0561 223.366 85.4003 222.692C85.7568 221.994 85.0821 221.466 84.3612 221.706C83.1153 222.121 81.7776 223.171 81.2265 224.374" fill="white"/>
<path d="M61.5168 212.771C61.5168 212.771 56.9116 175.114 55.8648 171.102C54.9298 167.526 38.4787 126.183 34.9171 117.235H29.5039C31.597 122.42 48.2609 163.7 52.5225 173.942L58.1329 220.342L75.9672 216.637L75.5274 211.328L61.5168 212.771" fill="#282A3E"/>
<path d="M44.198 39.8125C44.198 39.8125 35.6025 41.8489 34.2238 42.9394C32.8451 44.0298 28.8405 110.016 30.5367 117.235C30.5367 117.235 59.9041 118.369 71.268 116.625C71.268 116.625 70.8744 53.1451 69.3812 49.1236C67.8874 45.1021 59.9217 41.2341 59.9217 41.2341L49.6762 44.7579L44.198 39.8125" fill="#DCDDDA"/>
<path d="M46.9657 38.8483L44.1973 39.8119C44.1973 39.8119 47.0542 49.7164 53.0497 52.168L58.6237 47.594L64.0623 50.8465C64.0623 50.8465 60.4955 42.0761 59.921 41.2335L57.0719 40.7L46.9657 38.8483" fill="white"/>
<path d="M47.4413 41.9401C47.6996 42.1223 58.6236 47.5947 58.6236 47.5947C58.6236 47.5947 57.6321 43.2232 57.1252 40.944C56.971 40.2381 56.8598 39.7325 56.8403 39.6206C56.6802 38.7019 56.7713 34.5867 56.7713 34.5867L46.2285 31.8235C46.2285 31.8235 46.4257 33.8639 46.6631 36.1124C46.9501 38.8249 47.2988 41.8399 47.4413 41.9401" fill="#F68672"/>
<path d="M46.6631 36.1118C49.7185 37.6089 56.4447 40.8763 57.0706 40.9414L57.1252 40.9434C56.971 40.2374 56.8598 39.7319 56.8403 39.62C56.6802 38.7013 56.7713 34.5861 56.7713 34.5861L46.2285 31.8229C46.2285 31.8229 46.4257 33.8632 46.6631 36.1118" fill="#F36269"/>
<path d="M44.9523 32.3966C44.9523 32.3966 45.3192 33.059 46.5782 33.8332H46.5802C46.8372 33.9926 47.1338 34.1566 47.4715 34.3205C48.7598 34.9425 60.285 37.668 61.8986 37.1599C63.5128 36.6517 64.0801 30.7024 64.0619 30.0908C63.9546 26.3347 63.4412 14.7594 63.4412 14.7594C57.2153 3.13265 43.7896 12.056 42.3485 13.5557C40.9073 15.0561 44.9523 32.3966 44.9523 32.3966" fill="#F68672"/>
<path d="M46.5801 33.8332C46.8371 33.9926 47.1338 34.1566 47.4714 34.3205C48.7597 34.9425 60.2849 37.668 61.8985 37.1599C63.5127 36.6517 64.08 30.7024 64.0618 30.0908C63.4678 32.7636 62.9063 36.4143 61.717 36.508C59.9258 36.6504 48.0017 34.2913 46.5801 33.8332" fill="#F9AA7F"/>
<path d="M62.9264 19.3076C62.9264 19.3076 61.2894 16.3856 60.0422 17.2926C58.7949 18.1996 59.279 18.3759 59.279 18.3759L62.9264 19.3076" fill="#353638"/>
<path d="M46.833 18.1377C46.833 18.1377 50.5214 13.8683 52.0393 15.3784C52.9255 16.2593 52.3126 16.8625 52.3126 16.8625L46.833 18.1377Z" fill="#353638"/>
<path d="M49.7198 23.3916C49.9183 24.5308 50.6548 25.3545 51.3646 25.2309C52.0745 25.1073 52.4889 24.0832 52.2898 22.9433C52.0914 21.8034 51.3549 20.9803 50.645 21.104C49.9352 21.2276 49.5207 22.2517 49.7198 23.3916Z" fill="#121414"/>
<path d="M48.291 22.4538C48.291 22.4538 48.8668 23.0842 49.7055 23.2644C50.5441 23.4447 51.3275 23.107 51.3275 23.107C51.3275 23.107 50.7523 22.4772 49.9137 22.297C49.075 22.1161 48.291 22.4538 48.291 22.4538" fill="white"/>
<path d="M62.0053 22.0468C62.1549 22.9062 61.8426 23.6779 61.3078 23.7709C60.773 23.8646 60.218 23.2439 60.0677 22.3844C59.9181 21.5256 60.2304 20.7533 60.7658 20.6603C61.3007 20.5672 61.8556 21.1879 62.0053 22.0468" fill="#121414"/>
<path d="M62.7058 21.1469C62.7058 21.1469 62.4456 21.6655 61.9277 21.9875C61.4098 22.3109 60.8301 22.3154 60.8301 22.3154C60.8301 22.3154 61.0903 21.7975 61.6082 21.4748C62.1261 21.1521 62.7058 21.1469 62.7058 21.1469Z" fill="white"/>
<path d="M53.8916 32.5926C54.9508 32.9121 56.1473 32.7397 57.0725 32.1339C56.8136 32.7 56.3796 33.0832 55.7622 33.1678C55.1447 33.2511 54.3848 32.9733 53.8916 32.5926" fill="#F14568"/>
<path d="M61.8793 26.9762C62.1272 27.3984 63.1116 27.2807 64.0784 26.7133C65.0453 26.1453 65.6282 25.3431 65.3804 24.9208C65.1331 24.4986 64.1481 24.6163 63.1812 25.1843C62.2144 25.7517 61.6314 26.5539 61.8793 26.9762Z" fill="#F36269"/>
<path d="M48.4999 27.1363C48.442 27.8487 49.7173 28.5326 51.3477 28.6653C52.9776 28.7974 54.3458 28.327 54.4037 27.6152C54.4617 26.9034 53.1871 26.2189 51.5566 26.0868C49.9261 25.9548 48.5578 26.4245 48.4999 27.1363" fill="#F36269"/>
<path d="M51.0684 29.9295C51.0684 29.9295 51.1516 30.0102 51.2967 30.15C51.4438 30.2951 51.6767 30.4825 51.987 30.6868C52.6012 31.0974 53.5811 31.5216 54.732 31.6094C55.883 31.6914 56.9142 31.4162 57.5824 31.0999C57.9188 30.9431 58.1771 30.7922 58.3437 30.6705C58.5076 30.5534 58.602 30.4858 58.602 30.4858C58.602 30.4858 58.4933 30.5261 58.3046 30.5957C58.1179 30.6718 57.8375 30.7584 57.4927 30.8469C56.803 31.0264 55.8336 31.1487 54.7711 31.0733C53.7099 30.9926 52.7684 30.7284 52.112 30.4493C51.7847 30.3114 51.5199 30.1845 51.3462 30.0824C51.1698 29.9854 51.0684 29.9295 51.0684 29.9295Z" fill="#F14568"/>
<path d="M56.3974 26.5945L55.8613 25.2464C55.8613 25.2464 57.8529 25.9914 59.0019 25.5314V26.834H58.1594L56.3974 26.5945" fill="#F36269"/>
<path d="M59.311 27.1191C58.3389 27.2765 57.2752 27.041 56.3975 26.5947C57.1626 26.4997 57.9375 26.4854 58.7052 26.5511C58.6291 24.2908 58.1932 21.9108 56.6987 20.2146C57.7202 20.9778 58.4925 22.037 58.892 23.2478C59.2915 24.4587 59.3682 25.8451 59.311 27.1191" fill="#F14568"/>
<path d="M46.6062 32.5582C44.3674 32.769 42.5307 31.7391 41.4786 30.7924C41.2418 30.579 41.0453 30.3688 40.8924 30.1795C40.0622 29.145 39.189 25.21 40.6523 24.005C41.6783 23.1612 42.6699 23.953 43.1715 24.5041V24.506C43.3856 24.7396 43.5105 24.9302 43.5105 24.9302L46.6062 32.5582Z" fill="#F9AA7F"/>
<path d="M46.6063 32.5582C44.3675 32.769 42.5307 31.7391 41.4787 30.7924C41.385 30.6935 41.301 30.5979 41.2282 30.5061C40.398 29.4723 39.5248 25.5373 40.9887 24.3329C41.8189 23.6485 42.627 24.0382 43.1716 24.5041V24.506C43.3857 24.7396 43.5106 24.9302 43.5106 24.9302L46.6063 32.5582Z" fill="#F68672"/>
<path d="M40.6894 27.2449C40.6634 27.5767 40.7727 27.8975 40.9314 28.1928C41.6074 29.4466 43.1143 30.2306 44.5515 30.9521C44.0551 30.3737 43.787 29.6691 43.7415 28.9456C43.7259 28.6938 43.7363 28.4381 43.6953 28.1902C43.5307 27.1902 40.8436 25.2852 40.6894 27.2449" fill="#F36269"/>
<path d="M45.257 31.2197L45.1776 31.1911C45.1262 31.1716 45.0456 31.1475 44.9512 31.1046C44.7606 31.0206 44.4932 30.8788 44.2238 30.6472C43.9558 30.4155 43.6929 30.0902 43.5231 29.6797C43.363 29.2698 43.2947 28.7708 43.4398 28.2535C43.4535 28.1884 43.4776 28.1253 43.5023 28.0622L43.5198 28.0154L43.5225 28.0095L43.5218 28.0115L43.5231 28.0102H43.5238L43.5185 28.0037L43.4912 27.9692L43.4346 27.9009L43.3208 27.7681C43.1659 27.5944 43.0039 27.4337 42.8412 27.2867C42.6779 27.1396 42.512 27.0076 42.3507 26.8878C42.1874 26.7701 42.0319 26.6595 41.8822 26.584C41.7332 26.5072 41.5777 26.4675 41.4385 26.4734C41.2999 26.4819 41.1769 26.5352 41.0982 26.5931C41.0182 26.6517 40.9798 26.7161 40.9668 26.7616L40.9557 26.8325L40.9473 26.7603C40.9479 26.7128 40.9713 26.6367 41.0475 26.5567C41.1229 26.4786 41.2485 26.396 41.4274 26.3602C41.6063 26.327 41.8106 26.3537 42 26.4207C42.1919 26.4884 42.3695 26.584 42.5576 26.6894C42.745 26.7974 42.9375 26.921 43.1269 27.0635C43.3156 27.206 43.5023 27.3667 43.6773 27.5456L43.8061 27.6829L43.8692 27.7545L43.9538 27.8553L44.0124 27.9269L43.9824 28.0134L43.9369 28.1377L43.8842 28.303C43.758 28.7519 43.7892 29.1937 43.8946 29.5762C44.0085 29.9569 44.1998 30.2809 44.4067 30.5268C44.6149 30.7741 44.8335 30.9458 44.9942 31.0571C45.0742 31.113 45.1438 31.1488 45.1881 31.1774L45.257 31.2197" fill="#D03B58"/>
<path d="M37.6172 21.7734L38.0251 22.1378L40.4012 24.2692C42.6043 23.562 44.9947 27.376 44.9947 27.376L45.1619 16.4942C47.9062 16.0986 56.5056 11.8943 56.5056 11.8943L63.5747 17.7512C63.5747 17.7512 64.1114 16.936 64.7087 15.7206C65.7998 13.487 67.077 9.90726 65.5168 7.60859C63.1108 4.05746 53.7788 2.44715 53.7788 2.44715L50.3201 4.65798C50.3201 4.65798 41.9198 6.19087 39.8026 8.19155C37.6855 10.1922 37.6172 21.7734 37.6172 21.7734" fill="#121414"/>
<path d="M37.6172 21.7739L38.0251 22.1382C39.422 21.6626 40.707 20.8422 41.7324 19.7732C42.2471 20.8422 42.7637 21.917 43.2783 22.9854C44.0109 20.1297 44.1248 17.1342 43.644 14.2324C48.7208 14.6306 53.918 11.8733 56.4334 7.43793C59.9357 9.29222 62.8544 12.2266 64.7087 15.7211C65.1342 14.859 65.576 13.7946 65.8812 12.6846C66.362 10.9129 66.4745 9.02027 65.5168 7.60906C63.1108 4.05793 53.7788 2.44762 53.7788 2.44762L50.3201 4.65845C50.3201 4.65845 41.9198 6.19133 39.8026 8.19202C38.6179 9.31305 38.0707 13.4374 37.8273 16.8493C37.6308 19.5331 37.6172 21.7739 37.6172 21.7739" fill="#353638"/>
<path d="M37.8271 16.8486L37.8337 16.8473C39.2618 16.6626 40.1649 15.2591 40.8656 14.0047C41.1499 14.8909 41.442 15.7816 41.7264 16.6678C42.7427 14.725 43.2111 12.4985 43.0634 10.304C48.1129 11.6456 53.8892 9.59608 56.9602 5.3696C60.8438 6.26031 64.1939 9.0886 65.881 12.684C66.3618 10.9123 66.4743 9.01963 65.5166 7.60842C63.1106 4.05729 53.7786 2.44698 53.7786 2.44698L50.3199 4.65781C50.3199 4.65781 41.9196 6.1907 39.8025 8.19138C38.6177 9.31241 38.0705 13.4367 37.8271 16.8486" fill="#4A4C4E"/>
<path d="M11.3656 83.8217C11.3656 83.8217 6.54049 118.935 8.37852 122.323C10.2165 125.712 20.9493 128.01 25.9234 128.24C30.8974 128.469 42.1605 123.414 42.6185 121.116C43.0766 118.818 39.8163 83.8217 39.8163 83.8217H11.3656" fill="#F46D3C"/>
<path d="M48.2274 99.9004C47.8084 101.071 40.103 97.2829 40.103 97.2829L38.3632 98.9147L41.4348 100.8L44.0595 105.347C44.0595 105.347 43.4693 106.18 42.6853 107.158C42.5884 107.28 42.4869 107.403 42.3847 107.528C41.9098 108.107 41.3854 108.703 40.8889 109.184L40.7477 109.325C40.4947 109.56 40.2526 109.762 40.0334 109.912C39.7874 110.078 39.5682 110.18 39.386 110.191L36.6202 107.175C36.6202 107.175 30.987 107.511 30.2154 107.138C29.9089 106.989 29.1139 105.728 28.2661 104.264C27.8614 103.56 26.3057 100.811 25.9238 100.113L27.9518 97.0097L32.5394 95.9465C33.0768 95.8015 33.7919 95.6225 34.5954 95.4514V95.4488C34.9903 95.3636 35.4067 95.2816 35.8329 95.2048C37.3788 94.9277 39.06 94.7422 40.3821 94.8847C40.9429 94.9426 41.4381 95.0636 41.8291 95.2621C44.5305 96.6252 48.6457 98.7332 48.2274 99.9004" fill="#F68672"/>
<path d="M40.8886 109.185L40.7474 109.325C40.6492 109.186 40.5236 109.001 40.37 108.781C40.02 108.282 39.5359 107.613 38.9985 106.902C38.4559 106.195 37.9237 105.589 37.4722 105.179C37.3576 105.078 37.2535 104.986 37.1612 104.903C37.0616 104.83 36.9777 104.764 36.9055 104.713C36.7656 104.603 36.6836 104.54 36.6836 104.54C36.6836 104.54 36.7844 104.559 36.9686 104.603C37.059 104.624 37.1729 104.653 37.3023 104.689C37.426 104.738 37.5652 104.792 37.7226 104.86C38.3355 105.13 39.1137 105.677 39.7097 106.454C40.2978 107.233 40.6121 108.038 40.7695 108.628C40.8268 108.846 40.8639 109.033 40.8886 109.185" fill="#D03B58"/>
<path d="M42.6853 107.157C42.5883 107.28 42.4868 107.403 42.3847 107.528L42.3216 107.442C41.9715 106.942 41.4881 106.275 40.9507 105.565C40.4074 104.856 39.8752 104.25 39.4243 103.841C39.3098 103.738 39.2076 103.647 39.1159 103.567C39.0164 103.491 38.9292 103.427 38.8602 103.374C38.7171 103.264 38.6377 103.204 38.6377 103.204C38.6377 103.204 38.7359 103.222 38.9201 103.264C39.0105 103.288 39.1244 103.314 39.2538 103.353C39.3775 103.398 39.5193 103.456 39.6741 103.521C40.2903 103.793 41.0684 104.341 41.6612 105.117C42.209 105.839 42.5193 106.585 42.6853 107.157" fill="#D03B58"/>
<path d="M16.2826 88.888L21.9001 75.4337H8.6097C5.94928 82.7467 2.80804 92.4632 3.85946 95.026C5.60249 99.2753 28.2652 104.264 28.2652 104.264L29.8677 96.5654L16.2826 88.888" fill="#F68672"/>
<path d="M37.0669 41.7568C37.0669 41.7568 29.7864 43.535 25.9536 46.6157C22.1207 49.6978 5.92591 76.7887 5.61426 78.7048L21.3406 83.8213L32.7058 69.6447L37.0669 41.7568" fill="#DCDDDA"/>
<path d="M3.06836 82.789L4.92655 76.3523L24.1188 81.9582L21.0244 87.2959L3.06836 82.789Z" fill="white"/>
<path d="M71.444 69.4787C71.4134 68.8587 71.2755 68.2607 71.2631 67.6387C71.2494 66.9172 71.2384 66.1956 71.2124 65.4734C71.1662 64.1819 70.9846 62.8995 70.8604 61.6132C70.4654 57.5319 70.3405 53.2852 68.1694 49.6671C68.1284 49.5994 68.0308 49.6586 68.0646 49.7282C68.9371 51.5187 69.3197 53.6001 69.6047 55.5611C69.9085 57.6535 70.077 59.8058 70.1186 61.9197C70.1434 63.1566 70.1505 64.3941 70.226 65.6289C70.2637 66.247 70.2969 66.8658 70.3216 67.4845C70.3464 68.1189 70.241 68.6986 70.1909 69.3258C70.0978 70.4852 70.1134 71.6408 70.159 72.8015C70.2078 74.0364 70.401 75.2277 70.2071 76.4619C70.1193 77.026 70.9625 77.283 71.0816 76.7033C71.3145 75.5718 71.3841 74.3766 71.3731 73.2237C71.3613 71.9752 71.5038 70.7273 71.444 69.4787" fill="#BCBEBC"/>
<path d="M60.3622 54.3508C60.3622 55.1016 59.7532 55.71 59.0024 55.71C58.2516 55.71 57.6426 55.1016 57.6426 54.3508C57.6426 53.5993 58.2516 52.991 59.0024 52.991C59.7532 52.991 60.3622 53.5993 60.3622 54.3508Z" fill="#52546E"/>
<path d="M60.3622 59.7886C60.3622 60.5395 59.7532 61.1484 59.0024 61.1484C58.2516 61.1484 57.6426 60.5395 57.6426 59.7886C57.6426 59.0378 58.2516 58.4295 59.0024 58.4295C59.7532 58.4295 60.3622 59.0378 60.3622 59.7886Z" fill="#52546E"/>
<path d="M60.3622 65.2271C60.3622 65.9786 59.7532 66.5869 59.0024 66.5869C58.2516 66.5869 57.6426 65.9786 57.6426 65.2271C57.6426 64.4769 58.2516 63.8679 59.0024 63.8679C59.7532 63.8679 60.3622 64.4769 60.3622 65.2271Z" fill="#52546E"/>
<path d="M97.4865 102.772C95.8866 100.805 95.6484 97.7003 95.6484 97.7003C96.0577 97.3294 96.5827 97.0041 97.1768 96.7276C97.4234 96.6053 97.6843 96.4959 97.9556 96.3925C98.5561 96.1648 99.2015 95.9676 99.8658 95.805C100.155 95.7301 100.449 95.6612 100.743 95.5994C101.526 95.4361 102.308 95.3059 103.043 95.2083C103.358 95.1615 103.663 95.1251 103.955 95.0893C104.75 95.0014 105.444 94.9468 105.965 94.913C106.568 94.8733 106.934 94.8629 106.934 94.8629C107.812 97.0158 107.311 100.661 107.311 100.661C106.598 101.191 105.767 101.595 104.9 101.897C101.494 103.091 97.4865 102.772 97.4865 102.772" fill="#F68672"/>
<path d="M104.215 98.7881C104.215 98.7881 104.07 98.4966 103.886 98.0522C103.701 97.6039 103.468 97.0138 103.29 96.3502C103.18 95.9474 103.102 95.559 103.043 95.2083C103.358 95.1615 103.663 95.125 103.955 95.0893C104.113 95.3736 104.253 95.7021 104.352 96.0626C104.549 96.7978 104.519 97.5011 104.431 97.9969C104.345 98.4921 104.215 98.7881 104.215 98.7881" fill="#D03B58"/>
<path d="M101.112 99.1484C101.112 99.1484 100.95 98.881 100.747 98.4705C100.545 98.0567 100.294 97.5043 100.108 96.8745C99.9977 96.501 99.9241 96.1354 99.8662 95.8048C100.156 95.73 100.449 95.6611 100.743 95.5993C100.907 95.8764 101.06 96.2004 101.166 96.5641C101.367 97.2493 101.356 97.9148 101.291 98.3859C101.223 98.8602 101.112 99.1484 101.112 99.1484" fill="#D03B58"/>
<path d="M98.4754 100.322C98.4754 100.322 98.3017 100.046 98.085 99.6098C97.871 99.17 97.6075 98.5786 97.4181 97.9032C97.3023 97.4901 97.2262 97.088 97.1768 96.7275C97.4233 96.6052 97.6842 96.4959 97.9556 96.3925C98.156 96.7301 98.3479 97.1413 98.4774 97.6059C98.6797 98.3274 98.6817 99.0184 98.6283 99.5148C98.575 100.015 98.4754 100.322 98.4754 100.322Z" fill="#D03B58"/>
<path d="M104.9 101.897C105.369 101.271 105.773 100.607 105.982 99.8584C106.176 99.1739 106.196 98.455 106.193 97.7471C106.19 96.9371 106.219 96.0678 106.075 95.2669C106.058 95.1621 106.014 95.0424 105.965 94.9136C106.569 94.8739 106.935 94.8635 106.935 94.8635C107.813 97.0164 107.312 100.662 107.312 100.662C106.599 101.192 105.768 101.596 104.9 101.897" fill="#F9AA7F"/>
<path d="M29.5184 83.8213C29.5184 83.8213 30.1938 64.6648 30.1242 62.1371C30.0552 59.6094 24.6934 46.0516 24.6934 46.0516C24.6934 46.0516 26.2998 44.2136 27.411 44.1369C27.411 44.1369 33.1951 60.1456 33.0422 62.1371C32.8887 64.1281 31.8164 83.8213 31.8164 83.8213H29.5184" fill="#F46D3C"/>
<path d="M79.1074 32.8164L88.8747 23.841L92.0361 30.5138L79.1074 32.8164Z" fill="white"/>
<path d="M74.9151 31.8164L73.9346 23.5411L78.4864 24.1279L74.9151 31.8164Z" fill="white"/>
<path d="M79.5322 38.6159L88.3788 38.6303L87.9839 42.8223L79.5322 38.6159Z" fill="white"/>
</svg>
